<svg xmlns="http://www.w3.org/2000/svg" width="64" height="64" viewBox="0 0 64 64">
    <g fill="none" fill-rule="evenodd">
        <path fill="none" d="M0 0h64v64H0z"/>
        <g fill="#41354B" transform="translate(1 4)">
            <path d="M30.193 22.34c5.955 0 10.8-4.845 10.8-10.8 0-5.954-4.845-10.8-10.8-10.8-5.955 0-10.8 4.846-10.8 10.8 0 5.955 4.845 10.8 10.8 10.8zm0-19.274c4.673 0 8.475 3.802 8.475 8.475s-3.802 8.474-8.475 8.474-8.475-3.801-8.475-8.474 3.802-8.475 8.475-8.475zM50.806 34.782c-5.955 0-10.8 4.845-10.8 10.8 0 5.954 4.845 10.8 10.8 10.8 5.954 0 10.799-4.846 10.799-10.8 0-5.955-4.845-10.8-10.8-10.8zM11.42 34.782c-5.954 0-10.799 4.845-10.799 10.8 0 5.954 4.845 10.8 10.8 10.8 5.954 0 10.8-4.846 10.8-10.8 0-5.955-4.846-10.8-10.8-10.8zm5.027 17.607c-.22-.244-.536-.4-.891-.4-.665 0-1.205.539-1.205 1.204 0 .109.02.213.047.313a8.39 8.39 0 0 1-1.96.483c.19-.213.307-.49.307-.796a1.205 1.205 0 0 0-2.41 0c0 .32.128.61.332.825a8.4 8.4 0 0 1-2.369-.565 1.205 1.205 0 0 0-1.175-1.464c-.32 0-.608.126-.823.33a8.533 8.533 0 0 1-1.763-1.813c.059.01.117.018.177.018a1.205 1.205 0 1 0-1.11-1.672 8.41 8.41 0 0 1-.571-2.126c.113.036.231.06.357.06a1.205 1.205 0 0 0 0-2.409c-.126 0-.244.024-.357.06.1-.743.29-1.457.57-2.126a1.205 1.205 0 1 0 1.111-1.672c-.06 0-.119.01-.177.018A8.533 8.533 0 0 1 6.3 38.845c.215.203.504.33.824.33a1.205 1.205 0 0 0 1.174-1.465 8.399 8.399 0 0 1 2.369-.565c-.204.216-.331.505-.331.825a1.205 1.205 0 0 0 2.41 0c0-.306-.119-.583-.308-.796a8.39 8.39 0 0 1 1.96.483c-.027.1-.047.204-.047.313 0 .666.54 1.205 1.205 1.205.355 0 .67-.156.891-.4a8.533 8.533 0 0 1 1.893 1.93 1.192 1.192 0 0 0-.375-.066 1.205 1.205 0 1 0 1.175 1.464c.323.713.546 1.478.66 2.28a1.202 1.202 0 0 0-1.152 1.199c0 .647.512 1.17 1.152 1.199a8.396 8.396 0 0 1-.66 2.279 1.204 1.204 0 1 0-1.175 1.464c.132 0 .256-.026.374-.065a8.534 8.534 0 0 1-1.892 1.93zM26.579 41.868h8.834v2.325h-8.834zM26.579 47.222h8.834v2.325h-8.834zM18.612 22.436l2.013 1.162-4.418 7.65-2.013-1.162zM20.844 33.926l-2.013-1.163 4.417-7.65 2.014 1.163zM46.192 30.086l-2.014 1.163-4.417-7.65 2.013-1.163zM35.124 26.275l2.013-1.162 4.418 7.65-2.013 1.162z"/>
            <circle cx="11.421" cy="45.582" r="1.205"/>
            <circle cx="7.405" cy="45.582" r="1.205"/>
            <circle cx="15.838" cy="45.582" r="1.205"/>
            <circle cx="9.131" cy="49.32" r="1.205"/>
            <circle cx="13.548" cy="49.32" r="1.205"/>
            <circle cx="9.131" cy="41.844" r="1.205"/>
            <circle cx="13.548" cy="41.844" r="1.205"/>
        </g>
    </g>
</svg>
