<svg xmlns="http://www.w3.org/2000/svg" width="628" height="439" viewBox="0 0 628 439">
    <g fill="none" fill-rule="evenodd">
        <path fill="#D2E4C6" d="M83.517 249.476l-4.345 10.636h8.69l-4.345-10.636M130.345 145.322c5.88 0 10.662 4.863 10.662 10.842 0 5.98-4.783 10.842-10.662 10.842-5.878 0-10.662-4.863-10.662-10.842s4.784-10.842 10.662-10.842zm-12.702 8.136l1.252 1.771a2.382 2.382 0 0 1 .178 2.443 2.3 2.3 0 0 1-2.054 1.276h-.191a14.004 14.004 0 0 0 3.89 7.253c2.59 2.57 6.009 3.984 9.627 3.984.198 0 .395-.005.593-.012.063-.002.127-.01.192-.014.132-.007.263-.014.393-.026l.229-.023.353-.04c.08-.012.162-.024.243-.038l.332-.051a15.355 15.355 0 0 0 .566-.113l.25-.059.312-.077.247-.07.305-.09c.083-.026.164-.054.245-.08.1-.035.2-.068.298-.103l.242-.09c.1-.037.197-.077.294-.115l.235-.1c.097-.04.194-.085.29-.128.078-.035.154-.073.23-.108l.284-.14c.077-.038.15-.078.227-.118.092-.05.185-.101.277-.153.074-.04.146-.082.217-.124.095-.054.185-.108.277-.165l.208-.131c.093-.06.183-.12.273-.181.067-.045.134-.09.201-.137.09-.063.178-.129.268-.195.062-.047.127-.091.19-.14.09-.069.177-.14.267-.21.058-.049.12-.096.178-.145.09-.073.178-.15.266-.228l.166-.143c.09-.083.18-.167.27-.254.047-.045.098-.09.144-.136.1-.097.194-.195.291-.294a12.14 12.14 0 0 0 .478-.52l.016-.016c.125-.145.25-.296.37-.446l.053-.068c.102-.127.201-.256.296-.386.037-.049.07-.1.106-.15.076-.106.15-.211.224-.32.042-.06.079-.122.118-.183.067-.1.132-.2.194-.3.042-.069.081-.137.12-.205.058-.099.116-.195.171-.296.042-.07.079-.146.118-.218.053-.097.106-.193.155-.292.04-.077.076-.155.113-.232.046-.097.095-.193.139-.292.037-.082.071-.162.106-.244.042-.096.085-.195.125-.294a15.277 15.277 0 0 0 .395-1.109c.027-.089.055-.178.08-.267.014-.052.028-.104.044-.155l-1.84-2.984a2.379 2.379 0 0 1-.065-2.385 2.3 2.3 0 0 1 2.021-1.212h.127a14.004 14.004 0 0 0-3.888-7.252c-2.59-2.57-6.01-3.985-9.63-3.985-.2 0-.401.005-.6.012l-.201.014c-.134.007-.266.014-.397.026-.079.007-.158.019-.236.026l-.354.04c-.083.011-.166.025-.247.037a7.772 7.772 0 0 0-.337.054c-.086.014-.169.033-.252.05a8.064 8.064 0 0 0-.578.127l-.316.077c-.083.023-.166.05-.252.073-.101.03-.205.059-.307.091-.083.026-.166.054-.25.083-.099.033-.2.068-.3.105a11.117 11.117 0 0 0-.78.31c-.1.043-.195.085-.292.13l-.236.112-.284.141c-.076.04-.152.08-.228.123-.095.049-.188.1-.28.155l-.222.127-.275.169c-.071.044-.143.089-.212.134-.093.06-.183.122-.27.183l-.206.14-.268.198c-.065.05-.13.096-.194.146-.09.07-.178.143-.266.216-.06.05-.12.096-.18.146-.092.077-.18.157-.27.237-.054.05-.109.094-.162.143-.097.09-.192.181-.284.273-.044.042-.088.082-.132.127-.118.117-.231.237-.344.357l-.056.056c-.131.143-.26.29-.385.437l-.06.073a15.41 15.41 0 0 0-.305.376c-.04.051-.077.103-.116.155-.079.1-.155.204-.231.31-.044.061-.085.124-.127.186-.067.098-.136.195-.201.296-.044.065-.086.136-.13.202l-.18.291-.124.218c-.056.097-.111.193-.164.292l-.12.23c-.05.096-.1.195-.148.294-.04.077-.077.16-.114.24-.044.098-.09.194-.134.295l-.104.252c-.041.098-.08.197-.12.296-.034.087-.064.174-.097.26-.037.1-.071.2-.106.301-.03.09-.06.179-.088.268-.032.101-.062.202-.092.305-.028.09-.053.184-.079.275l-.034.137.626.888zM319.586 46.381c0-3.727-3.116-6.67-6.978-6.736h-8.47v13.538h8.47c3.862-.066 6.978-3.009 6.978-6.802M254.453 117.002c-1.421 0-2.677.763-3.419 1.923h8.82c1.272 0 2.304 1.086 2.304 2.43 0 1.341-1.032 2.43-2.304 2.43h-8.82c.742 1.157 1.998 1.92 3.419 1.92h10.803c2.274 0 4.123-1.952 4.123-4.35 0-2.401-1.85-4.353-4.123-4.353h-10.803M315.724 26.525c0-2.925-2.457-5.252-5.548-5.252h-6.038V31.91h6.038c3.091 0 5.548-2.46 5.548-5.385M220.322 121.355c0-1.344 1.032-2.43 2.304-2.43h10.064c-.742-1.16-1.997-1.923-3.419-1.923h-10.803c-2.273 0-4.123 1.952-4.123 4.353 0 2.398 1.85 4.35 4.123 4.35h10.803c1.422 0 2.677-.763 3.419-1.92h-10.064c-1.272 0-2.304-1.089-2.304-2.43"/>
        <path fill="#BCBEC0" d="M220.13 213.536a2.338 2.338 0 0 1 2.334-2.34h24.708v-17.804H209.69c-2.757 0-5 2.248-5 5.01v212.556h15.44V213.536M491.448 211.196h19.93a2.333 2.333 0 0 1 2.328 2.34v197.422h15.397V198.403c0-2.763-2.237-5.01-4.986-5.01h-32.669v17.803"/>
        <path fill="#D2E4C6" d="M508.828 216.6h-17.686v174.498a2.341 2.341 0 0 1-2.339 2.342H249.722a2.341 2.341 0 0 1-2.34-2.342V216.6h-22.416v195.326h283.862V216.6"/>
        <path fill="#BCBEC0" d="M546.64 434.165l9.498-17.405h-147.87v6.009c0 1.267-1.051 2.295-2.346 2.295h-78.88c-1.295 0-2.346-1.028-2.346-2.295v-6.01H176.69l8.787 17.406H546.64"/>
        <path fill="#FFF" d="M375.069 211.664a15.402 15.402 0 0 1 3.95 4.199c4.335-3.105 10.268-3.323 14.838-.338l11.764 7.68c3.128 2.043 5.114 5.232 5.744 8.684.395-.31.894-.498 1.437-.498 6.59 0 11.952 5.375 11.952 11.98v7.09c.363-.032.726-.056 1.093-.056 6.37 0 11.554 5.196 11.554 11.582v16.263c0 6.385-5.183 11.581-11.554 11.581h-.566c-.197 0-.391-.01-.588-.018-.737 9.638-8.791 17.255-18.592 17.255-7.367 0-13.75-4.304-16.78-10.534a11.168 11.168 0 0 1-8.397 3.806c-3.788 0-7.143-1.896-9.17-4.79-2.279 2.913-5.819 4.79-9.787 4.79h-24.063c-6.054 0-11.109-4.362-12.21-10.114h-9.71a8.462 8.462 0 0 1-5.137-1.751l-7.717-5.954c-2.903-2.239-4.018-5.933-2.838-9.408a8.79 8.79 0 0 1 .675-1.493 10.6 10.6 0 0 1-5.764-4.32 10.637 10.637 0 0 1-.892-10.052c1.519-3.548 3.385-7.854 5.546-12.794a13.039 13.039 0 0 1 9.358-7.555c.161-.032.325-.056.487-.082.271-6.369 4.509-11.968 10.559-13.94l41.076-13.388c4.716-1.537 9.721-.744 13.732 2.175zm89.72 138.346h-79.812a2.345 2.345 0 0 1-2.342-2.347 2.345 2.345 0 0 1 2.342-2.347h79.812a2.345 2.345 0 0 1 2.341 2.347 2.345 2.345 0 0 1-2.341 2.347zm-83.067-25.014c0-1.7 1.377-3.077 3.072-3.077a3.075 3.075 0 0 1 3.072 3.077 3.076 3.076 0 0 1-3.072 3.079 3.076 3.076 0 0 1-3.072-3.08zm83.067 38.94H329.532a2.345 2.345 0 0 1-2.341-2.347 2.345 2.345 0 0 1 2.34-2.347H464.79a2.345 2.345 0 0 1 2.341 2.347 2.345 2.345 0 0 1-2.341 2.347zm-150.157.289h-40.8a2.345 2.345 0 0 1-2.341-2.347 2.343 2.343 0 0 1 2.34-2.347h40.801a2.343 2.343 0 0 1 2.342 2.347 2.345 2.345 0 0 1-2.342 2.347zm52.352-39.23c0-1.698 1.375-3.076 3.07-3.076a3.074 3.074 0 0 1 3.071 3.077 3.074 3.074 0 0 1-3.071 3.079 3.074 3.074 0 0 1-3.07-3.08zm-14.74 0c0-1.698 1.374-3.076 3.07-3.076a3.074 3.074 0 0 1 3.071 3.077 3.074 3.074 0 0 1-3.072 3.079 3.074 3.074 0 0 1-3.069-3.08zm16.716 20.321a2.345 2.345 0 0 1 2.342 2.347 2.345 2.345 0 0 1-2.342 2.347h-95.128a2.345 2.345 0 0 1-2.341-2.347 2.345 2.345 0 0 1 2.34-2.347h95.13zM252 388.718h234.62V167.284H252v221.434z"/>
        <path fill="#F1F2F2" d="M285.531 159.692c-1.632 0-2.955-1.364-2.955-3.044 0-1.683 1.323-3.047 2.955-3.047 1.63 0 2.952 1.364 2.952 3.047 0 1.68-1.323 3.044-2.952 3.044zm-13.408 0c-1.632 0-2.952-1.364-2.952-3.044 0-1.683 1.32-3.047 2.952-3.047s2.954 1.364 2.954 3.047c0 1.68-1.322 3.044-2.954 3.044zm-13.277 0c-1.632 0-2.955-1.364-2.955-3.044 0-1.683 1.323-3.047 2.955-3.047 1.632 0 2.952 1.364 2.952 3.047 0 1.68-1.32 3.044-2.952 3.044zM252 163.416h234.62V149.88H252v13.537z"/>
        <path fill="#414042" d="M258.76 152.78a2.9 2.9 0 0 0-2.898 2.902 2.897 2.897 0 0 0 5.793 0 2.898 2.898 0 0 0-2.895-2.902M271.31 152.78c-1.601 0-2.896 1.299-2.896 2.902a2.897 2.897 0 1 0 5.793 0 2.9 2.9 0 0 0-2.898-2.902M284.829 152.78a2.9 2.9 0 0 0-2.898 2.902 2.9 2.9 0 0 0 2.898 2.9c1.598 0 2.895-1.3 2.895-2.9a2.9 2.9 0 0 0-2.895-2.902M321.914 98.232a2.33 2.33 0 0 0-2.328 2.33 2.329 2.329 0 0 0 2.328 2.332h18.518v18.546a2.329 2.329 0 1 0 4.655 0v-18.546h18.516a2.329 2.329 0 0 0 2.328-2.331 2.33 2.33 0 0 0-2.328-2.331h-18.516V79.688a2.329 2.329 0 0 0-4.655 0v18.544h-18.518M571.96 49.69h5.045v5.052a2.308 2.308 0 0 0 2.305 2.309 2.308 2.308 0 0 0 2.306-2.31V49.69h5.044a2.308 2.308 0 0 0 2.306-2.31 2.308 2.308 0 0 0-2.306-2.308h-5.044V40.02a2.308 2.308 0 0 0-2.306-2.309 2.308 2.308 0 0 0-2.305 2.31v5.051h-5.044a2.308 2.308 0 0 0-2.306 2.309 2.308 2.308 0 0 0 2.306 2.309M428.099 116.627v-5.052a2.307 2.307 0 1 0-4.611 0v5.052h-5.045a2.308 2.308 0 0 0-2.305 2.31 2.308 2.308 0 0 0 2.305 2.308h5.045v5.052a2.307 2.307 0 0 0 4.61 0v-5.052h5.045a2.308 2.308 0 0 0 2.305-2.309 2.308 2.308 0 0 0-2.305-2.309h-5.044M367.271 34.219h5.044v5.051a2.306 2.306 0 1 0 4.611 0V34.22h5.044a2.308 2.308 0 0 0 2.306-2.31 2.308 2.308 0 0 0-2.306-2.308h-5.044v-5.052a2.306 2.306 0 0 0-4.61 0v5.052h-5.045a2.308 2.308 0 0 0-2.305 2.309 2.308 2.308 0 0 0 2.305 2.309M622.759 321.998a2.317 2.317 0 0 0 2.315-2.319v-6h5.99a2.317 2.317 0 0 0 2.315-2.318 2.316 2.316 0 0 0-2.315-2.318h-5.99v-6a2.316 2.316 0 1 0-4.63 0v6h-5.991a2.316 2.316 0 0 0-2.315 2.318 2.317 2.317 0 0 0 2.315 2.319h5.99v6a2.317 2.317 0 0 0 2.316 2.318M157.378 217.566a2.338 2.338 0 0 0-2.336 2.34v9.825h-9.81a2.337 2.337 0 0 0-2.335 2.34 2.337 2.337 0 0 0 2.335 2.339h9.81v9.826a2.337 2.337 0 0 0 4.671 0v-9.826h9.813a2.337 2.337 0 0 0 2.336-2.34 2.337 2.337 0 0 0-2.336-2.339h-9.812v-9.826a2.337 2.337 0 0 0-2.336-2.339"/>
        <path fill="#D2E4C6" d="M630.964 102.498c4.527 0 8.208-3.686 8.208-8.22 0-4.53-3.68-8.219-8.208-8.219-4.524 0-8.205 3.69-8.205 8.22 0 4.533 3.68 8.219 8.205 8.219M622.759 142.627c0 4.53 3.68 8.219 8.205 8.219 4.527 0 8.208-3.689 8.208-8.22 0-4.532-3.68-8.219-8.208-8.219-4.524 0-8.205 3.687-8.205 8.22M582.69 111.2c-4.527 0-8.207 3.69-8.207 8.22 0 4.533 3.68 8.219 8.207 8.219 4.523 0 8.207-3.686 8.207-8.22 0-4.53-3.684-8.219-8.207-8.219"/>
        <path fill="#414042" d="M590.266 118.307c0 4.388-3.576 7.956-7.967 7.956-4.394 0-7.967-3.568-7.967-7.956 0-4.386 3.573-7.957 7.967-7.957 4.391 0 7.967 3.57 7.967 7.957zm32.16-24.455c0-4.386 3.573-7.956 7.965-7.956 4.394 0 7.967 3.57 7.967 7.956 0 4.389-3.573 7.957-7.967 7.957-4.392 0-7.965-3.568-7.965-7.957zm7.965 40.277c4.394 0 7.967 3.569 7.967 7.957 0 4.386-3.573 7.957-7.967 7.957-4.392 0-7.965-3.571-7.965-7.957 0-4.388 3.573-7.957 7.965-7.957zm-48.092-28.45c-6.97 0-12.644 5.666-12.644 12.628s5.673 12.627 12.644 12.627c4.118 0 7.782-1.978 10.093-5.03l25.83 12.77a12.551 12.551 0 0 0-.473 3.412c0 6.962 5.67 12.628 12.642 12.628 6.973 0 12.643-5.666 12.643-12.628s-5.67-12.628-12.643-12.628a12.628 12.628 0 0 0-10.09 5.033l-25.83-12.772c.303-1.086.472-2.23.472-3.412 0-1.231-.183-2.422-.512-3.548l25.956-13.197c2.315 2.989 5.937 4.918 10.004 4.918 6.973 0 12.643-5.663 12.643-12.628 0-6.962-5.67-12.627-12.643-12.627-6.971 0-12.642 5.665-12.642 12.627 0 1.233.18 2.422.51 3.548l-25.956 13.2c-2.315-2.99-5.938-4.921-10.004-4.921zM520.792 145.148a2.31 2.31 0 0 0-2.31 2.313 2.31 2.31 0 0 0 2.31 2.313h11.312v11.33a2.312 2.312 0 0 0 2.31 2.312 2.312 2.312 0 0 0 2.31-2.313v-11.329h11.311a2.312 2.312 0 0 0 2.31-2.313 2.312 2.312 0 0 0-2.31-2.313h-11.312V133.82a2.31 2.31 0 1 0-4.619 0v11.328h-11.312M155.447 385.817a2.355 2.355 0 0 0 2.355-2.359v-15.587h15.567c1.3 0 2.355-1.057 2.355-2.359a2.356 2.356 0 0 0-2.355-2.359h-15.567v-15.59a2.356 2.356 0 1 0-4.71 0v15.59h-15.564a2.355 2.355 0 0 0-2.356 2.36 2.356 2.356 0 0 0 2.356 2.358h15.564v15.587a2.356 2.356 0 0 0 2.355 2.36M304.035 40.36h8.583c3.913.069 7.072 3.114 7.072 6.973 0 3.925-3.159 6.972-7.072 7.04h-8.583V40.36zm0-18.342h5.905c3.022 0 5.425 2.369 5.425 5.347s-2.403 5.482-5.425 5.482h-5.905v-10.83zm-3.845 39.867c.069 0 .069-.067.206-.067 0 0 0 .067.07.067h12.152c8.103 0 14.692-6.497 14.692-14.552 0-5.145-2.813-9.68-6.934-12.252a12.617 12.617 0 0 0 2.61-7.716c0-7.107-5.837-12.86-13.046-12.86h-9.75c-2.06 0-3.776 1.624-3.776 3.722v39.936c0 2.03 1.715 3.722 3.776 3.722zM83.034 249.539l4.232 11.004h-8.463l4.231-11.004zm-12.59 24.924c.313.103.627.154.992.154 1.15 0 2.247-.664 2.717-1.79l2.56-6.655h12.695l2.56 6.654c.418 1.127 1.515 1.79 2.665 1.79.366 0 .731-.05.992-.153a2.885 2.885 0 0 0 1.724-3.683l-11.545-30.148c-.47-1.126-1.568-1.841-2.77-1.79-1.149-.051-2.298.664-2.768 1.79L68.719 270.78a2.885 2.885 0 0 0 1.725 3.683zM581.602 341.2c2.997 0 5.656.943 7.783 2.734 1.112.894 2.9.694 3.866-.548.872-1.243.678-2.98-.482-3.974-3.045-2.435-6.913-3.877-11.167-3.877-9.667.05-17.691 8.05-17.74 17.89.049 9.888 8.073 17.888 17.74 17.888 4.254 0 8.122-1.442 11.167-3.877 1.16-.944 1.354-2.731.482-3.974-.966-1.193-2.754-1.392-3.866-.548-2.175 1.79-4.786 2.734-7.783 2.734-3.335 0-6.428-1.392-8.7-3.578-2.175-2.186-3.53-5.266-3.53-8.645 0-3.379 1.355-6.361 3.53-8.647 2.272-2.186 5.365-3.578 8.7-3.578"/>
        <path fill="#414042" d="M202.095 416.498h122.981v6.134a2.344 2.344 0 0 0 2.344 2.343h78.805a2.344 2.344 0 0 0 2.344-2.343v-6.134h147.73l-9.488 17.767H185.988l-8.779-17.767h24.886zm204.13-4.686h-181.6V216.417h22.46v174.56a2.344 2.344 0 0 0 2.343 2.343h239.53a2.344 2.344 0 0 0 2.344-2.343v-174.56h17.719v195.395H406.225zm122.982-212.895v212.895h-15.5V214.074a2.343 2.343 0 0 0-2.343-2.343h-20.062v-17.833h32.885a5.025 5.025 0 0 1 5.02 5.02zM251.771 388.634h234.844V167.556H251.771v221.078zm0-225.764h234.844v-13.14H251.771v13.14zm-47.333 36.047a5.025 5.025 0 0 1 5.02-5.019h37.626v17.833h-24.803a2.344 2.344 0 0 0-2.343 2.343v197.738h-15.5V198.917zm347.686 235.348l10.152-19.007a2.342 2.342 0 0 0-2.07-3.446h-26.312V198.917c0-5.351-4.354-9.705-9.707-9.705h-32.885v-41.825a2.344 2.344 0 0 0-2.344-2.343h-239.53a2.344 2.344 0 0 0-2.344 2.343v41.825h-37.626c-5.353 0-9.707 4.354-9.707 9.705v212.895H173.44a2.343 2.343 0 0 0-2.102 3.38l9.423 19.073H2.343a2.344 2.344 0 0 0 0 4.686H184.11c.145.028 364.082.049 364.082.049l149.466-.05a2.344 2.344 0 0 0 0-4.685H552.124z"/>
        <path fill="#AA8BC5" d="M606.345 243.357c-8.343 0-15.13-6.798-15.13-15.153s6.787-15.154 15.13-15.154c8.342 0 15.13 6.799 15.13 15.154s-6.788 15.153-15.13 15.153zm24.637-1.543a27.877 27.877 0 0 0 2.395-5.786 8.517 8.517 0 0 1-5.089-7.824 8.508 8.508 0 0 1 5.091-7.825 27.726 27.726 0 0 0-2.397-5.788 8.48 8.48 0 0 1-9.12-1.924 8.518 8.518 0 0 1-1.925-9.138 27.817 27.817 0 0 0-5.777-2.401 8.498 8.498 0 0 1-7.815 5.103 8.491 8.491 0 0 1-7.81-5.103 27.636 27.636 0 0 0-5.78 2.4 8.525 8.525 0 0 1-1.92 9.137 8.497 8.497 0 0 1-9.127 1.926 27.852 27.852 0 0 0-2.398 5.788 8.509 8.509 0 0 1 5.096 7.825 8.514 8.514 0 0 1-5.093 7.824 27.83 27.83 0 0 0 2.397 5.789 8.48 8.48 0 0 1 9.122 1.926 8.517 8.517 0 0 1 1.923 9.134 27.511 27.511 0 0 0 5.78 2.4 8.493 8.493 0 0 1 7.81-5.098 8.497 8.497 0 0 1 7.815 5.099 27.69 27.69 0 0 0 5.777-2.401 8.508 8.508 0 0 1 1.925-9.134 8.476 8.476 0 0 1 9.12-1.929z"/>
        <path fill="#414042" d="M620.49 252.52a27.836 27.836 0 0 1-5.808 2.413 8.542 8.542 0 0 0-7.855-5.125 8.538 8.538 0 0 0-7.851 5.125 27.656 27.656 0 0 1-5.81-2.413 8.56 8.56 0 0 0-1.934-9.18 8.525 8.525 0 0 0-9.17-1.937 27.973 27.973 0 0 1-2.409-5.818 8.558 8.558 0 0 0 5.12-7.865 8.552 8.552 0 0 0-5.122-7.865 27.995 27.995 0 0 1 2.41-5.818 8.541 8.541 0 0 0 9.174-1.937 8.568 8.568 0 0 0 1.93-9.183 27.781 27.781 0 0 1 5.81-2.413 8.536 8.536 0 0 0 7.852 5.13c3.5 0 6.527-2.08 7.855-5.13a27.963 27.963 0 0 1 5.808 2.413 8.561 8.561 0 0 0 1.935 9.186 8.524 8.524 0 0 0 9.168 1.934 27.868 27.868 0 0 1 2.41 5.818 8.552 8.552 0 0 0-5.118 7.865 8.561 8.561 0 0 0 5.115 7.865 28.02 28.02 0 0 1-2.407 5.816 8.52 8.52 0 0 0-9.168 1.938 8.552 8.552 0 0 0-1.935 9.181zm16.567-28.661a2.35 2.35 0 0 0 1.657-.947 2.347 2.347 0 0 0 .41-1.863 32.654 32.654 0 0 0-4.753-11.48 2.345 2.345 0 0 0-1.603-1.029 2.353 2.353 0 0 0-1.84.506 3.856 3.856 0 0 1-5.185-.266 3.871 3.871 0 0 1-.267-5.198 2.352 2.352 0 0 0-.524-3.45 32.683 32.683 0 0 0-11.457-4.758 2.348 2.348 0 0 0-2.809 2.07 3.867 3.867 0 0 1-3.86 3.49c-1.999 0-3.657-1.502-3.855-3.49a2.351 2.351 0 0 0-2.806-2.07 32.602 32.602 0 0 0-11.46 4.759 2.354 2.354 0 0 0-.525 3.447 3.876 3.876 0 0 1-.263 5.198 3.866 3.866 0 0 1-5.193.268 2.34 2.34 0 0 0-1.837-.503 2.339 2.339 0 0 0-1.605 1.027 32.623 32.623 0 0 0-4.751 11.479 2.35 2.35 0 0 0 2.065 2.81 3.86 3.86 0 0 1 3.484 3.86 3.865 3.865 0 0 1-3.482 3.864 2.354 2.354 0 0 0-2.065 2.81 32.719 32.719 0 0 0 4.747 11.477 2.347 2.347 0 0 0 3.447.526 3.852 3.852 0 0 1 5.188.266 3.87 3.87 0 0 1 .265 5.195 2.348 2.348 0 0 0 .525 3.448 32.602 32.602 0 0 0 11.46 4.758c.157.033.315.05.472.05a2.35 2.35 0 0 0 2.334-2.118 3.86 3.86 0 0 1 3.856-3.487c2.001 0 3.66 1.5 3.86 3.487a2.348 2.348 0 0 0 2.808 2.068 32.639 32.639 0 0 0 11.457-4.758 2.349 2.349 0 0 0 .524-3.45 3.865 3.865 0 0 1 .267-5.193 3.849 3.849 0 0 1 5.186-.266 2.347 2.347 0 0 0 3.444-.526 32.7 32.7 0 0 0 4.747-11.477 2.349 2.349 0 0 0-2.062-2.81 3.863 3.863 0 0 1-3.48-3.863 3.858 3.858 0 0 1 3.48-3.861z"/>
        <path fill="#D2E4C6" d="M616.966 228.203c0-5.864-4.766-10.637-10.621-10.637-5.856 0-10.62 4.773-10.62 10.637 0 5.864 4.764 10.636 10.62 10.636 5.855 0 10.62-4.772 10.62-10.636"/>
        <path fill="#414042" d="M595.514 227.72c0-5.714 4.643-10.364 10.348-10.364 5.705 0 10.348 4.65 10.348 10.363 0 5.714-4.643 10.364-10.348 10.364-5.705 0-10.348-4.65-10.348-10.364zm10.348-14.989c-8.252 0-14.965 6.724-14.965 14.988s6.713 14.988 14.965 14.988c8.252 0 14.966-6.724 14.966-14.988s-6.714-14.988-14.966-14.988z"/>
        <path fill="#AA8BC5" d="M211.174 21.705a2.348 2.348 0 0 1 2.338 2.36 2.348 2.348 0 0 1-2.338 2.361c-11.366 0-20.613 9.336-20.613 20.81a2.35 2.35 0 0 1-2.338 2.361 2.35 2.35 0 0 1-2.338-2.36c0-14.078 11.344-25.532 25.289-25.532zm26.58 14.145c7.019 0 12.73 5.765 12.73 12.851a2.35 2.35 0 0 1-2.337 2.36 2.35 2.35 0 0 1-2.338-2.36c0-4.483-3.613-8.13-8.055-8.13a2.35 2.35 0 0 1-2.338-2.36 2.35 2.35 0 0 1 2.338-2.361zm16.589 18.26c7.019 0 12.729 5.766 12.729 12.852a2.35 2.35 0 0 1-2.339 2.361 2.35 2.35 0 0 1-2.338-2.36c0-4.484-3.612-8.131-8.052-8.131a2.348 2.348 0 0 1-2.338-2.36 2.348 2.348 0 0 1 2.338-2.361zm-85.27 25.033c3.183 3.215 7.396 4.983 11.862 4.983h71.645c9.264 0 16.8-7.608 16.8-16.96 0-4.506-1.754-8.758-4.936-11.972-2.666-2.69-6.173-4.418-9.874-4.864a2.354 2.354 0 0 1-2.058-2.447v-.034c0-7.903-6.369-14.332-14.197-14.332-.631 0-1.253.041-1.85.123a2.329 2.329 0 0 1-2.342-1.17c-4.917-8.695-14.13-14.098-24.039-14.098-15.256 0-27.667 12.53-27.667 27.932 0 .482.012.966.035 1.44a2.376 2.376 0 0 1-.603 1.712 2.334 2.334 0 0 1-1.632.77c-4.314.185-8.356 2.035-11.38 5.21a16.947 16.947 0 0 0-4.7 11.73c0 4.508 1.755 8.762 4.937 11.977z"/>
        <path fill="#414042" d="M181.086 49.752a2.335 2.335 0 0 0 2.241-2.456c-.023-.47-.035-.95-.035-1.427 0-15.25 12.444-27.657 27.74-27.657 9.935 0 19.172 5.35 24.102 13.96a2.344 2.344 0 0 0 2.35 1.157c.597-.08 1.22-.12 1.853-.12 7.85 0 14.235 6.365 14.235 14.19v.034a2.34 2.34 0 0 0 2.063 2.422c3.711.442 7.227 2.153 9.9 4.817 3.19 3.182 4.949 7.393 4.949 11.855 0 9.259-7.556 16.792-16.844 16.792h-71.834c-4.478 0-8.702-1.75-11.893-4.934-3.19-3.184-4.949-7.395-4.949-11.858 0-4.339 1.674-8.464 4.713-11.616 3.03-3.143 7.084-4.976 11.41-5.159zm.72 38.241h71.834c11.874 0 21.532-9.63 21.532-21.466 0-5.711-2.245-11.095-6.322-15.16a21.692 21.692 0 0 0-10.68-5.822c-.936-9.535-9.026-17.011-18.833-17.011-.307 0-.611.007-.916.021-5.924-9.3-16.284-15.018-27.389-15.018-17.69 0-32.119 14.197-32.424 31.763-4.67.697-8.976 2.913-12.312 6.372-3.882 4.027-6.02 9.303-6.02 14.855 0 5.71 2.246 11.096 6.322 15.163 4.077 4.067 9.478 6.303 15.208 6.303z"/>
        <path fill="#414042" d="M188.714 50.282a2.372 2.372 0 0 0 2.37-2.373c0-11.537 9.372-20.923 20.891-20.923a2.37 2.37 0 0 0 2.37-2.373 2.37 2.37 0 0 0-2.37-2.373c-14.133 0-25.63 11.515-25.63 25.669a2.372 2.372 0 0 0 2.37 2.373M255.363 58.951c4.552 0 8.256 3.71 8.256 8.27a2.4 2.4 0 0 0 2.397 2.4 2.4 2.4 0 0 0 2.398-2.4c0-7.208-5.854-13.071-13.051-13.071a2.398 2.398 0 0 0-2.397 2.4c0 1.326 1.071 2.401 2.397 2.401M237.983 40.579c4.554 0 8.258 3.71 8.258 8.27a2.4 2.4 0 0 0 2.397 2.4 2.4 2.4 0 0 0 2.396-2.4c0-7.208-5.855-13.071-13.05-13.071a2.4 2.4 0 0 0-2.398 2.4 2.4 2.4 0 0 0 2.397 2.4M269.516 120.871c0 2.266-1.884 4.11-4.2 4.11h-11a4.225 4.225 0 0 1-3.482-1.814h8.982c1.295 0 2.346-1.028 2.346-2.296 0-1.27-1.051-2.296-2.346-2.296h-8.982a4.22 4.22 0 0 1 3.481-1.816h11.002c2.315 0 4.199 1.844 4.199 4.112zm-40.107 4.11h-11.002c-2.315 0-4.198-1.844-4.198-4.11 0-2.268 1.883-4.112 4.198-4.112h11.002a4.22 4.22 0 0 1 3.48 1.816h-10.248c-1.294 0-2.345 1.027-2.345 2.296 0 1.268 1.05 2.296 2.345 2.296h10.249a4.225 4.225 0 0 1-3.481 1.814zm24.906-12.814c-4.09 0-7.541 2.719-8.573 6.408h-7.76c-1.032-3.69-4.485-6.408-8.573-6.408h-11.002c-4.902 0-8.89 3.906-8.89 8.704 0 4.799 3.988 8.702 8.89 8.702h11.002c4.088 0 7.541-2.719 8.573-6.406h7.76c1.032 3.687 4.482 6.406 8.573 6.406h11.002c4.902 0 8.89-3.903 8.89-8.702 0-4.798-3.988-8.704-8.89-8.704h-11.002z"/>
        <path fill="#E9E1E1" d="M140.001 291.192c6.313 0 11.451 5.143 11.451 11.468 0 6.322-5.138 11.468-11.45 11.468-6.316 0-11.454-5.146-11.454-11.468 0-6.325 5.138-11.468 11.453-11.468zm-10.516 22a6.758 6.758 0 0 1 1.729 6.645 18.64 18.64 0 0 0 2.871 1.194 6.737 6.737 0 0 1 5.916-3.475 6.737 6.737 0 0 1 5.916 3.475 19.12 19.12 0 0 0 2.872-1.194 6.743 6.743 0 0 1 1.731-6.645 6.723 6.723 0 0 1 6.633-1.732 19.18 19.18 0 0 0 1.192-2.876 6.756 6.756 0 0 1-3.47-5.924 6.75 6.75 0 0 1 3.47-5.925 18.601 18.601 0 0 0-1.192-2.876 6.735 6.735 0 0 1-6.635-1.731 6.762 6.762 0 0 1-1.73-6.648 18.766 18.766 0 0 0-2.871-1.191 6.739 6.739 0 0 1-5.916 3.477 6.733 6.733 0 0 1-5.916-3.48 19.25 19.25 0 0 0-2.874 1.194 6.767 6.767 0 0 1-1.724 6.648 6.743 6.743 0 0 1-6.64 1.729 19.208 19.208 0 0 0-1.192 2.878 6.747 6.747 0 0 1 3.475 5.925 6.755 6.755 0 0 1-3.472 5.924c.317.99.714 1.95 1.19 2.876a6.738 6.738 0 0 1 6.637 1.732z"/>
        <path fill="#414042" d="M125.372 302.66c0-2.501-1.361-4.692-3.418-5.829.314-.974.705-1.92 1.173-2.83a6.633 6.633 0 0 0 6.531-1.702 6.656 6.656 0 0 0 1.696-6.538c.912-.469 1.855-.86 2.827-1.175a6.624 6.624 0 0 0 5.82 3.423 6.629 6.629 0 0 0 5.82-3.42 18.46 18.46 0 0 1 2.824 1.172 6.651 6.651 0 0 0 1.7 6.538 6.626 6.626 0 0 0 6.528 1.703c.47.91.86 1.855 1.172 2.83a6.64 6.64 0 0 0-3.413 5.827 6.645 6.645 0 0 0 3.413 5.828 18.867 18.867 0 0 1-1.172 2.829 6.614 6.614 0 0 0-6.525 1.703 6.633 6.633 0 0 0-1.703 6.536c-.91.469-1.852.86-2.825 1.175a6.627 6.627 0 0 0-5.82-3.419 6.627 6.627 0 0 0-5.819 3.419 18.336 18.336 0 0 1-2.824-1.175 6.647 6.647 0 0 0-1.701-6.536 6.628 6.628 0 0 0-6.53-1.703 18.615 18.615 0 0 1-1.17-2.829 6.644 6.644 0 0 0 3.416-5.828zm.633 18.156c.1.653.47 1.23 1.02 1.594a23.312 23.312 0 0 0 8.206 3.407 2.323 2.323 0 0 0 2.783-2.05 1.989 1.989 0 0 1 1.987-1.795c1.03 0 1.887.771 1.987 1.794a2.331 2.331 0 0 0 2.785 2.05 23.384 23.384 0 0 0 8.204-3.406 2.331 2.331 0 0 0 .521-3.42 1.988 1.988 0 0 1 .14-2.676 1.98 1.98 0 0 1 2.67-.137c.509.417 1.172.6 1.823.498a2.315 2.315 0 0 0 1.592-1.02 23.403 23.403 0 0 0 3.4-8.219 2.334 2.334 0 0 0-2.045-2.787 1.99 1.99 0 0 1-1.793-1.99 1.99 1.99 0 0 1 1.792-1.99 2.328 2.328 0 0 0 2.048-2.787 23.397 23.397 0 0 0-3.402-8.218 2.325 2.325 0 0 0-3.416-.522 1.986 1.986 0 0 1-2.671-.138 1.993 1.993 0 0 1-.137-2.677c.416-.51.598-1.172.498-1.825a2.323 2.323 0 0 0-1.02-1.596 23.384 23.384 0 0 0-8.204-3.407 2.323 2.323 0 0 0-1.847.406c-.53.391-.873.99-.938 1.647A1.989 1.989 0 0 1 140 283.35a1.99 1.99 0 0 1-1.987-1.797 2.324 2.324 0 0 0-.936-1.645c-.53-.391-1.2-.54-1.847-.408a23.398 23.398 0 0 0-8.207 3.407 2.331 2.331 0 0 0-.521 3.42c.65.798.591 1.949-.135 2.678-.73.73-1.88.788-2.676.138a2.32 2.32 0 0 0-1.822-.499 2.33 2.33 0 0 0-1.591 1.02 23.367 23.367 0 0 0-3.404 8.22 2.332 2.332 0 0 0 2.05 2.786 1.991 1.991 0 0 1 1.793 1.99 1.991 1.991 0 0 1-1.793 1.99 2.33 2.33 0 0 0-2.048 2.787 23.438 23.438 0 0 0 3.4 8.219 2.32 2.32 0 0 0 1.593 1.02 2.317 2.317 0 0 0 1.824-.498 1.983 1.983 0 0 1 2.672.137c.728.73.786 1.88.137 2.675a2.334 2.334 0 0 0-.498 1.827z"/>
        <path fill="#D2E4C6" d="M133.241 302.659c0 3.73 3.033 6.768 6.76 6.768 3.725 0 6.758-3.037 6.758-6.768 0-3.734-3.033-6.77-6.758-6.77-3.727 0-6.76 3.036-6.76 6.77"/>
        <path fill="#414042" d="M146.034 302.175c0 3.597-2.924 6.526-6.516 6.526-3.593 0-6.517-2.929-6.517-6.526 0-3.6 2.924-6.526 6.517-6.526 3.592 0 6.516 2.927 6.516 6.526zm-6.516 11.12c6.121 0 11.103-4.99 11.103-11.12 0-6.133-4.982-11.12-11.103-11.12-6.123 0-11.104 4.987-11.104 11.12 0 6.13 4.981 11.12 11.104 11.12z"/>
        <path fill="#E9E1E1" d="M459.605 35.857c5.887 4.126 16.979 6.69 28.947 6.69 11.966 0 23.057-2.564 28.949-6.69 1.77-1.24 3.878-3.214 3.878-5.577v-7.073a18.24 18.24 0 0 1-1.748 1.409 1.786 1.786 0 0 1-.206.145c-1.595 1.108-3.521 2.127-5.761 3.035-6.736 2.73-15.655 4.234-25.112 4.234-9.457 0-18.377-1.504-25.113-4.234-3.25-1.317-5.842-2.87-7.715-4.589v7.073c0 2.363 2.111 4.337 3.881 5.577M459.556 63.862c.016.011.033.023.052.034 5.889 4.128 16.98 6.692 28.944 6.692 11.96 0 23.055-2.564 28.946-6.692l.019-.013.016-.01a.535.535 0 0 0 .014-.011c1.76-1.242 3.832-3.202 3.832-5.541v-7.072a18.277 18.277 0 0 1-1.865 1.493c-6.551 4.589-18.124 7.328-30.962 7.328-12.838 0-24.411-2.74-30.96-7.327-.687-.481-1.31-.98-1.868-1.494v7.072c0 2.34 2.072 4.299 3.832 5.541"/>
        <path fill="#E9E1E1" d="M459.608 49.391c5.891 4.128 16.983 6.693 28.944 6.693 11.96 0 23.055-2.565 28.946-6.693 1.77-1.24 3.881-3.216 3.881-5.578v-7.069a18.233 18.233 0 0 1-1.863 1.493c-6.549 4.587-18.124 7.325-30.964 7.325-12.843 0-24.418-2.738-30.962-7.325-.688-.481-1.307-.98-1.866-1.493v7.069c0 2.362 2.111 4.337 3.884 5.578M459.556 77.4l.052.032c5.889 4.13 16.98 6.694 28.944 6.694 11.96 0 23.055-2.564 28.946-6.694l.019-.011c.005-.005.01-.007.014-.012.007-.002.012-.007.016-.01 1.76-1.243 3.832-3.202 3.832-5.542v-7.07a18.234 18.234 0 0 1-1.863 1.491l-.021.015-.014.009-.021.014c-6.558 4.566-18.105 7.29-30.908 7.29-12.805 0-24.35-2.724-30.908-7.29l-.02-.013c-.004-.004-.01-.008-.018-.012l-.016-.013c-.688-.48-1.307-.979-1.866-1.492v7.07c0 2.34 2.072 4.3 3.832 5.544"/>
        <path fill="#E9E1E1" d="M488.552 98.63c9.015 0 17.464-1.411 23.793-3.978 5.74-2.328 9.034-5.349 9.034-8.29V79.29a18.207 18.207 0 0 1-1.884 1.507c-.005.002-.01.007-.014.01l-.021.013c-6.558 4.565-18.105 7.29-30.908 7.29-12.805 0-24.35-2.725-30.908-7.29a.05.05 0 0 0-.02-.012.13.13 0 0 0-.018-.014c-.004-.004-.011-.007-.016-.011a17.99 17.99 0 0 1-1.866-1.493v7.07c0 2.942 3.294 5.963 9.036 8.291 6.327 2.567 14.776 3.978 23.792 3.978M464.758 24.123c6.327 2.527 14.777 3.919 23.793 3.919 9.015 0 17.465-1.392 23.792-3.919 2.013-.804 3.724-1.692 5.099-2.631.037-.029.077-.056.12-.082 2.468-1.718 3.817-3.603 3.817-5.455 0-2.898-3.294-5.876-9.036-8.169-6.327-2.527-14.777-3.918-23.792-3.918-9.016 0-17.466 1.391-23.793 3.918-5.742 2.293-9.034 5.27-9.034 8.169 0 2.898 3.292 5.875 9.034 8.168"/>
        <path fill="#414042" d="M456.322 22.906c1.866 1.733 4.45 3.3 7.688 4.629 6.713 2.754 15.6 4.27 25.024 4.27 9.424 0 18.312-1.516 25.025-4.27 2.231-.916 4.151-1.944 5.74-3.061a1.78 1.78 0 0 0 .205-.147c.636-.46 1.219-.934 1.743-1.421v7.134c0 2.384-2.102 4.375-3.865 5.626-5.871 4.162-16.924 6.748-28.848 6.748-11.926 0-22.978-2.586-28.844-6.748-1.764-1.25-3.868-3.242-3.868-5.626v-7.134zm0 14.144c.557.517 1.174 1.02 1.86 1.505 6.52 4.626 18.055 7.388 30.852 7.388 12.796 0 24.33-2.762 30.856-7.388a18.21 18.21 0 0 0 1.857-1.505v7.128c0 2.383-2.104 4.375-3.868 5.626-5.87 4.164-16.925 6.75-28.845 6.75-11.919 0-22.971-2.586-28.842-6.75-1.766-1.251-3.87-3.243-3.87-5.626V37.05zm0 14.136a18.037 18.037 0 0 0 1.862 1.507c6.525 4.628 18.058 7.39 30.85 7.39 12.793 0 24.326-2.762 30.854-7.39a18.253 18.253 0 0 0 1.859-1.507v7.133c0 2.36-2.064 4.336-3.819 5.59a.534.534 0 0 1-.014.01l-.016.01-.019.014c-5.87 4.163-16.925 6.75-28.845 6.75-11.92 0-22.973-2.587-28.842-6.75l-.051-.035c-1.755-1.253-3.819-3.23-3.819-5.589v-7.133zm0 14.14c.557.517 1.174 1.02 1.86 1.505l.016.012.018.013a.186.186 0 0 1 .019.012c6.535 4.605 18.04 7.353 30.8 7.353 12.757 0 24.264-2.748 30.799-7.352l.021-.015.014-.009.02-.014a18.21 18.21 0 0 0 1.858-1.505v7.13c0 2.36-2.064 4.337-3.819 5.591l-.016.01-.014.011-.019.012c-5.87 4.165-16.925 6.75-28.845 6.75-11.92 0-22.973-2.585-28.842-6.75l-.051-.033c-1.755-1.254-3.819-3.23-3.819-5.59v-7.131zm0 21.269v-7.131a17.967 17.967 0 0 0 1.86 1.505c.004.005.011.007.016.012a.13.13 0 0 1 .018.014.05.05 0 0 1 .019.012c6.535 4.604 18.04 7.353 30.8 7.353 12.757 0 24.264-2.749 30.799-7.353l.021-.014c.005-.002.01-.007.014-.01l.02-.014c.684-.484 1.3-.988 1.858-1.505v7.131c0 2.967-3.283 6.014-9.002 8.362-6.307 2.588-14.727 4.012-23.71 4.012-8.984 0-17.404-1.424-23.708-4.012-5.722-2.348-9.005-5.395-9.005-8.362zm9.005-79.055c6.304-2.586 14.724-4.01 23.707-4.01 8.984 0 17.404 1.424 23.708 4.01 5.722 2.348 9.005 5.396 9.005 8.363 0 1.896-1.345 3.826-3.805 5.584a1.361 1.361 0 0 0-.119.084c-1.37.962-3.075 1.871-5.08 2.694-6.305 2.587-14.725 4.012-23.709 4.012-8.983 0-17.403-1.425-23.707-4.012-5.722-2.347-9.002-5.395-9.002-8.362 0-2.967 3.28-6.015 9.002-8.363zm-1.317 90.687c6.713 2.753 15.6 4.27 25.024 4.27 9.424 0 18.312-1.517 25.025-4.27 7.21-2.96 11.182-7.091 11.182-11.632V15.902l-.002-.042c-.023-4.525-3.993-8.64-11.18-11.59-6.713-2.753-15.6-4.27-25.025-4.27-9.423 0-18.311 1.517-25.024 4.27-7.187 2.95-11.154 7.065-11.18 11.59l-.002.042v70.693c0 4.54 3.972 8.673 11.182 11.632zM393.364 79.29c.445 0 .896-.13 1.294-.402l12.762-8.741 9.876 8.577c.812.707 1.99.757 2.858.124l13.353-9.742c1.047-.763 1.29-2.25.542-3.321a2.292 2.292 0 0 0-3.244-.556l-11.878 8.667-9.836-8.543a2.284 2.284 0 0 0-2.8-.164l-14.223 9.742c-1.069.731-1.355 2.212-.64 3.303a2.309 2.309 0 0 0 1.936 1.057M556.537 295.89c.445 0 .894-.131 1.292-.402l12.762-8.743 9.875 8.578c.815.705 1.99.757 2.859.124l13.353-9.742c1.047-.764 1.291-2.25.544-3.321a2.293 2.293 0 0 0-3.247-.555l-11.877 8.664-9.834-8.542a2.288 2.288 0 0 0-2.802-.162l-14.223 9.742c-1.069.73-1.353 2.209-.638 3.302a2.312 2.312 0 0 0 1.936 1.057"/>
        <path fill="#D2E4C6" d="M364.826 213.704l4.893 4.919.021.026c.047.047.091.094.133.145.024.03.047.064.068.094.023.03.047.059.068.092.023.035.044.072.065.108.019.03.037.058.051.089a.961.961 0 0 1 .054.11c.016.033.033.064.044.096.017.038.028.076.042.11.012.036.026.071.038.109a4628.676 4628.676 0 0 0 .054.223c.009.042.014.086.02.131l.015.094c.007.077.011.157.011.235v25.772a5.023 5.023 0 0 1 2.661 4.44c0 2.774-2.236 5.023-4.995 5.023-2.76 0-4.996-2.249-4.996-5.023a5.023 5.023 0 0 1 2.661-4.44v-24.8l-6.226-6.26-12.386 4.048 4.202 4.225c.465-.143.96-.223 1.473-.223 2.76 0 4.996 2.248 4.996 5.023 0 2.774-2.237 5.022-4.996 5.022-2.76 0-4.996-2.248-4.996-5.022 0-.514.077-1.012.22-1.481l-5.883-5.915-13.02 4.258 14.612 14.69c.467-.146.96-.224 1.473-.224 2.76 0 4.996 2.249 4.996 5.023 0 2.774-2.237 5.022-4.996 5.022-2.76 0-4.996-2.248-4.996-5.022 0-.514.077-1.012.222-1.481l-16.294-16.38-3.236 1.059c-4.155 1.356-7.075 5.194-7.304 9.573a12.956 12.956 0 0 1 6.359 3.328l17.732 16.964a4.908 4.908 0 0 1 1.562-.256c2.76 0 4.996 2.251 4.996 5.023 0 2.774-2.237 5.025-4.996 5.025-2.76 0-4.996-2.251-4.996-5.025 0-.481.07-.944.196-1.385l-17.713-16.945a8.303 8.303 0 0 0-3.06-1.873l.123 7.332a5.018 5.018 0 0 1 2.454 4.318c0 2.775-2.237 5.023-4.996 5.023-2.76 0-4.996-2.248-4.996-5.023a5.023 5.023 0 0 1 2.867-4.539l-.126-7.296c-2.528.626-4.562 2.34-5.617 4.757a1887.395 1887.395 0 0 0-5.514 12.76 5.88 5.88 0 0 0 .497 5.617c1.114 1.699 2.916 2.675 4.942 2.675h10.63a4.99 4.99 0 0 1 4.437-2.725c2.76 0 4.998 2.249 4.998 5.023 0 2.774-2.239 5.023-4.998 5.023a4.987 4.987 0 0 1-4.391-2.627h-6.49c-1.968 0-3.114 1.312-3.53 2.54-.415 1.23-.303 2.97 1.256 4.177l7.695 5.952a3.73 3.73 0 0 0 2.273.78h20.604a4.988 4.988 0 0 1 4.414-2.676c2.76 0 4.996 2.248 4.996 5.022s-2.236 5.023-4.996 5.023a4.988 4.988 0 0 1-4.414-2.676h-6.114c.992 3.14 3.92 5.422 7.368 5.422h23.993c4.26 0 7.727-3.485 7.727-7.769v-2.607a7.75 7.75 0 0 0-2.164-5.391l-1.142-1.19c-.432.122-.885.19-1.354.19-2.759 0-4.995-2.248-4.995-5.022 0-2.775 2.236-5.023 4.995-5.023 2.127 0 3.94 1.34 4.66 3.222v-2.952a5.026 5.026 0 0 1-2.661-4.44c0-2.775 2.236-5.023 4.995-5.023 2.76 0 4.996 2.248 4.996 5.022a5.026 5.026 0 0 1-2.661 4.441v20.003c0 3.605 2.918 6.539 6.506 6.539 3.585 0 6.503-2.934 6.503-6.539v-11.03a5.026 5.026 0 0 1-2.66-4.441c0-2.774 2.236-5.023 4.995-5.023 2.76 0 4.995 2.249 4.995 5.023a5.026 5.026 0 0 1-2.66 4.44v10.292c0 7.724 6.249 14.007 13.931 14.007 7.608 0 13.808-6.166 13.925-13.787a11.526 11.526 0 0 1-4.573-4.205c-1.443-2.324-2-5.011-1.658-7.63a5.01 5.01 0 0 1-1.216-3.279c0-2.774 2.237-5.023 4.996-5.023 2.76 0 4.995 2.249 4.995 5.023 0 2.5-1.818 4.567-4.197 4.952a6.884 6.884 0 0 0 1.041 3.469 6.798 6.798 0 0 0 5.81 3.241h.566c3.777 0 6.851-3.09 6.851-6.888v-16.265c0-3.8-3.074-6.888-6.851-6.888-.864 0-1.702.162-2.48.465l-.079.032a6.86 6.86 0 0 0-3.156 2.59l-11.945 18.15c.364.698.572 1.486.572 2.326 0 2.775-2.24 5.023-4.998 5.023-2.757 0-4.996-2.248-4.996-5.023 0-2.774 2.239-5.022 4.996-5.022.196 0 .39.014.579.038l11.898-18.082a11.563 11.563 0 0 1 3.85-3.64v-8.585c0-4.018-3.252-7.287-7.249-7.287-.478 0-.922-.146-1.293-.395a13.117 13.117 0 0 1-1.576 4.985l-3.924 7.067c.325.667.511 1.413.511 2.206 0 2.774-2.236 5.023-4.995 5.023-2.76 0-4.996-2.249-4.996-5.023 0-2.774 2.236-5.022 4.996-5.022.228 0 .453.02.672.051l3.66-6.59c2.157-3.882.943-8.822-2.761-11.249l-.715-.467-3.585 3.603c.259.605.401 1.272.401 1.971 0 2.774-2.236 5.023-4.995 5.023-2.76 0-4.996-2.249-4.996-5.023 0-2.774 2.236-5.022 4.996-5.022.32 0 .632.032.936.091l3.244-3.262-7.02-4.596c-3.232-2.117-7.528-1.732-10.34.885.296 1.202.45 2.455.45 3.739v15.058a5.026 5.026 0 0 1 2.661 4.44c0 2.775-2.236 5.023-4.996 5.023-2.759 0-4.995-2.248-4.995-5.022a5.026 5.026 0 0 1 2.661-4.44v-15.059c0-3.45-1.592-6.593-4.368-8.618-1.944-1.42-4.223-2.112-6.534-2.037"/>
        <path fill="#E9E1E1" d="M103.104 155.814l3.003-4.792a25.208 25.208 0 0 1 8.536-13.818 25.115 25.115 0 0 1 15.916-5.702 24.927 24.927 0 0 1 17.583 7.2c4.162 4.096 6.725 9.406 7.353 15.145h.601c.878 0 1.681.49 2.081 1.273a2.343 2.343 0 0 1-.18 2.438l-2.83 3.95a25.032 25.032 0 0 1-24.608 20.24 24.918 24.918 0 0 1-17.58-7.2c-4.162-4.095-6.726-9.405-7.354-15.145h-.538a2.346 2.346 0 0 1-1.983-3.59zm-6.524-18.676a38.478 38.478 0 0 0-3.89 9.394 10.71 10.71 0 0 1 7.077 10.117c0 4.637-2.903 8.616-7.074 10.116a38.58 38.58 0 0 0 3.888 9.397 10.684 10.684 0 0 1 12.143 2.145 10.725 10.725 0 0 1 2.14 12.156 38.35 38.35 0 0 0 9.381 3.896 10.696 10.696 0 0 1 10.099-7.083c4.635 0 8.607 2.908 10.103 7.083a38.445 38.445 0 0 0 9.38-3.896 10.719 10.719 0 0 1 2.145-12.159 10.677 10.677 0 0 1 12.137-2.145 38.62 38.62 0 0 0 3.889-9.394 10.716 10.716 0 0 1-7.07-10.116c0-4.64 2.903-8.616 7.072-10.117a38.46 38.46 0 0 0-3.89-9.394 10.685 10.685 0 0 1-12.138-2.142 10.727 10.727 0 0 1-2.145-12.163 38.552 38.552 0 0 0-9.377-3.895 10.702 10.702 0 0 1-10.106 7.088c-4.633 0-8.603-2.91-10.099-7.09a38.44 38.44 0 0 0-9.38 3.897 10.738 10.738 0 0 1-2.14 12.16 10.702 10.702 0 0 1-12.145 2.145z"/>
        <path fill="#414042" d="M111.277 122.227a38.577 38.577 0 0 1 9.414-3.91 10.732 10.732 0 0 0 10.135 7.114 10.74 10.74 0 0 0 10.142-7.112 38.69 38.69 0 0 1 9.411 3.908 10.765 10.765 0 0 0 2.152 12.206 10.723 10.723 0 0 0 12.181 2.15 38.597 38.597 0 0 1 3.905 9.429 10.752 10.752 0 0 0-7.097 10.152c0 4.654 2.91 8.644 7.094 10.153a38.76 38.76 0 0 1-3.902 9.427 10.715 10.715 0 0 0-12.18 2.153 10.757 10.757 0 0 0-2.153 12.202 38.582 38.582 0 0 1-9.413 3.91 10.736 10.736 0 0 0-10.14-7.108c-4.65 0-8.631 2.918-10.135 7.108a38.487 38.487 0 0 1-9.413-3.91 10.764 10.764 0 0 0-2.15-12.2 10.722 10.722 0 0 0-12.186-2.152 38.719 38.719 0 0 1-3.9-9.43 10.754 10.754 0 0 0 7.098-10.153c0-4.659-2.915-8.649-7.103-10.152a38.616 38.616 0 0 1 3.905-9.428 10.74 10.74 0 0 0 12.188-2.153 10.777 10.777 0 0 0 2.147-12.204zM89.98 150.11a6.056 6.056 0 0 1 5.463 6.054 6.06 6.06 0 0 1-5.461 6.056 2.354 2.354 0 0 0-2.066 2.814 43.453 43.453 0 0 0 6.307 15.249c.366.558.95.932 1.608 1.033a2.356 2.356 0 0 0 1.842-.506 6.043 6.043 0 0 1 8.134.416 6.066 6.066 0 0 1 .415 8.144 2.36 2.36 0 0 0 .526 3.454 43.325 43.325 0 0 0 15.227 6.322 2.356 2.356 0 0 0 1.865-.41c.536-.395.879-1 .945-1.66a6.051 6.051 0 0 1 6.042-5.469c3.139 0 5.74 2.35 6.05 5.468a2.35 2.35 0 0 0 2.812 2.07 43.42 43.42 0 0 0 15.223-6.321c.557-.368.93-.953 1.029-1.612a2.351 2.351 0 0 0-.503-1.842 6.058 6.058 0 0 1 .416-8.144 6.035 6.035 0 0 1 8.129-.416 2.358 2.358 0 0 0 1.841.506 2.352 2.352 0 0 0 1.61-1.033 43.466 43.466 0 0 0 6.308-15.249 2.357 2.357 0 0 0-2.067-2.814 6.058 6.058 0 0 1-5.456-6.056 6.054 6.054 0 0 1 5.458-6.054 2.354 2.354 0 0 0 2.07-2.814 43.419 43.419 0 0 0-6.316-15.25 2.342 2.342 0 0 0-1.607-1.029 2.342 2.342 0 0 0-1.839.504 6.043 6.043 0 0 1-8.13-.417 6.064 6.064 0 0 1-.417-8.145c.42-.516.604-1.186.503-1.845a2.336 2.336 0 0 0-1.029-1.61 43.42 43.42 0 0 0-15.223-6.321 2.351 2.351 0 0 0-2.812 2.07 6.057 6.057 0 0 1-6.05 5.473 6.054 6.054 0 0 1-6.042-5.473 2.351 2.351 0 0 0-2.81-2.07 43.321 43.321 0 0 0-15.227 6.322 2.354 2.354 0 0 0-.526 3.452 6.075 6.075 0 0 1-.413 8.147 6.051 6.051 0 0 1-8.138.417 2.343 2.343 0 0 0-1.84-.504 2.342 2.342 0 0 0-1.606 1.028 43.412 43.412 0 0 0-6.314 15.251 2.357 2.357 0 0 0 .41 1.868c.394.537.997.88 1.659.946z"/>
        <path fill="#FFF" d="M130.828 162.45c3.46 0 6.275-2.82 6.275-6.286 0-3.466-2.815-6.285-6.275-6.285-3.461 0-6.276 2.82-6.276 6.285 0 3.466 2.815 6.285 6.276 6.285"/>
        <path fill="#414042" d="M130.345 149.654c3.318 0 6.018 2.703 6.018 6.027 0 3.323-2.7 6.027-6.018 6.027-3.319 0-6.018-2.704-6.018-6.027 0-3.324 2.7-6.027 6.018-6.027zm0 16.663c5.857 0 10.62-4.77 10.62-10.636s-4.763-10.637-10.62-10.637c-5.855 0-10.62 4.77-10.62 10.637 0 5.865 4.765 10.636 10.62 10.636z"/>
        <path fill="#8E68AD" d="M114.118 147.861c3.084-6.41 9.593-10.702 16.93-10.702 4.938 0 9.604 1.918 13.136 5.401a19.032 19.032 0 0 1 3.73 5.168 19.104 19.104 0 0 1 1.941 7.935 2.415 2.415 0 0 1-.512 1.548c-.05.062-.101.122-.158.18a2.231 2.231 0 0 1-.418.345l.378.608h.002l1.348 2.171 2.057-2.893a2.39 2.39 0 0 1-.928-1.852c-.102-5.47-2.286-10.597-6.153-14.436-3.872-3.843-8.993-5.96-14.424-5.96-7.652 0-14.546 4.33-18.081 10.865l1.152 1.622"/>
        <path fill="#D2E4C6" d="M148.69 166.621c-.192-.16-.36-.35-.495-.57l-.661-1.06c-3.202 6.11-9.6 10.178-16.707 10.178-4.952 0-9.632-1.918-13.177-5.401a18.974 18.974 0 0 1-5.687-13.103 2.393 2.393 0 0 1 .935-1.963l-2.06-2.89-1.735 2.783a2.391 2.391 0 0 1 1.086 1.963 20.742 20.742 0 0 0 6.172 14.436c3.885 3.844 9.021 5.96 14.466 5.96 7.556 0 14.263-4.08 17.863-10.333"/>
        <path fill="#414042" d="M117.814 152.647a11.547 11.547 0 0 1 .183-.572c.035-.1.07-.202.108-.3.033-.087.064-.174.1-.26a27.171 27.171 0 0 1 .228-.547c.044-.101.091-.197.136-.296.038-.08.075-.162.115-.24l.151-.293.123-.23c.054-.098.11-.194.167-.29l.127-.219.183-.29c.045-.066.087-.137.132-.202.066-.101.137-.197.205-.296.042-.06.085-.124.13-.185.077-.106.155-.209.235-.31l.118-.155c.1-.126.204-.25.31-.375.021-.024.04-.05.061-.073.128-.148.26-.293.394-.436l.056-.057c.115-.12.23-.239.35-.356.046-.045.09-.085.135-.127.094-.091.19-.183.29-.272.054-.05.11-.094.164-.143.092-.08.182-.16.276-.237.06-.05.122-.096.183-.146.09-.072.18-.145.271-.215.066-.05.132-.097.198-.146l.273-.197c.068-.047.139-.094.21-.14.089-.062.18-.123.275-.184l.216-.133.28-.17.226-.126c.094-.054.189-.106.285-.155.078-.042.155-.082.233-.122l.29-.14.24-.113c.099-.045.195-.087.296-.13.08-.034.163-.067.245-.1a11.468 11.468 0 0 1 .551-.209c.101-.037.205-.073.306-.106.085-.028.17-.056.254-.082.104-.032.21-.06.313-.091.087-.024.172-.05.257-.073l.322-.077c.085-.021.172-.043.26-.061.108-.024.218-.045.329-.066.085-.016.17-.035.256-.05.113-.02.229-.037.344-.053l.252-.038.36-.04c.08-.007.16-.018.24-.025.134-.012.269-.02.405-.026l.205-.014c.202-.007.407-.012.612-.012 3.688 0 7.172 1.412 9.811 3.979a13.902 13.902 0 0 1 3.962 7.242h-.13c-.857 0-1.645.463-2.06 1.211a2.335 2.335 0 0 0 .066 2.381l1.876 2.98c-.016.052-.03.103-.044.155-.026.089-.054.178-.083.267-.03.101-.063.2-.098.298a4.95 4.95 0 0 1-.092.263l-.11.296a7.98 7.98 0 0 1-.102.25c-.04.1-.085.198-.127.294-.036.082-.07.162-.109.244-.044.098-.094.195-.14.29-.038.078-.076.156-.116.233-.05.099-.104.195-.158.29-.04.074-.077.149-.12.22-.056.1-.115.196-.174.295-.04.068-.08.136-.122.204-.064.1-.13.2-.198.3-.04.061-.078.122-.12.183-.076.108-.15.214-.229.32-.037.048-.07.1-.108.15-.096.128-.198.257-.301.384l-.054.068c-.123.15-.25.3-.377.446-.007.005-.012.012-.016.016-.123.139-.248.272-.377.406-.035.038-.073.075-.11.113-.1.098-.196.197-.297.293-.047.047-.1.092-.146.136a13.52 13.52 0 0 1-.276.254c-.056.049-.113.096-.17.143-.089.077-.178.155-.27.227-.059.05-.122.096-.181.146-.092.07-.181.14-.273.209-.064.049-.13.093-.193.14-.092.066-.181.132-.273.195-.068.047-.137.092-.205.136-.092.061-.184.122-.278.18a11.08 11.08 0 0 1-.494.296 16.639 16.639 0 0 1-.504.277c-.077.04-.153.08-.23.117l-.29.141c-.078.035-.155.073-.235.108-.097.042-.196.087-.295.127-.08.035-.16.068-.24.1-.099.038-.197.078-.299.116-.082.03-.164.058-.247.089-.099.035-.202.068-.303.103-.083.026-.165.054-.25.08l-.31.089-.253.07-.317.078c-.085.019-.17.04-.255.058-.108.024-.216.045-.324.066-.085.017-.17.033-.252.047a16.89 16.89 0 0 1-.34.052 8.978 8.978 0 0 1-.246.037l-.36.04c-.078.007-.154.017-.234.024-.131.011-.266.018-.4.025-.066.005-.132.012-.195.014-.203.007-.403.012-.605.012-3.686 0-7.17-1.412-9.809-3.979a13.902 13.902 0 0 1-3.963-7.242h.195a2.35 2.35 0 0 0 2.306-1.884 2.34 2.34 0 0 0-.395-1.83l-1.276-1.77-.638-.886.035-.136c.026-.092.052-.185.08-.275zm-.914 18.589c-3.856-3.775-6.034-8.817-6.135-14.197a2.346 2.346 0 0 0-1.08-1.93l1.724-2.736 2.048 2.841a2.34 2.34 0 0 0-.929 1.93 18.566 18.566 0 0 0 5.653 12.886 18.69 18.69 0 0 0 13.097 5.311c7.064 0 13.424-4 16.607-10.008l.657 1.042a2.3 2.3 0 0 0 .491.56c-3.577 6.15-10.244 10.161-17.755 10.161a20.437 20.437 0 0 1-14.378-5.86zm14.378-35.037c5.414 0 10.52 2.08 14.38 5.86a20.29 20.29 0 0 1 6.134 14.197c.014.743.375 1.4.925 1.82l-2.05 2.846-1.344-2.135h-.002l-.377-.598c.15-.096.292-.209.417-.34a2.354 2.354 0 0 0 .669-1.699 18.58 18.58 0 0 0-1.936-7.803 18.726 18.726 0 0 0-3.719-5.082 18.682 18.682 0 0 0-13.097-5.311 18.79 18.79 0 0 0-16.877 10.524l-1.15-1.595c3.525-6.426 10.398-10.684 18.027-10.684zm-25.614 23.229h.541c.632 5.743 3.21 11.057 7.395 15.156 4.746 4.647 11.023 7.205 17.678 7.205 12.108 0 22.42-8.486 24.744-20.254l2.846-3.954a2.335 2.335 0 0 0 .181-2.44 2.35 2.35 0 0 0-2.092-1.274h-.605c-.631-5.743-3.209-11.057-7.394-15.155-4.748-4.648-11.026-7.205-17.68-7.205a25.33 25.33 0 0 0-16.004 5.705 25.208 25.208 0 0 0-8.584 13.828l-3.02 4.796a2.338 2.338 0 0 0-.066 2.381 2.352 2.352 0 0 0 2.06 1.21zM372.337 215.626c2.782 2.03 4.378 5.182 4.378 8.642v15.1a5.04 5.04 0 0 0-2.667 4.453c0 2.782 2.241 5.037 5.007 5.037 2.765 0 5.007-2.255 5.007-5.037a5.04 5.04 0 0 0-2.668-4.453v-15.1c0-1.288-.154-2.544-.451-3.75 2.82-2.624 7.124-3.01 10.365-.887l7.035 4.609-3.252 3.271a4.935 4.935 0 0 0-.938-.092c-2.766 0-5.007 2.255-5.007 5.037s2.241 5.036 5.007 5.036c2.765 0 5.007-2.254 5.007-5.036 0-.702-.143-1.37-.403-1.977l3.594-3.613.716.468c3.713 2.434 4.93 7.388 2.768 11.281l-3.669 6.609a4.882 4.882 0 0 0-.673-.052c-2.766 0-5.007 2.255-5.007 5.036 0 2.782 2.241 5.037 5.007 5.037 2.765 0 5.007-2.255 5.007-5.037 0-.795-.188-1.543-.513-2.212l3.933-7.086a13.159 13.159 0 0 0 1.58-5c.372.25.816.396 1.296.396 4.005 0 7.265 3.279 7.265 7.308v8.61a11.592 11.592 0 0 0-3.859 3.65l-11.925 18.131a4.712 4.712 0 0 0-.58-.038c-2.764 0-5.007 2.255-5.007 5.037s2.243 5.036 5.007 5.036c2.765 0 5.009-2.254 5.009-5.036 0-.843-.208-1.633-.573-2.332l11.972-18.203a6.876 6.876 0 0 1 3.163-2.596c.029-.011.054-.02.08-.033a6.836 6.836 0 0 1 2.485-.466c3.785 0 6.867 3.098 6.867 6.908v16.31c0 3.808-3.082 6.908-6.867 6.908h-.566a6.813 6.813 0 0 1-5.824-3.25 6.906 6.906 0 0 1-1.044-3.48 5.024 5.024 0 0 0 4.207-4.965c0-2.782-2.241-5.037-5.007-5.037-2.765 0-5.007 2.255-5.007 5.037 0 1.26.461 2.405 1.22 3.288a11.616 11.616 0 0 0 1.66 7.651 11.555 11.555 0 0 0 4.584 4.218c-.117 7.642-6.331 13.824-13.956 13.824-7.7 0-13.964-6.3-13.964-14.046v-10.32a5.04 5.04 0 0 0 2.667-4.453c0-2.782-2.241-5.036-5.007-5.036-2.765 0-5.007 2.254-5.007 5.036a5.04 5.04 0 0 0 2.668 4.453v11.062c0 3.615-2.925 6.557-6.519 6.557-3.596 0-6.52-2.942-6.52-6.557v-20.06a5.04 5.04 0 0 0 2.667-4.452c0-2.782-2.242-5.037-5.007-5.037-2.766 0-5.007 2.255-5.007 5.037a5.04 5.04 0 0 0 2.667 4.453v2.96c-.72-1.887-2.539-3.231-4.67-3.231-2.766 0-5.007 2.255-5.007 5.037 0 2.781 2.241 5.036 5.007 5.036.47 0 .924-.068 1.357-.19l1.144 1.193a7.774 7.774 0 0 1 2.169 5.406v2.615c0 4.295-3.475 7.79-7.745 7.79h-24.047c-3.456 0-6.39-2.288-7.384-5.437h6.127a5 5 0 0 0 4.425 2.683c2.765 0 5.007-2.255 5.007-5.036 0-2.782-2.242-5.037-5.007-5.037a5 5 0 0 0-4.425 2.683h-20.65a3.737 3.737 0 0 1-2.279-.781l-7.712-5.969c-1.563-1.21-1.675-2.956-1.258-4.19.416-1.23 1.565-2.546 3.537-2.546h6.505a4.998 4.998 0 0 0 4.4 2.634c2.766 0 5.01-2.255 5.01-5.037s-2.244-5.036-5.01-5.036a5.002 5.002 0 0 0-4.447 2.732h-10.653c-2.03 0-3.837-.979-4.953-2.683a5.9 5.9 0 0 1-.498-5.632 1893.26 1893.26 0 0 1 5.526-12.796c1.058-2.424 3.095-4.142 5.63-4.77l.126 7.317a5.037 5.037 0 0 0-2.874 4.551c0 2.782 2.242 5.037 5.007 5.037 2.766 0 5.008-2.255 5.008-5.037a5.032 5.032 0 0 0-2.46-4.33l-.124-7.353a8.321 8.321 0 0 1 3.068 1.879l17.754 16.992a5.04 5.04 0 0 0-.197 1.389c0 2.781 2.242 5.038 5.007 5.038 2.766 0 5.007-2.257 5.007-5.038 0-2.78-2.241-5.037-5.007-5.037-.547 0-1.074.092-1.565.257l-17.773-17.012a12.984 12.984 0 0 0-6.373-3.337c.23-4.392 3.156-8.24 7.32-9.6l3.244-1.062 16.331 16.426c-.145.47-.222.97-.222 1.485 0 2.782 2.241 5.036 5.007 5.036 2.765 0 5.007-2.254 5.007-5.036 0-2.782-2.242-5.037-5.007-5.037a4.94 4.94 0 0 0-1.477.224L330 224.843l13.049-4.27 5.896 5.93c-.143.471-.22.97-.22 1.486 0 2.782 2.241 5.036 5.007 5.036 2.765 0 5.007-2.254 5.007-5.036 0-2.782-2.242-5.037-5.007-5.037-.515 0-1.01.08-1.476.224l-4.212-4.237 12.415-4.06 6.24 6.277v24.87a5.037 5.037 0 0 0-2.668 4.453c0 2.782 2.242 5.037 5.007 5.037 2.766 0 5.007-2.255 5.007-5.037a5.037 5.037 0 0 0-2.667-4.453v-25.844c0-.078-.005-.158-.012-.235l-.014-.094c-.007-.045-.011-.09-.02-.132a1.53 1.53 0 0 0-.026-.11l-.029-.114c-.011-.037-.025-.073-.037-.108-.014-.035-.026-.073-.042-.11-.012-.034-.028-.064-.045-.097a.964.964 0 0 0-.053-.11c-.014-.031-.033-.06-.052-.09-.02-.036-.042-.073-.065-.108-.021-.033-.045-.062-.068-.092a2.365 2.365 0 0 0-.068-.094 1.966 1.966 0 0 0-.133-.146l-.021-.026-4.905-4.933c2.317-.076 4.6.619 6.55 2.043zm-10.973-5.992l-41.05 13.426c-6.046 1.977-10.281 7.593-10.553 13.98-.161.026-.325.05-.486.083a13.04 13.04 0 0 0-9.352 7.576 1844.09 1844.09 0 0 0-5.543 12.831 10.7 10.7 0 0 0 .892 10.08 10.596 10.596 0 0 0 5.76 4.333 8.83 8.83 0 0 0-.674 1.497c-1.18 3.486-.065 7.19 2.836 9.435l7.712 5.971a8.437 8.437 0 0 0 5.133 1.756h9.705c1.1 5.769 6.151 10.144 12.202 10.144h24.047c3.966 0 7.504-1.883 9.78-4.804 2.027 2.902 5.38 4.804 9.165 4.804 3.339 0 6.338-1.478 8.393-3.818 3.027 6.249 9.405 10.565 16.769 10.565 9.794 0 17.842-7.64 18.58-17.305.196.01.39.019.587.019h.566c6.366 0 11.546-5.211 11.546-11.615v-16.31c0-6.404-5.18-11.615-11.546-11.615-.368 0-.73.024-1.093.057v-7.11c0-6.625-5.358-12.015-11.944-12.015-.543 0-1.041.188-1.437.499-.63-3.462-2.613-6.66-5.74-8.708l-11.756-7.703c-4.567-2.994-10.496-2.775-14.83.339a15.425 15.425 0 0 0-3.946-4.21c-4.008-2.928-9.01-3.724-13.723-2.182zM464.956 345.205H384.7c-1.3 0-2.354 1.083-2.354 2.417 0 1.335 1.055 2.418 2.354 2.418h80.257c1.3 0 2.354-1.083 2.354-2.418 0-1.334-1.054-2.417-2.354-2.417M271.31 347.622c0 1.335 1.045 2.418 2.333 2.418h94.783c1.288 0 2.333-1.083 2.333-2.418 0-1.334-1.045-2.417-2.333-2.417h-94.783c-1.288 0-2.333 1.083-2.333 2.417M314.354 359.71h-40.708c-1.29 0-2.336 1.08-2.336 2.417 0 1.334 1.047 2.417 2.336 2.417h40.708c1.29 0 2.336-1.083 2.336-2.417 0-1.337-1.047-2.418-2.336-2.418M464.968 358.742H329.653c-1.293 0-2.343 1.083-2.343 2.418 0 1.334 1.05 2.417 2.343 2.417h135.315c1.293 0 2.342-1.083 2.342-2.417 0-1.335-1.049-2.418-2.342-2.418M387.172 324.898a2.9 2.9 0 0 0-2.896-2.9 2.9 2.9 0 0 0-2.897 2.9 2.9 2.9 0 0 0 2.897 2.902 2.9 2.9 0 0 0 2.896-2.902M372.69 324.898a2.898 2.898 0 0 0-5.793 0 2.898 2.898 0 0 0 2.895 2.902 2.899 2.899 0 0 0 2.898-2.902M358.207 324.898a2.898 2.898 0 0 0-5.793 0 2.898 2.898 0 0 0 2.895 2.902 2.899 2.899 0 0 0 2.898-2.902"/>
    </g>
</svg>
