<svg xmlns="http://www.w3.org/2000/svg" width="64" height="64" viewBox="0 0 64 64">
    <g fill="none" fill-rule="evenodd">
        <path fill="none" d="M0 0h64v64H0z"/>
        <g fill="#41354B">
            <path d="M43.046 21.018c-.89-2.841-2.118-5.27-3.594-7.141a19.498 19.498 0 0 1 8.801 7.141h-5.207zm8.496 9.559h-6.946c-.08-2.446-.367-4.765-.844-6.906h6.005a19.09 19.09 0 0 1 1.785 6.906zm-1.785 9.558h-6.005c.477-2.141.764-4.466.844-6.906h6.946a19.09 19.09 0 0 1-1.785 6.906zM39.452 49.93c1.476-1.866 2.704-4.3 3.594-7.136h5.213a19.606 19.606 0 0 1-8.807 7.136zm-5.976 1.24v-8.376h6.746c-1.545 4.426-3.984 7.595-6.746 8.376zm0-17.94h8.462a34.223 34.223 0 0 1-.936 6.906h-7.526V33.23zm0-9.558h7.526c.523 2.13.85 4.46.936 6.906h-8.462V23.67zm0-11.028c2.762.769 5.201 3.938 6.746 8.375h-6.746v-8.375zm-2.658 8.375h-6.756c1.544-4.437 3.984-7.606 6.756-8.375v8.375zm0 9.559h-8.473c.092-2.446.413-4.777.936-6.906h7.537v6.906zm0 9.558h-7.537c-.523-2.13-.844-4.466-.936-6.906h8.473v6.906zm0 11.034c-2.772-.78-5.212-3.95-6.756-8.376h6.756v8.376zM16.03 42.793h5.213c.884 2.836 2.112 5.27 3.594 7.136a19.636 19.636 0 0 1-8.807-7.136zm-3.295-9.564h6.952c.08 2.44.373 4.765.85 6.906h-6.01a19.33 19.33 0 0 1-1.792-6.906zm1.791-9.558h6.01a37.559 37.559 0 0 0-.849 6.906h-6.952a19.33 19.33 0 0 1 1.791-6.906zm10.31-9.794c-1.48 1.871-2.71 4.3-3.593 7.141H16.03a19.573 19.573 0 0 1 8.807-7.141zm7.331-4.082h-.051c-12.176.018-22.08 9.926-22.08 22.108 0 12.187 9.915 22.113 22.109 22.113 12.187 0 22.107-9.926 22.107-22.113 0-12.182-9.908-22.09-22.085-22.108z"/>
            <path d="M24.107 58.666C12.391 55.153 4.204 44.148 4.204 31.903c0-12.222 8.17-23.227 19.852-26.752a1.325 1.325 0 0 0 .89-1.653 1.32 1.32 0 0 0-1.654-.884C10.49 6.47 1.552 18.52 1.552 31.903c0 13.405 8.961 25.46 21.792 29.312l.379.052c.574 0 1.096-.368 1.269-.947a1.324 1.324 0 0 0-.885-1.654M40.997 2.614a1.32 1.32 0 0 0-1.66.884c-.206.7.19 1.44.885 1.653 11.694 3.525 19.857 14.53 19.857 26.752 0 12.245-8.18 23.25-19.897 26.763a1.327 1.327 0 0 0-.89 1.654c.172.58.694.947 1.274.947l.38-.052c12.83-3.852 21.785-15.907 21.785-29.312 0-13.382-8.938-25.432-21.734-29.29"/>
        </g>
    </g>
</svg>
