<svg xmlns="http://www.w3.org/2000/svg" width="64" height="64" viewBox="0 0 64 64">
    <g fill="none" fill-rule="evenodd">
        <path fill="#FFF" fill-opacity="0" d="M0 0h64v64H0z"/>
        <g fill="#41354B">
            <path d="M27.098 28.832c-.81.407-1.561.913-2.236 1.501l-10.63-15.418a1.322 1.322 0 0 1 .363-1.85 1.356 1.356 0 0 1 1.873.353l10.63 15.414zm11.873 1.5a10.706 10.706 0 0 0-2.236-1.5l10.627-15.414a1.366 1.366 0 0 1 1.882-.353 1.32 1.32 0 0 1 .354 1.85L38.971 30.333z"/>
            <path d="M13.583 13.651a2.076 2.076 0 0 1-2.077-2.068 2.078 2.078 0 0 1 4.154 0c0 1.14-.933 2.068-2.077 2.068zm0-5.818a3.754 3.754 0 0 0-3.75 3.75 3.757 3.757 0 0 0 3.75 3.75 3.76 3.76 0 0 0 3.75-3.75 3.757 3.757 0 0 0-3.75-3.75zM51.083 13.656a2.074 2.074 0 1 1 2.077-2.072 2.074 2.074 0 0 1-2.077 2.072zm0-5.823a3.754 3.754 0 0 0-3.75 3.75 3.754 3.754 0 0 0 3.75 3.75 3.754 3.754 0 0 0 3.75-3.75 3.754 3.754 0 0 0-3.75-3.75zM30.667 10.546v5.625c0 .486.573.88 1.276.88.707 0 1.28-.394 1.28-.88v-5.625c0-.486-.573-.88-1.28-.88-.703 0-1.276.394-1.276.88zM32.748 49.939c-5.982 0-10.849-4.872-10.849-10.853 0-5.982 4.867-10.849 10.849-10.849 5.986 0 10.853 4.867 10.853 10.849 0 5.98-4.867 10.853-10.853 10.853zm0-23.772c-7.118 0-12.915 5.796-12.915 12.919C19.833 46.208 25.63 52 32.748 52c7.122 0 12.919-5.792 12.919-12.914 0-7.123-5.797-12.92-12.92-12.92z"/>
            <path d="M32.331 59.943c-11.735 0-21.278-9.544-21.278-21.279 0-11.73 9.543-21.278 21.278-21.278 11.74 0 21.283 9.548 21.283 21.278 0 11.735-9.543 21.279-21.283 21.279zm0-44.61C19.466 15.333 9 25.8 9 38.664 9 51.534 19.466 62 32.331 62c12.87 0 23.336-10.466 23.336-23.336 0-12.864-10.467-23.33-23.336-23.33z"/>
            <path d="M19.46 25.672l-.05.042a1.271 1.271 0 0 0-.075 1.796l.938.412.862-.337.046-.046c.521-.47.55-1.28.075-1.796a1.267 1.267 0 0 0-1.796-.07M25.842 52.966l-.063-.03a1.275 1.275 0 0 0-1.67.66 1.266 1.266 0 0 0 .653 1.674l.055.025.512.108a1.271 1.271 0 0 0 .512-2.438M24.797 22.106l-.062.029c-.646.287-.904 1.025-.62 1.67.207.472.682.742 1.178.742l.53-.108a1.276 1.276 0 0 0 .654-1.675 1.276 1.276 0 0 0-1.68-.658M31.274 54.51l-.1-.008a1.267 1.267 0 0 0-1.338 1.192c-.046.7.492 1.304 1.192 1.35l.025.004.112.004a1.274 1.274 0 0 0 .108-2.542M16.342 45.48a1.27 1.27 0 0 0-.525 1.72l.037.076c.23.412.65.645 1.088.645l.629-.166c.617-.338.829-1.134.492-1.746-.33-.62-1.1-.854-1.721-.53M16.543 41.468l-.013-.075a1.276 1.276 0 0 0-1.47-1.042 1.277 1.277 0 0 0-1.042 1.467l.012.054a1.273 1.273 0 0 0 1.255 1.067l.204-.017a1.269 1.269 0 0 0 1.054-1.454M15.074 37.073l.2.017c.612 0 1.158-.467 1.262-1.096a1.274 1.274 0 0 0-2.508-.446l-.013.088a1.258 1.258 0 0 0 1.059 1.437M21.108 50.654a1.265 1.265 0 0 0-1.783.1c-.471.517-.421 1.33.091 1.8l.034.034.854.325.942-.417c.47-.52.433-1.33-.088-1.8l-.05-.042M17.57 29.65a1.271 1.271 0 0 0-1.72.525l-.03.054a1.268 1.268 0 0 0 .513 1.721l.604.15c.454 0 .892-.241 1.121-.662l.033-.067a1.27 1.27 0 0 0-.52-1.72M47.405 33.717c.175.53.675.863 1.204.863l.404-.063a1.286 1.286 0 0 0 .804-1.616l-.029-.071c-.229-.667-.946-.988-1.612-.754-.663.225-1 .979-.771 1.641M46.102 48.11a1.27 1.27 0 0 0-1.783.2l-.063.083a1.264 1.264 0 0 0 .25 1.775l.763.255c.392 0 .77-.175 1.02-.505l.017-.025a1.264 1.264 0 0 0-.204-1.783M49.044 42.906a1.27 1.27 0 0 0-1.62.787l-.026.07c-.22.668.138 1.388.805 1.613l.408.067c.53 0 1.025-.342 1.204-.867l.017-.05a1.274 1.274 0 0 0-.788-1.62M49.438 37.833c-.7 0-1.271.567-1.271 1.267v.133c0 .7.57 1.267 1.27 1.267.705 0 1.271-.567 1.271-1.267V39.1c0-.7-.566-1.267-1.27-1.267M41.846 23.902l-.046-.025a1.27 1.27 0 0 0-1.762.367 1.278 1.278 0 0 0 .367 1.758l.066.038.688.204c.416 0 .825-.204 1.07-.58a1.275 1.275 0 0 0-.383-1.762M36.46 21.215l-.042-.008a1.268 1.268 0 1 0-.625 2.458l.083.021.292.042c.58 0 1.1-.4 1.237-.983a1.271 1.271 0 0 0-.945-1.53M40.46 52.207l-.054.034a1.279 1.279 0 0 0-.366 1.762c.246.371.654.575 1.066.575l.696-.208.054-.038c.588-.383.755-1.17.367-1.758a1.274 1.274 0 0 0-1.762-.367M35.767 53.71a1.261 1.261 0 0 0-.892 1.546c.146.57.67.95 1.242.95l.316-.042.046-.013c.683-.183 1.05-.87.871-1.55-.18-.675-.904-1.07-1.583-.891M45.28 29.581l.78-.27c.554-.43.658-1.23.225-1.788l-.042-.05c-.433-.554-1.216-.625-1.77-.192-.546.425-.63 1.254-.196 1.804.25.325.625.496 1.004.496M31.03 20.337l-.067.008c-.7.063-1.183.675-1.125 1.375.054.663.642 1.163 1.296 1.163l.117-.005c.7-.062 1.216-.679 1.158-1.375a1.285 1.285 0 0 0-1.38-1.166M33.82 43.64v-3.249c.74.414 1.117.899 1.117 1.465 0 .8-.377 1.398-1.116 1.784zm-2.154-6.458c-.692-.39-1.038-.822-1.038-1.294 0-.625.346-1.11 1.038-1.46v2.754zm3.699 1.362c-.329-.17-.852-.368-1.544-.584v-3.595l.618.18c.407.143.723.215.93.215l.675-.288.242-.764-.25-.606c-.433-.427-1.173-.706-2.215-.854v-.796c0-.62-.48-1.119-1.073-1.119-.597 0-1.082.5-1.082 1.12v.817c-.973.22-1.739.602-2.301 1.164-.757.76-1.133 1.699-1.133 2.818 0 1.097.42 1.928 1.258 2.49.35.233.783.44 1.28.615.178.063.481.158.896.275v4.256c-.406-.09-.813-.203-1.207-.342-.618-.211-1.072-.315-1.375-.315l-.645.257-.272.728.328.746c.567.53 1.631.853 3.171.984v.768c0 .62.485 1.12 1.082 1.12.592 0 1.073-.5 1.073-1.12v-.863c.964-.202 1.73-.58 2.305-1.128.81-.764 1.207-1.739 1.207-2.92 0-.729-.125-1.313-.38-1.758-.36-.63-.887-1.128-1.588-1.501zM37 6.957c0 1.177-.926 2.132-2.057 2.132h-5.22c-1.139 0-2.056-.955-2.056-2.132V6.21c0-1.177.917-2.137 2.057-2.137h5.219c1.13 0 2.057.96 2.057 2.137v.747zM34.943 2h-5.22c-2.235 0-4.056 1.892-4.056 4.21v.747c0 2.322 1.82 4.21 4.057 4.21h5.219c2.236 0 4.057-1.888 4.057-4.21V6.21C39 3.892 37.179 2 34.943 2z"/>
        </g>
    </g>
</svg>
