<svg xmlns="http://www.w3.org/2000/svg" width="64" height="64" viewBox="0 0 64 64">
    <g fill="none" fill-rule="evenodd">
        <path fill="none" d="M0 0h64v64H0z"/>
        <g fill="#41354B">
            <path d="M8.955 18.971c.522 0 .95.428.95.955v.127a.947.947 0 0 1-.95.947.948.948 0 0 1-.955-.947v-.127c0-.527.428-.955.955-.955zm0-5.485a.95.95 0 0 1 .95.95v.132a.954.954 0 0 1-.95.954.955.955 0 0 1-.955-.954v-.132c0-.527.428-.95.955-.95zm0 12.343a.95.95 0 0 1 .95.95v.132a.952.952 0 1 1-1.905 0v-.132c0-.527.428-.95.955-.95zM8.955 8c.522 0 .983.424.983.946a.947.947 0 0 1-.58.889l-.403.095C8.428 9.93 8 9.539 8 9.012v-.066A.95.95 0 0 1 8.955 8zM21.42 8a.95.95 0 1 1 0 1.9h-.128a.952.952 0 0 1-.95-.954c0-.522.424-.946.95-.946h.128zm5.49 0c.526 0 .946.424.946.946 0 .527-.42.955-.946.955h-.132a.952.952 0 0 1-.95-.955c0-.522.423-.946.95-.946h.132zM14.568 8a.95.95 0 0 1 0 1.9h-.132a.952.952 0 0 1-.95-.954c0-.522.423-.946.95-.946h.132zM53.969 30.974h-5.296l-.065.004-.75.224c-.43.355-.5.991-.15 1.425a5.319 5.319 0 0 1 1.207 3.404c0 2.99-2.43 5.43-5.427 5.43a5.437 5.437 0 0 1-5.427-5.43c0-1.255.417-2.43 1.21-3.408a1.019 1.019 0 0 0-.144-1.426l-.75-.219-.022-.004H33.01v-3.671c.952.425 1.988.649 3.036.649 4.107 0 7.454-3.342 7.454-7.452 0-4.105-3.347-7.452-7.454-7.452a7.451 7.451 0 0 0-3.036.654v-3.676H53.97v20.948zm0 23H33.01V48.68l-.009-.07-.215-.742a1.013 1.013 0 0 0-1.425-.153 5.358 5.358 0 0 1-3.41 1.206 5.43 5.43 0 0 1-5.426-5.425 5.43 5.43 0 0 1 5.427-5.426c1.255 0 2.44.421 3.409 1.21.438.352 1.075.286 1.43-.153l.215-.741.004-.018V33h3.672a7.504 7.504 0 0 0-.645 3.03c0 4.115 3.343 7.457 7.45 7.457a7.462 7.462 0 0 0 7.458-7.456 7.493 7.493 0 0 0-.65-3.031h3.673v20.974zm-22.989 0H10.031V33.026h5.291l.07-.008.75-.22c.43-.355.5-.995.145-1.425a5.371 5.371 0 0 1-1.21-3.412c0-2.987 2.439-5.422 5.43-5.422a5.432 5.432 0 0 1 5.428 5.422 5.404 5.404 0 0 1-1.207 3.416c-.355.43-.29 1.07.15 1.421l.631.228.084-.008.048.008h5.339v3.667a7.447 7.447 0 0 0-3.027-.65c-4.11 0-7.454 3.347-7.454 7.453 0 4.11 3.343 7.456 7.454 7.456a7.38 7.38 0 0 0 3.027-.654v3.676zM54.982 8H31.998c-.562 0-1.018.452-1.018 1.009v6.311l.009.066.22.746c.35.438.995.5 1.425.149a5.404 5.404 0 0 1 3.413-1.206A5.432 5.432 0 0 1 41.47 20.5a5.43 5.43 0 0 1-5.423 5.425 5.35 5.35 0 0 1-3.413-1.21 1.022 1.022 0 0 0-1.43.153l-.22.737-.004.027v5.364h-3.668c.426-.952.65-1.983.65-3.035 0-4.106-3.343-7.448-7.454-7.448s-7.454 3.342-7.454 7.448c0 1.052.224 2.083.645 3.035H9.018c-.562 0-1.018.451-1.018 1.013v22.978C8 55.548 8.456 56 9.018 56h45.964C55.54 56 56 55.548 56 54.987V32.009l-.004-.013.004-.01V9.01C56 8.452 55.54 8 54.982 8z"/>
        </g>
    </g>
</svg>
