<svg xmlns="http://www.w3.org/2000/svg" width="144" height="144"><g fill="none"><g fill="#41354B"><path d="M56.812 35.377l9.608 12.822v85.698h4.805v-87.303l-4.805-6.411h50.446v93.714h4.804v-98.52z"/><path d="M68.884 46.74v4.805h57.652a2.367 2.367 0 0 1 2.402 2.403v44.454c0 .692-.51 1.202-1.2 1.202h-2.403v4.806h2.402c3.288 0 6.006-2.718 6.006-6.008v-44.454c0-3.953-3.255-7.209-7.207-7.209h-57.652zm8.129 75.275a2.402 2.402 0 1 0 0 4.805h33.63a2.402 2.402 0 1 0 0-4.805h-33.63z"/><path d="M91.609 48.87v75.692h4.804v-75.692zm2.611-30.536c-11.606-.048-21.902 7.523-25.336 18.613l4.598 1.427a21.601 21.601 0 0 1 20.738-15.234c4.746 0 9.208 1.591 12.836 4.299a21.64 21.64 0 0 1 4.73 4.852 21.603 21.603 0 0 1 3.04 6.242l4.607-1.389a26.444 26.444 0 0 0-9.505-13.563c-4.421-3.3-9.886-5.245-15.699-5.247h-.01zm-.376-16.334c-3.951 0-7.206 3.256-7.206 7.209 0 3.952 3.255 7.208 7.206 7.208 3.952 0 7.207-3.256 7.207-7.208-.001-3.953-3.255-7.209-7.207-7.209zm0 4.806a2.367 2.367 0 0 1 2.402 2.403 2.367 2.367 0 0 1-2.402 2.402 2.367 2.367 0 0 1-2.402-2.402 2.367 2.367 0 0 1 2.402-2.403z"/><path d="M91.609 11.942v9.612h4.804v-9.612zm37.121 120.015l-41.988.077c-.797-.01-1.536.448-1.936 1.197-.4.749-.398 1.673.004 2.42.403.747 1.144 1.2 1.94 1.189l41.99-.077c.796.008 1.535-.449 1.935-1.198.4-.748.398-1.672-.004-2.42-.403-.746-1.144-1.2-1.94-1.188zm-117.776 0a2.402 2.402 0 1 0 0 4.806l64.82.077a2.402 2.402 0 1 0 .01-4.806l-64.83-.077zm126.956 0a2.402 2.402 0 1 0 0 4.806h3.538a2.402 2.402 0 1 0 0-4.806h-3.538zm-137.91 2.403a2.403 2.403 0 1 0 4.806 0 2.403 2.403 0 0 0-4.806 0z"/><path d="M10.652 85.797v31.238c0 10.588 8.633 19.224 19.218 19.224h9.608c10.585-.001 19.218-8.636 19.218-19.224v-31.238h-48.044zm4.805 4.806h38.433v26.432a14.379 14.379 0 0 1-14.413 14.418h-9.607a14.379 14.379 0 0 1-14.413-14.418v-26.432z"/><path d="M13.493 97.16v4.805h43.239v-4.805h-8.202zm41.029-30.537a2.403 2.403 0 0 0-2.365 2.43 2.923 2.923 0 0 1-1.839 2.723 2.402 2.402 0 0 0-.188.086c-3.13 1.575-4.086 4.747-3.96 6.946a2.403 2.403 0 1 0 4.795-.274c-.043-.767.082-1.76 1.323-2.384l-.178.087a7.752 7.752 0 0 0 4.851-7.182 2.404 2.404 0 0 0-2.44-2.43v-.002zm-14.913 0a2.403 2.403 0 0 0-2.365 2.43 2.923 2.923 0 0 1-1.839 2.723 2.402 2.402 0 0 0-.188.086c-3.13 1.575-4.086 4.747-3.96 6.946a2.403 2.403 0 1 0 4.795-.274c-.043-.767.082-1.76 1.323-2.384l-.178.087a7.752 7.752 0 0 0 4.851-7.182 2.404 2.404 0 0 0-2.44-2.43v-.002zm-14.203 0a2.403 2.403 0 0 0-2.365 2.43 2.923 2.923 0 0 1-1.839 2.723 2.402 2.402 0 0 0-.188.086c-3.13 1.575-4.086 4.747-3.96 6.946a2.403 2.403 0 1 0 4.795-.274c-.043-.767.083-1.76 1.323-2.384l-.178.087a7.752 7.752 0 0 0 4.851-7.182 2.404 2.404 0 0 0-2.44-2.43v-.002z"/></g><path d="M0 0h144v144h-144z" fill="none"/></g></svg>