<svg xmlns="http://www.w3.org/2000/svg" width="64" height="64" viewBox="0 0 64 64">
    <g fill="none" fill-rule="evenodd">
        <path fill="#FFF" fill-opacity="0" d="M0 0h64v64H0z"/>
        <path fill="#41354B" d="M37.846 57.019l6.156-11.352 1.242 1.86.848.441.822-.471 2.44-3.967c.212.363.48.791.791 1.297l1.64 2.67.826.471h.018l.817-.437 1.26-1.847 6.151 11.335h-23.01zm7.865-14.484l.926 1.635-.601.969-.965-1.44.64-1.164zm3.643-6.706l4.283 7.895-.97 1.428-2.47-4.023-.843-.476-.848.471-.675 1.1-1.008-1.74 2.53-4.655zm-10.89-.463c-1.319-2.146-3.806-6.204-3.858-6.277l-.84-.472-.843.472-3.85 6.268-1.87-2.803 6.563-12.083 6.585 12.118-1.886 2.777zM17.639 46.021H3.535l6.17-11.351 1.237 1.86.843.441.826-.471 2.436-3.963c.216.359.48.783.792 1.298l1.64 2.665.821.471h.026l.814-.433 1.254-1.851 1.7 3.123-4.456 8.211zm-2.595-21.19l4.291 7.896-.969 1.428c-.96-1.558-2.44-3.967-2.479-4.024l-.839-.475h-.004l-.84.471-2.474 4.015-.956-1.437 4.27-7.873zm.995-9.664h5.728l-.749.627-.355.758.355.761.749.627h-5.728v-2.773zm18.72-6.307V7.98h9.698l-1.933 1.627-.355.757.355.757 1.933 1.631h-9.699V8.86zM50.34 26.164h5.728l-.744.623-.35.762.35.757.744.627H50.34v-2.769zm12.983 31.24L50.34 33.497V30.92h8.445a.99.99 0 0 0 .93-.653l-.29-1.1L57.5 27.55l1.925-1.618a.991.991 0 1 0-.64-1.748h-9.431l-.705.29-.29.696v8.328l-2.63 4.846-10.972-20.2v-3.408h12.42a.994.994 0 0 0 .93-.65l-.298-1.098-3.11-2.622 3.11-2.622.299-1.094a.994.994 0 0 0-.93-.649H33.766c-.549 0-.99.437-.99.986v11.158l-9.626 17.72.074-.126-7.186-13.234v-2.582h8.444c.411 0 .784-.26.93-.654l-.294-1.098-1.925-1.618 1.925-1.618.295-1.1a.994.994 0 0 0-.93-.648h-9.44l-.697.29-.29.696v8.332L1 46.536l.022.978.848.489H16.56l.64-1.19-3.028 5.577.018.982.852.484h22.262l1.077-1.981H16.708l9.427-17.357 2.15 3.223.822.441h.017l.822-.471 3.825-6.217c.363.606.843 1.389 1.48 2.423l2.331 3.794.818.471.848-.437 2.167-3.197 3.189 5.875-9.297 17.11.021.978.852.489h26.36c.545 0 .986-.45.986-.995l-.203-.601z"/>
    </g>
</svg>
