<svg xmlns="http://www.w3.org/2000/svg" width="116" height="21" viewBox="0 0 116 21">
    <g fill="#FFF" fill-rule="evenodd">
        <path d="M12.405 20.087v-8.666H3.117v8.666H0V0h3.117v8.494h9.288V0h3.117v20.087zM33.973 8.494v2.927H24.25v5.738h10.445v2.928H21V0h13.696v2.926H24.25v5.568zM48.645 14.261c-1.122-1.776-1.625-2.367-3.4-2.367h-2.63v8.967H39.42V.145h3.195v8.67h2.394c1.775 0 2.276-.622 3.43-2.366L52.46.145h3.638l-4.704 7.309c-1.211 1.746-1.862 2.427-2.601 2.811.887.297 1.567 1.007 2.809 2.961l4.912 7.635h-3.61l-4.26-6.6zM68.84 17.841v3.02h-8.102v-3.02h2.454V3.163h-2.454V.145h8.103v3.018h-2.456V17.84zM90.703 20.861V6.122l-6.95 8.76-6.978-8.76v14.739h-3.193V.145h1.863l8.309 10.506L92.063.145h1.832V20.86zM103.543 13.196h5.854l-2.926-7.222-2.928 7.222zm-3.016 7.665h-3.518L105.554.145h1.863l8.456 20.716h-3.517l-1.863-4.647h-8.074l-1.892 4.647z"/>
    </g>
</svg>
