<svg xmlns="http://www.w3.org/2000/svg" width="116" height="21"><path d="M12.405 20.087v-8.666h-9.288v8.666h-3.117v-20.087h3.117v8.494h9.288v-8.494h3.117v20.087zm21.568-11.593v2.927h-9.723v5.738h10.445v2.928h-13.695v-20.087h13.696v2.926h-10.446v5.568zm14.672 5.767c-1.122-1.776-1.625-2.367-3.4-2.367h-2.63v8.967h-3.195v-20.716h3.195v8.67h2.394c1.775 0 2.276-.622 3.43-2.366l4.021-6.304h3.638l-4.704 7.309c-1.211 1.746-1.862 2.427-2.601 2.811.887.297 1.567 1.007 2.809 2.961l4.912 7.635h-3.61l-4.26-6.6zm20.195 3.58v3.02h-8.102v-3.02h2.454v-14.678h-2.454v-3.018h8.103v3.018h-2.456v14.677zm21.863 3.02v-14.739l-6.95 8.76-6.978-8.76v14.739h-3.193v-20.716h1.863l8.309 10.506 8.309-10.506h1.832v20.715zm12.84-7.665h5.854l-2.926-7.222-2.928 7.222zm-3.016 7.665h-3.518l8.545-20.716h1.863l8.456 20.716h-3.517l-1.863-4.647h-8.074l-1.892 4.647z" fill="#41354B" fill-rule="evenodd"/></svg>