<svg xmlns="http://www.w3.org/2000/svg" width="64" height="64" viewBox="0 0 64 64">
    <g fill="none" fill-rule="evenodd">
        <path fill="none" d="M0 0h64v64H0z"/>
        <g fill="#41354B">
            <path d="M16.118 39.059c-5.848 0-10.589-4.74-10.589-10.588 0-5.848 4.74-10.589 10.589-10.589h31.764c5.848 0 10.589 4.74 10.589 10.589 0 5.847-4.74 10.588-10.589 10.588-5.847 0-10.588-4.74-10.588-10.588 0-.975-.79-1.765-1.765-1.765h-7.058c-.975 0-1.765.79-1.765 1.765 0 5.847-4.74 10.588-10.588 10.588zm17.756-8.823c.869 6.964 6.81 12.352 14.008 12.352C55.68 42.588 62 36.268 62 28.471c0-7.797-6.32-14.118-14.118-14.118H16.118C8.32 14.353 2 20.673 2 28.47c0 7.797 6.32 14.117 14.118 14.117 7.203 0 13.146-5.395 14.01-12.353l3.746.001z"/>
            <path d="M48.765 5.53v10.588a1.765 1.765 0 0 0 3.53 0V5.529h2.646v14.118a1.765 1.765 0 1 0 3.53 0V5.53a1.765 1.765 0 1 0 0-3.529h-9.706a1.765 1.765 0 1 0 0 3.53zM36.412 46.117a6.176 6.176 0 0 0 12.353 0v-5.294a1.765 1.765 0 0 1 3.53 0v5.294c0 5.36-4.346 9.706-9.707 9.706-5.36 0-9.706-4.346-9.706-9.706h-2.647c0 6.822 5.53 12.353 12.353 12.353 6.823 0 12.353-5.531 12.353-12.353v-8.824a1.765 1.765 0 0 1 3.53 0v8.824C58.47 54.889 51.36 62 42.588 62c-8.771 0-15.882-7.11-15.882-15.882a1.765 1.765 0 0 1 0-3.53h9.706a1.765 1.765 0 1 1 0 3.53z"/>
        </g>
    </g>
</svg>
