<svg xmlns="http://www.w3.org/2000/svg" width="362" height="391" viewBox="0 0 362 391">
    <g fill="none" fill-rule="evenodd">
        <path fill="#D2E4C6" d="M20.417 330.4a3.603 3.603 0 0 1 2.556-1.49c2.607-.27 4.573-2.495 4.573-5.176 0-2.683-1.966-4.907-4.574-5.172a3.601 3.601 0 0 1-2.56-1.489 3.77 3.77 0 0 1-.631-2.94 47.555 47.555 0 0 1 6.702-16.518 3.616 3.616 0 0 1 2.48-1.62 3.56 3.56 0 0 1 2.838.793c2.027 1.69 4.957 1.538 6.815-.358a5.267 5.267 0 0 0 .346-6.96 3.761 3.761 0 0 1-.776-2.9 3.713 3.713 0 0 1 1.588-2.534A47.123 47.123 0 0 1 42 282.629a9.027 9.027 0 0 1-.666-2.629 42.07 42.07 0 0 0-14.897 6.312c2.795 3.495 2.597 8.659-.592 11.922a8.586 8.586 0 0 1-11.669.607A43.974 43.974 0 0 0 8 314.06c4.404.448 7.838 4.238 7.838 8.856 0 4.614-3.434 8.409-7.833 8.86A44.042 44.042 0 0 0 14.176 347a8.564 8.564 0 0 1 10.323-.52 47.604 47.604 0 0 1-4.713-13.143 3.765 3.765 0 0 1 .63-2.937M39.44 360.162a3.49 3.49 0 0 1 .82-2.844c1.754-2.03 1.595-4.959-.368-6.816-1.966-1.86-5.066-2.01-7.21-.352a3.992 3.992 0 0 1-4.053.476c.933 2.75.391 5.851-1.629 8.19A46.54 46.54 0 0 0 42.772 365a8.25 8.25 0 0 1 .228-1.24 51.57 51.57 0 0 1-1.88-1.115c-.906-.565-1.517-1.468-1.68-2.483"/>
        <path fill="#D9F4EF" d="M65.262 286c1.459 0 2.78-.73 3.738-1.92a39.144 39.144 0 0 0-9-4.08c.003.035.01.068.012.101.27 3.364 2.526 5.899 5.25 5.899M60 366c2.42-.833 4.76-1.94 7-3.289-.694-.455-1.476-.711-2.301-.711-2.078 0-3.874 1.617-4.699 4"/>
        <path fill="#D2E4C6" d="M49.548 305.069a17.9 17.9 0 0 1 3.97.448 21.473 21.473 0 0 1 11.526-3.348c9.876 0 18.239 6.684 20.943 15.831 1.44-1.842 3.58-3.096 6.013-3.342a44.067 44.067 0 0 0-4.022-11.462c-.38-.305-.752-.63-1.104-.987a12.76 12.76 0 0 1-1.808-2.325 8.709 8.709 0 0 1-11.098-1.126 9.016 9.016 0 0 1-2.502-7.522 12.34 12.34 0 0 1-6.422 1.79c-4.486 0-8.436-2.382-10.633-6.026a8.668 8.668 0 0 1-4.863 1.486 8.77 8.77 0 0 1-2.071-.247c-.45.225-.897.457-1.339.703 1.613 4.5.603 9.685-2.917 13.265-3.528 3.578-8.634 4.603-13.067 2.965A40.036 40.036 0 0 0 27 312.896a12.469 12.469 0 0 1 5.297 4.765c2.423-7.318 9.228-12.592 17.25-12.592"/>
        <path fill="#D2E4C6" d="M64.577 310c-1.077 0-2.126.123-3.136.348a18.15 18.15 0 0 1 5.82 13.348A18.157 18.157 0 0 1 60 338.247c1.44.486 2.977.753 4.577.753C72.53 339 79 332.495 79 324.5c0-7.996-6.47-14.5-14.423-14.5"/>
        <path fill="#D2E4C6" d="M73.97 347.754a8.735 8.735 0 0 1 11.791-.604A43.74 43.74 0 0 0 92 331.935 8.757 8.757 0 0 1 86.318 329c-2.287 9.729-10.953 16.988-21.272 16.988-5.042 0-9.687-1.736-13.39-4.643-.692.08-1.395.127-2.109.127-7.65 0-14.195-4.772-16.888-11.528A12.478 12.478 0 0 1 27 335.316a39.753 39.753 0 0 0 3.152 7.685c4.436-1.634 9.54-.61 13.066 2.952a12.642 12.642 0 0 1 3.098 12.637c1-.399 2.09-.617 3.231-.617 2.127 0 4.077.76 5.599 2.027a12.39 12.39 0 0 1 9.9-4.914c2.55 0 4.926.767 6.906 2.09-1.178-3.166-.505-6.877 2.019-9.422"/>
        <path fill="#D9F4EF" d="M291.304 26c.238 0 .469-.023.696-.066A38.614 38.614 0 0 0 288 24c.653 1.203 1.89 2 3.304 2"/>
        <path fill="#D2E4C6" d="M248.222 55.5c0 3.6-2.726 6.563-6.218 6.917.88 4.315 2.57 8.33 4.9 11.881a6.892 6.892 0 0 1 9.263.473c2.532 2.543 2.689 6.574.47 9.303A33.717 33.717 0 0 0 268.466 89c.073-.75.268-1.465.561-2.125a3.678 3.678 0 0 1 .238-4.315 3.274 3.274 0 0 0-.225-4.385 3.236 3.236 0 0 0-4.366-.228c-.801.658-1.84.947-2.865.789a3.651 3.651 0 0 1-2.5-1.61 37.593 37.593 0 0 1-5.43-13.164 3.694 3.694 0 0 1 .637-2.911 3.65 3.65 0 0 1 2.577-1.478 3.263 3.263 0 0 0 2.933-3.264 3.257 3.257 0 0 0-2.93-3.26 3.648 3.648 0 0 1-2.581-1.477 3.677 3.677 0 0 1-.637-2.913 37.523 37.523 0 0 1 5.432-13.167 3.657 3.657 0 0 1 2.5-1.607 3.64 3.64 0 0 1 2.862.787 3.242 3.242 0 0 0 4.37-.228 3.278 3.278 0 0 0 .223-4.387 3.683 3.683 0 0 1-.783-2.876c.122-.799.503-1.527 1.073-2.08a6.925 6.925 0 0 1-1.09-3.101 33.717 33.717 0 0 0-11.826 4.926 6.98 6.98 0 0 1-.471 9.307 6.9 6.9 0 0 1-9.263.473A33.997 33.997 0 0 0 242 48.587c3.496.35 6.222 3.309 6.222 6.913M279.662 41.901c2.97-2.318 6.666-3.695 10.669-3.695 7.187 0 13.384 4.437 16.166 10.794.48-.167.981-.282 1.503-.336a35.033 35.033 0 0 0-4.843-12.05 6.68 6.68 0 0 1-9.145-.48 7.081 7.081 0 0 1-1.883-3.714c-.586.103-1.184.163-1.798.163-3.938 0-7.382-2.226-9.16-5.583a29.09 29.09 0 0 0-4.576 1.959c1.04 3.668.13 7.755-2.65 10.626-.88.908-1.88 1.621-2.945 2.14a13.71 13.71 0 0 1 8.662.176M298 72.663A6.915 6.915 0 0 1 304.094 74 33.853 33.853 0 0 0 309 62.162a6.834 6.834 0 0 1-.944-.162A18.066 18.066 0 0 1 298 72.663"/>
        <path fill="#D2E4C6" d="M295.125 74.508A6.964 6.964 0 0 1 297 73.2c-1.782.571-3.68.884-5.654.884a18.34 18.34 0 0 1-12.4-4.792c-1.05.238-2.144.367-3.269.367-4.734 0-8.939-2.223-11.583-5.66A10.693 10.693 0 0 1 262 65.476a29.464 29.464 0 0 0 1.946 4.6 10.844 10.844 0 0 1 10.576 2.666c2.725 2.667 3.697 6.412 2.853 9.853a7.045 7.045 0 0 1 3.494 2.044c.356.126.713.248 1.075.361 1.825-3.267 5.361-5.435 9.402-5.435.591 0 1.17.052 1.735.14a6.756 6.756 0 0 1 2.043-5.197"/>
        <path fill="#D9F4EF" d="M270 42.028a10.448 10.448 0 0 1-6.009-.028A33.17 33.17 0 0 0 262 47.026c.5.285.97.614 1.417.974 1.566-2.62 3.86-4.712 6.583-5.972"/>
        <path fill="#D2E4C6" d="M302 57c0-6.065-4.798-11-10.696-11-1.533 0-2.992.337-4.313.938a14.975 14.975 0 0 1 3.15 9.23c0 4.045-1.581 7.709-4.141 10.377A10.4 10.4 0 0 0 291.304 68C297.202 68 302 63.065 302 57"/>
        <path fill="#D2E4C6" d="M303.716 221.638h-36.393a3.66 3.66 0 0 1-3.662-3.657 3.66 3.66 0 0 1 3.662-3.658h36.393a3.66 3.66 0 0 1 3.662 3.658 3.66 3.66 0 0 1-3.662 3.657zm8.588-24.314c-3.566-36-24.449-66.914-54.211-84.324 5.728 13.637 8.898 28.602 8.898 44.292 0 63.324-51.58 114.84-114.98 114.84-8.587 0-16.956-.948-25.011-2.739l27.423 66.836c.18.44.273.91.273 1.386V383h108.267v-47.348l11.904.074a3.66 3.66 0 0 1 3.586-2.924h.023l29.053.175 5.317-57.166h11.922a3.661 3.661 0 0 1 3.57-2.852H338l-25.696-75.633v-.002z" opacity=".735"/>
        <path fill="#D2E4C6" d="M118.755 267.775c-2.08-.64-4.133-1.336-6.16-2.088A111.077 111.077 0 0 1 106 264l30.175 73.2V386H148v-47.281l-29.245-70.944M165 265c53.424-6.28 95-51.66 95-106.53 0-17.91-4.432-34.806-12.256-49.664a109.62 109.62 0 0 0-6.142-2.517c-2.24-.5-4.5-.932-6.777-1.289 8.274 15.246 13.075 32.637 13.327 51.124 3.483 2.459 5.76 6.5 5.76 11.065 0 5.447-3.242 10.152-7.904 12.306a110.008 110.008 0 0 1-15.06 37.44c.006.148.012.297.012.446 0 6.29-4.323 11.592-10.165 13.116C206.314 247.054 186.98 259.287 165 265"/>
        <path fill="#D2E4C6" d="M70.042 153.736a3.656 3.656 0 0 1-3.655 3.658 3.656 3.656 0 0 1-3.654-3.658c0-23.213 9.02-45.025 25.4-61.418 16.38-16.392 38.175-25.42 61.37-25.42a3.656 3.656 0 0 1 3.655 3.658 3.656 3.656 0 0 1-3.655 3.657c-21.243 0-41.202 8.267-56.201 23.278-15 15.01-23.26 34.986-23.26 56.245zm30.692 98.17c-5.417-13.04-8.409-27.347-8.409-42.352 0-49.928 33.123-92.108 78.576-105.751a109.88 109.88 0 0 1 18.616-3.866 113.69 113.69 0 0 1 28.581-3.632c3.996 0 7.967.216 11.902.627-12.82-19.612-31.661-34.925-53.9-43.303A107.324 107.324 0 0 0 152.438 51C93.197 51 45 99.234 45 158.522c0 40.726 22.742 76.236 56.183 94.478l-.386-.942c-.02-.053-.043-.103-.063-.153z" opacity=".735"/>
        <path fill="#D2E4C6" d="M37.822 158.612C37.822 105.485 74.496 60.714 124 48c-55.195 6.512-98 53.19-98 109.81 0 50.33 33.825 92.801 80.109 106.19l-.501-1.213c-39.929-17.918-67.786-57.874-67.786-104.175M200.047 206.258C195.441 207.273 192 211.244 192 216c0 5.523 4.635 9.999 10.356 9.999a10.6 10.6 0 0 0 4.712-1.096c-1.727-2.267-2.752-5.067-2.752-8.092 0-3.536 1.396-6.762 3.684-9.192a10.565 10.565 0 0 0-5.644-1.62c-.795 0-1.566.095-2.309.258"/>
        <path fill="#D9F4EF" d="M211.775 215a7.79 7.79 0 0 0-.325 6c.355-1.157.55-2.384.55-3.654 0-.803-.08-1.584-.225-2.346"/>
        <path fill="#D2E4C6" d="M226.274 177a9.944 9.944 0 0 0 4.726-1.195 15.123 15.123 0 0 1-2.232-4.805H217c1.708 3.558 5.217 6 9.274 6M219 157.002V162h8.082a13.503 13.503 0 0 1 2.918-5.411 9.353 9.353 0 0 0-11 .413M163.62 248a9.694 9.694 0 0 0 4.38-1.04 12.848 12.848 0 0 1-2.069-4.18h-5.738c-1.956 0-3.542-1.563-3.542-3.49V232c-1.64 1.699-2.651 3.99-2.651 6.521 0 5.235 4.307 9.479 9.62 9.479"/>
        <path fill="#D9F4EF" d="M163 236h2.568c.654-2.04 1.843-3.887 3.432-5.414-1.73-.985-3.788-1.564-6-1.586v7M122 218.804a15.624 15.624 0 0 1-2.098-4.804H112c.042 1.405.106 2.805.193 4.201 1.54 1.136 3.383 1.799 5.366 1.799 1.6 0 3.109-.432 4.441-1.196M112.327 200.536A105.613 105.613 0 0 0 112 206h7.99a13.402 13.402 0 0 1 3.01-5.41 9.852 9.852 0 0 0-5.379-1.59 9.848 9.848 0 0 0-5.294 1.536"/>
        <path fill="#414042" d="M102.946 335.275a39.045 39.045 0 0 1-3.144 7.587 12.38 12.38 0 0 0-13.025 2.913 12.384 12.384 0 0 0-2.916 13.028 39.132 39.132 0 0 1-7.584 3.144 12.37 12.37 0 0 0-4.389-5.09A12.442 12.442 0 0 0 65 354.793a12.4 12.4 0 0 0-11.273 7.156 38.98 38.98 0 0 1-7.586-3.146c.067-.182.121-.366.179-.55 1.338-4.29.279-9.108-3.09-12.477a12.396 12.396 0 0 0-13.032-2.914 39.022 39.022 0 0 1-3.144-7.587 12.392 12.392 0 0 0 5.644-5.303 12.443 12.443 0 0 0 1.513-5.97c0-2.42-.684-4.68-1.877-6.595a12.373 12.373 0 0 0-5.283-4.68 38.983 38.983 0 0 1 3.146-7.586 12.414 12.414 0 0 0 13.035-2.913 12.41 12.41 0 0 0 2.91-13.028c.44-.242.886-.47 1.335-.69a38.888 38.888 0 0 1 6.25-2.458A12.397 12.397 0 0 0 65 293.212c2.338-.001 4.531-.64 6.405-1.76a12.38 12.38 0 0 0 4.872-5.399c2.634.78 5.17 1.832 7.583 3.145a12.382 12.382 0 0 0 1.11 10.75c.503.811 1.1 1.579 1.804 2.282.351.352.721.67 1.101.97a12.377 12.377 0 0 0 11.927 1.94 39.007 39.007 0 0 1 3.146 7.587 12.395 12.395 0 0 0-7.156 11.274 12.4 12.4 0 0 0 7.153 11.274zm1.224 14.498a46.4 46.4 0 0 0 6.75-16.296 3.652 3.652 0 0 0-3.213-4.369 5.112 5.112 0 0 1-4.605-5.107 5.105 5.105 0 0 1 4.606-5.103 3.652 3.652 0 0 0 3.218-4.37 46.364 46.364 0 0 0-6.758-16.298 3.652 3.652 0 0 0-5.361-.816 5.108 5.108 0 0 1-6.864-.352 5.108 5.108 0 0 1-.353-6.866 3.653 3.653 0 0 0-.817-5.365 46.47 46.47 0 0 0-16.293-6.755 3.652 3.652 0 0 0-4.373 3.217 5.122 5.122 0 0 1-5.107 4.61 5.105 5.105 0 0 1-5.102-4.61c-.002-.026-.009-.052-.012-.08a3.655 3.655 0 0 0-1.457-2.501 3.657 3.657 0 0 0-2.9-.637 46.31 46.31 0 0 0-14.053 5.368c-.758.442-1.508.902-2.245 1.388a3.656 3.656 0 0 0-.818 5.363 5.115 5.115 0 0 1-.35 6.867 5.117 5.117 0 0 1-6.87.353 3.652 3.652 0 0 0-5.361.816 46.364 46.364 0 0 0-6.758 16.298 3.657 3.657 0 0 0 3.218 4.37 5.107 5.107 0 0 1 4.61 5.103 5.114 5.114 0 0 1-4.61 5.107 3.652 3.652 0 0 0-3.213 4.369 46.325 46.325 0 0 0 4.752 12.968 47.116 47.116 0 0 0 2 3.328c.375.57.9 1.013 1.505 1.296.313.147.647.252.995.306a3.65 3.65 0 0 0 2.865-.785 5.108 5.108 0 0 1 6.866.354 5.107 5.107 0 0 1 .351 6.863 3.654 3.654 0 0 0 .818 5.363 48.6 48.6 0 0 0 1.79 1.123c4.5 2.688 9.37 4.58 14.507 5.633a3.664 3.664 0 0 0 2.9-.637 3.655 3.655 0 0 0 1.47-2.58 5.115 5.115 0 0 1 .453-1.647 5.106 5.106 0 0 1 4.65-2.96c.816 0 1.589.19 2.276.527a5.095 5.095 0 0 1 2.83 4.08 3.652 3.652 0 0 0 4.373 3.215 46.456 46.456 0 0 0 16.293-6.754 3.653 3.653 0 0 0 .817-5.365 5.1 5.1 0 0 1 .355-6.863 5.1 5.1 0 0 1 6.86-.352c.8.656 1.841.941 2.864.785a3.658 3.658 0 0 0 2.5-1.602z"/>
        <path fill="#414042" d="M66 337.628a14.55 14.55 0 0 1-4.642-.76c-5.796-1.944-9.986-7.424-9.986-13.868 0-6.973 4.906-12.819 11.447-14.277a14.715 14.715 0 0 1 3.181-.35c8.066 0 14.628 6.56 14.628 14.627 0 8.065-6.562 14.628-14.628 14.628zM66 301a21.852 21.852 0 0 0-11.597 3.317C48.163 308.203 44 315.123 44 323c0 7.058 3.345 13.348 8.53 17.376A21.88 21.88 0 0 0 66 345c10.381 0 19.1-7.23 21.4-16.917a21.924 21.924 0 0 0-.33-11.398C84.353 307.621 75.938 301 66.002 301zM279.327 56c0-4.353 2.621-8.103 6.368-9.762a10.605 10.605 0 0 1 4.304-.91c5.886 0 10.674 4.787 10.674 10.672 0 5.885-4.788 10.673-10.674 10.673-1.925 0-3.732-.516-5.293-1.412-3.21-1.842-5.379-5.302-5.379-9.26zm16.264 17.107c.449-.148.894-.31 1.328-.491a18.096 18.096 0 0 0 10.071-10.682A17.907 17.907 0 0 0 308 56c0-2.628-.57-5.124-1.587-7.377C303.589 42.367 297.297 38 289.999 38a17.9 17.9 0 0 0-10.832 3.636C274.817 44.926 272 50.14 272 56c0 5.19 2.211 9.87 5.736 13.158 3.217 3 7.529 4.842 12.263 4.842 1.953 0 3.83-.316 5.592-.893z"/>
        <path fill="#414042" d="M271.66 41.504c1.093-.51 2.119-1.21 3.022-2.1 2.852-2.82 3.787-6.83 2.72-10.43a30.598 30.598 0 0 1 4.695-1.923c1.825 3.295 5.36 5.48 9.401 5.48.63 0 1.245-.059 1.845-.16 3.256-.553 6.019-2.537 7.56-5.319 1.62.51 3.186 1.152 4.696 1.921-1.07 3.602-.135 7.613 2.723 10.433a10.782 10.782 0 0 0 10.57 2.684 29.58 29.58 0 0 1 1.949 4.635c-3.338 1.8-5.552 5.288-5.552 9.275 0 3.986 2.212 7.474 5.548 9.276a29.65 29.65 0 0 1-1.946 4.634 10.77 10.77 0 0 0-10.567 2.687c-2.86 2.817-3.796 6.828-2.725 10.43-1.51.769-3.079 1.41-4.696 1.921-1.56-2.81-4.368-4.808-7.67-5.333a11.037 11.037 0 0 0-1.735-.142c-4.039 0-7.574 2.184-9.399 5.476a29.901 29.901 0 0 1-1.074-.363 30.634 30.634 0 0 1-3.623-1.56c.05-.165.09-.332.13-.5.843-3.468-.128-7.24-2.852-9.928a10.782 10.782 0 0 0-10.573-2.687 29.815 29.815 0 0 1-1.946-4.634 10.69 10.69 0 0 0 2.094-1.487 10.479 10.479 0 0 0 3.458-7.79c0-3.405-1.617-6.441-4.167-8.378a10.607 10.607 0 0 0-1.386-.898 29.577 29.577 0 0 1 1.947-4.634c1.924.555 3.961.556 5.877.025.57-.158 1.132-.359 1.675-.611zm-1.99-11.635a3.22 3.22 0 0 1-.225 4.367 3.33 3.33 0 0 1-4.43.227 3.737 3.737 0 0 0-5.434.816 36.986 36.986 0 0 0-5.505 13.106 3.61 3.61 0 0 0 .645 2.9 3.712 3.712 0 0 0 2.616 1.47c1.692.166 2.97 1.561 2.97 3.245 0 1.684-1.278 3.081-2.972 3.25a3.714 3.714 0 0 0-2.612 1.47 3.626 3.626 0 0 0-.645 2.898 37.055 37.055 0 0 0 5.503 13.104 3.707 3.707 0 0 0 2.534 1.602 3.732 3.732 0 0 0 2.903-.785 3.324 3.324 0 0 1 4.425.227 3.216 3.216 0 0 1 .228 4.365 3.618 3.618 0 0 0-.241 4.295c.274.42.638.785 1.07 1.067a38.088 38.088 0 0 0 13.282 5.432 3.74 3.74 0 0 0 2.938-.637 3.635 3.635 0 0 0 1.49-2.58c.169-1.669 1.583-2.927 3.288-2.927 1.71 0 3.125 1.259 3.295 2.928a3.643 3.643 0 0 0 1.49 2.58 3.744 3.744 0 0 0 2.94.636 38.179 38.179 0 0 0 13.28-5.432 3.645 3.645 0 0 0 1.621-2.5 3.614 3.614 0 0 0-.794-2.864 3.213 3.213 0 0 1 .231-4.365 3.319 3.319 0 0 1 4.42-.225 3.736 3.736 0 0 0 5.438-.817 37.085 37.085 0 0 0 5.502-13.104 3.619 3.619 0 0 0-.646-2.898 3.714 3.714 0 0 0-2.612-1.47 3.268 3.268 0 0 1-2.968-3.25 3.263 3.263 0 0 1 2.968-3.245 3.715 3.715 0 0 0 2.616-1.47 3.615 3.615 0 0 0 .645-2.9 37.024 37.024 0 0 0-5.507-13.106 3.737 3.737 0 0 0-5.435-.817 3.324 3.324 0 0 1-4.423-.224 3.216 3.216 0 0 1-.23-4.367c.665-.8.954-1.84.795-2.863a3.646 3.646 0 0 0-1.62-2.5 38.178 38.178 0 0 0-13.28-5.433 3.744 3.744 0 0 0-2.94.635 3.645 3.645 0 0 0-1.491 2.581 3.265 3.265 0 0 1-2.688 2.878c-.198.035-.4.054-.607.054a3.3 3.3 0 0 1-2.877-1.653 3.255 3.255 0 0 1-.412-1.278 3.636 3.636 0 0 0-1.489-2.58 3.739 3.739 0 0 0-2.938-.637 38.088 38.088 0 0 0-13.281 5.432 3.68 3.68 0 0 0-.536.428 3.629 3.629 0 0 0-1.087 2.071 3.619 3.619 0 0 0 .793 2.863zM337.883 273.934h-9.66a3.658 3.658 0 0 0-3.646 3.313l-5.279 56.628-11.877-.071-29.046-.175h-.022c-.967 0-1.894.38-2.58 1.06a3.648 3.648 0 0 0-1.081 2.589v46.425H154.63V338.43c0-.474-.093-.943-.274-1.382l-27.414-66.67a115.324 115.324 0 0 0 25.003 2.731c63.382 0 114.948-51.388 114.948-114.554 0-15.652-3.169-30.58-8.896-44.183-.47-1.118-.959-2.228-1.464-3.328a106.705 106.705 0 0 1 33.12 20.492c19.567 17.768 31.775 41.944 34.38 68.078.025.289.086.576.18.853l25.015 73.467h-11.346zm-97.997-110.31h-5.1a6.283 6.283 0 0 1 5.1-2.61c3.462 0 6.28 2.807 6.28 6.259 0 3.452-2.818 6.26-6.28 6.26a6.283 6.283 0 0 1-5.1-2.612h5.1a3.655 3.655 0 0 0 3.661-3.648 3.655 3.655 0 0 0-3.66-3.649zm-22.937 55.757a3.654 3.654 0 0 0 3.661-3.648v-3.357a6.246 6.246 0 0 1 2.62 5.08c0 3.453-2.817 6.261-6.28 6.261a6.289 6.289 0 0 1-5.95-4.26 6.19 6.19 0 0 1 .24-4.603 6.302 6.302 0 0 1 2.048-2.48v3.359a3.654 3.654 0 0 0 3.661 3.648zm-39.422 17.209h-5.099a6.285 6.285 0 0 1 5.1-2.612c3.463 0 6.281 2.808 6.281 6.26s-2.818 6.26-6.282 6.26a6.285 6.285 0 0 1-5.099-2.611h5.1a3.656 3.656 0 0 0 3.66-3.649 3.656 3.656 0 0 0-3.66-3.648zm-45.436-29.974h-5.099a6.283 6.283 0 0 1 5.1-2.61c3.463 0 6.28 2.808 6.28 6.258 0 3.452-2.817 6.26-6.28 6.26a6.28 6.28 0 0 1-5.1-2.611h5.1a3.654 3.654 0 0 0 3.66-3.649 3.655 3.655 0 0 0-3.66-3.648zm-12.993 44.682l-.078-.185a105.24 105.24 0 0 1-7.885-33.379c-.087-1.27-.153-2.544-.196-3.821h8.054a13.486 13.486 0 0 0 2.138 4.369 13.606 13.606 0 0 0 10.96 5.54c7.501 0 13.604-6.082 13.604-13.558 0-7.475-6.103-13.556-13.604-13.556a13.59 13.59 0 0 0-10.066 4.448 13.53 13.53 0 0 0-3.032 5.46h-8.052c.063-1.85.173-3.69.33-5.515 1-11.644 3.89-22.76 8.36-33.041h35.207v72.178a3.655 3.655 0 0 0 3.661 3.649h5.93a13.49 13.49 0 0 0 2.138 4.37 13.607 13.607 0 0 0 10.96 5.54c7.501 0 13.604-6.083 13.604-13.559 0-7.475-6.103-13.558-13.604-13.558a13.597 13.597 0 0 0-10.066 4.449 13.55 13.55 0 0 0-3.032 5.46h-2.269v-72.178a3.655 3.655 0 0 0-3.66-3.648h-35.358a107.23 107.23 0 0 1 24.488-30.797h34.635v66.064a3.656 3.656 0 0 0 3.662 3.649h27.361v4.723a13.636 13.636 0 0 0-6.405 3.947 13.474 13.474 0 0 0-3.538 9.108c0 2.998.985 5.771 2.643 8.018a13.608 13.608 0 0 0 14.407 5.097c5.837-1.524 10.157-6.825 10.157-13.115 0-.15-.006-.298-.011-.445-.196-6.016-4.34-11.049-9.93-12.61v-8.372a3.656 3.656 0 0 0-3.662-3.649h-27.361v-62.415h21.481v37.307a3.654 3.654 0 0 0 3.66 3.648h12.058a13.448 13.448 0 0 0 2.138 4.37 13.607 13.607 0 0 0 16.664 4.285c4.659-2.153 7.9-6.857 7.9-12.303 0-4.564-2.276-8.605-5.757-11.064a13.554 13.554 0 0 0-7.846-2.493 13.591 13.591 0 0 0-10.066 4.448 13.51 13.51 0 0 0-3.033 5.46h-8.397v-37.307a3.654 3.654 0 0 0-3.661-3.648h-25.141v-15.135a106.966 106.966 0 0 1 28.132-3.746 107.646 107.646 0 0 1 29.003 3.984c.203.374.404.75.602 1.126 7.818 14.855 12.246 31.75 12.246 49.657 0 54.862-41.546 100.235-94.932 106.514-4.164.49-8.399.743-12.693.743a107.74 107.74 0 0 1-28.445-3.803l-4.403-10.71zm63.167-141.485v12.856h-25.224a106.759 106.759 0 0 1 25.224-12.856zM100.603 252.8c-33.5-18.197-56.28-53.62-56.28-94.245 0-59.142 48.28-107.258 107.623-107.258 8.142 0 16.074.908 23.703 2.623 27.255 6.129 50.626 22.593 65.731 45.027a114.582 114.582 0 0 0-11.738-1.831c-3.941-.41-7.92-.625-11.922-.625a114.34 114.34 0 0 0-32.633 4.735c-.15.035-.298.08-.442.134a114.185 114.185 0 0 0-40.352 21.85c-.325.2-.616.447-.864.734-12.34 10.562-22.398 23.7-29.325 38.571a3.609 3.609 0 0 0-.367.794c-6.538 14.322-10.182 30.223-10.182 46.955 0 15.119 2.928 29.803 8.693 43.622l.043.103.024.059 2.065 5.022a107.454 107.454 0 0 1-13.777-6.27zm256.71 26.908a3.635 3.635 0 0 0 .493-3.298l-26.524-77.895c-2.863-27.785-15.884-53.475-36.697-72.372a114.008 114.008 0 0 0-42.92-24.525C231.81 67.215 194.547 44 151.946 44c-9.92 0-19.55 1.26-28.74 3.625C73.686 60.375 37 105.275 37 158.555c0 46.434 27.867 86.505 67.808 104.474a114.914 114.914 0 0 0 13.256 5.001l29.245 71.119v48.202a3.655 3.655 0 0 0 3.66 3.649h127.384a3.654 3.654 0 0 0 3.661-3.649v-46.403l40.597.245h.024a3.656 3.656 0 0 0 3.645-3.31l5.28-56.651h22.778c1.18 0 2.29-.566 2.975-1.524z"/>
        <path fill="#414042" d="M305.314 216h-36.628c-2.035 0-3.686 1.791-3.686 4s1.65 4 3.686 4h36.628c2.035 0 3.686-1.791 3.686-4s-1.65-4-3.686-4M150.322 74.356a3.678 3.678 0 0 0 0-7.356c-23.343 0-45.276 9.078-61.76 25.562C72.078 109.046 63 130.979 63 154.322a3.678 3.678 0 1 0 7.356 0c0-21.378 8.313-41.464 23.408-56.559 15.094-15.094 35.18-23.407 56.558-23.407M3.724 245.224h11.052v11.052a3.723 3.723 0 1 0 7.448 0v-11.052h11.052a3.725 3.725 0 0 0 0-7.448H22.224v-11.052a3.723 3.723 0 1 0-7.448 0v11.052H3.724a3.725 3.725 0 0 0 0 7.448M207.69 15.69h4.621v4.62a3.689 3.689 0 1 0 7.378 0v-4.62h4.621a3.69 3.69 0 0 0 0-7.38h-4.621V3.69a3.69 3.69 0 1 0-7.378 0v4.62h-4.621a3.69 3.69 0 0 0 0 7.38M341.69 143.69h4.621v4.62a3.689 3.689 0 1 0 7.378 0v-4.62h4.621a3.69 3.69 0 0 0 0-7.38h-4.621v-4.62a3.69 3.69 0 1 0-7.378 0v4.62h-4.621a3.69 3.69 0 0 0 0 7.38"/>
    </g>
</svg>
