<svg xmlns="http://www.w3.org/2000/svg" width="64" height="64" viewBox="0 0 64 64">
    <g fill="none" fill-rule="evenodd">
        <path fill="none" d="M0 0h64v64H0z"/>
        <path fill="#41354B" d="M58.888 57.384c0 .826-.678 1.508-1.509 1.508h-5.087V19.258l1.822-2.8.42 1.804c.115.49.548.817 1.028.817l.245-.028c.567-.13.917-.701.784-1.268l-.978-4.212a1.066 1.066 0 0 0-1.278-.788l-4.206.987c-.568.129-.918.696-.789 1.264.134.567.706.917 1.273.788l1.642-.383-1.91 2.925-10.317 15.83-10.009-6.163-.005-.01L29.96 28l-.023-.014-.032-.014-.028-.018-.05-.019-.125-.037h-.01l-.041-.009-.028-.01-.106-.004-.097-.004-.032.004-.046.005-.05.01-.07.008-.097.033-.05.018-.051.019-.065.036-.115.07-.01.004-5.622 4.165v.005l-10.88 8.067-.17.161-.038.05-.092.14-.032.068-.056.143-.018.079-.019.152-.004.055v17.73h-6.79v-3.38h2.353a1.056 1.056 0 1 0 0-2.113H5.112v-3.505h2.353a1.056 1.056 0 1 0 0-2.112H5.112V44.23h2.353a1.056 1.056 0 1 0 0-2.113H5.112v-3.491h2.353a1.056 1.056 0 1 0 0-2.113H5.112V33.06h2.353a1.059 1.059 0 0 0 0-2.117H5.112v-3.524h2.353a1.055 1.055 0 0 0 0-2.108H5.112v-3.45h2.353a1.055 1.055 0 1 0 0-2.112H5.112v-3.566h2.353a1.056 1.056 0 1 0 0-2.112H5.112V10.6h2.353a1.056 1.056 0 1 0 0-2.112H5.112V5.112H57.38c.83 0 1.509.678 1.509 1.509v50.763zm-8.713 1.508h-3.51V27.874l3.51-5.378v36.396zm-5.623 0h-3.145V35.946l3.145-4.83v27.776zm-5.258 0h-3.51V34.138l3.51 2.094v22.66zm-5.622 0h-3.155V30.817l3.155 1.942v26.133zm-5.263 0h-3.514V33.626l3.514-2.602v27.868zm-5.627 0h-3.145V37.528l3.145-2.339v23.703zm-5.258 0h-3.51v-17.2l3.51-2.596v19.796zM57.38 3H4.056C3.476 3 3 3.47 3 4.056v55.888C3 60.524 3.475 61 4.056 61H57.38A3.623 3.623 0 0 0 61 57.384V6.62A3.624 3.624 0 0 0 57.38 3z"/>
    </g>
</svg>
