<svg xmlns="http://www.w3.org/2000/svg" width="64" height="64" viewBox="0 0 64 64">
    <g fill="none" fill-rule="evenodd">
        <path fill="none" d="M0 0h64v64H0z"/>
        <g fill="#41354B">
            <path d="M31.46 41.153a16.613 16.613 0 0 0 2.594-3.423h2.54a12.577 12.577 0 0 1-5.133 3.423zm-3.052-.04V37.73h3.231a14.703 14.703 0 0 1-3.231 3.383zm-5.072-3.383h3.03v3.155a14.828 14.828 0 0 1-3.03-3.155zm-5.205 0H20.9a16.872 16.872 0 0 0 2.834 3.579 12.504 12.504 0 0 1-5.602-3.579zm5.486-20.237a16.866 16.866 0 0 0-2.767 3.56h-2.728a12.485 12.485 0 0 1 5.495-3.56zm2.75.316v3.245h-3.093a14.72 14.72 0 0 1 3.093-3.245zm5.17 3.245h-3.129v-3.272a14.808 14.808 0 0 1 3.129 3.272zm5.098 0h-2.679a16.535 16.535 0 0 0-2.736-3.534 12.473 12.473 0 0 1 5.415 3.534zm-.437 7.308a16.526 16.526 0 0 0-1.225-5.267h3.155a12.324 12.324 0 0 1 1.68 5.267h-3.61zm-7.79 2.042h5.758a14.421 14.421 0 0 1-1.355 5.28h-4.403v-5.28zm-7.759 0h5.718v5.28h-4.27a14.078 14.078 0 0 1-1.448-5.28zm7.759-7.31h4.327a14.566 14.566 0 0 1 1.418 5.268h-5.745v-5.267zm-2.041 5.268h-5.709a14.477 14.477 0 0 1 1.417-5.267h4.292v5.267zm-9.738-5.267h3.209a16.526 16.526 0 0 0-1.226 5.267h-3.658a12.38 12.38 0 0 1 1.675-5.267zm-1.675 7.309h3.65a15.997 15.997 0 0 0 1.247 5.28h-3.208a12.371 12.371 0 0 1-1.69-5.28zm23.152 5.28h-3.067a16.433 16.433 0 0 0 1.168-5.28h3.6a12.285 12.285 0 0 1-1.701 5.28zM27.423 14.873h-.04c-5.067 0-9.524 2.612-12.122 6.552l-.16.271a14.352 14.352 0 0 0-2.229 7.688c0 2.817.816 5.437 2.215 7.665l.219.361c2.602 3.904 7.041 6.485 12.077 6.485l.134-.01.067-.013.066.014h.023c7.839-.156 14.22-6.663 14.22-14.502 0-7.977-6.493-14.484-14.47-14.51z"/>
            <path d="M50.837 32.22l-7.774 1.238-.81.683a17.306 17.306 0 0 1-.853 2.061l.09 1.064 4.62 6.372a23.085 23.085 0 0 1-2.086 2.389 23.421 23.421 0 0 1-2.386 2.088l-6.372-4.625-1.06-.09c-.611.31-1.272.575-2.072.858l-.678.812-1.236 7.769a23.879 23.879 0 0 1-6.327.004l-1.24-7.773-.683-.817a15.849 15.849 0 0 1-2.068-.853l-1.06.094-6.372 4.62a24.074 24.074 0 0 1-2.39-2.092 23.236 23.236 0 0 1-2.086-2.384l4.624-6.372.09-1.055a17.448 17.448 0 0 1-.854-2.065l-.817-.688-7.765-1.239a23.706 23.706 0 0 1 0-6.331l7.769-1.235.818-.692a17.07 17.07 0 0 1 .845-2.07l-.086-1.055-4.624-6.367a24.229 24.229 0 0 1 2.085-2.384 23.184 23.184 0 0 1 2.395-2.088l6.363 4.616 1.06.09a17.098 17.098 0 0 1 2.068-.854l.688-.808 1.24-7.773a24.07 24.07 0 0 1 6.327-.009l1.236 7.782.696.813c.688.229 1.38.516 2.054.853l1.06-.094 6.377-4.621a23.458 23.458 0 0 1 2.381 2.084 25.458 25.458 0 0 1 2.085 2.388l-4.62 6.372-.09 1.055c.333.687.626 1.383.85 2.07l.814.692 7.778 1.235a23.894 23.894 0 0 1-.004 6.331zm1.923-7.392a1.02 1.02 0 0 0-.85-.853l-7.917-1.257-.481-1.168 4.714-6.488v-1.213a28.337 28.337 0 0 0-2.746-3.228 26.389 26.389 0 0 0-3.226-2.74h-1.21l-6.492 4.71-1.16-.475-1.258-7.921a1.02 1.02 0 0 0-.85-.849 25.85 25.85 0 0 0-8.46.005 1.015 1.015 0 0 0-.846.848l-1.262 7.917-1.164.476-6.484-4.71h-1.205a26.395 26.395 0 0 0-3.235 2.748c-.989.979-1.91 2.07-2.746 3.233l.005 1.203 4.71 6.484-.482 1.168-7.917 1.257a1.035 1.035 0 0 0-.85.853 26.168 26.168 0 0 0-.009 8.455c.077.44.423.777.854.849l7.922 1.257.481 1.163-4.714 6.489v1.208a26.07 26.07 0 0 0 2.741 3.233c.971.965 2.063 1.895 3.231 2.743h1.21l6.497-4.714 1.155.484 1.262 7.917c.068.44.414.781.85.853a26.231 26.231 0 0 0 8.457-.004 1.03 1.03 0 0 0 .85-.854l1.257-7.916c.418-.157.8-.314 1.16-.48l6.488 4.71 1.2.004a25.783 25.783 0 0 0 3.24-2.743 25.99 25.99 0 0 0 2.746-3.242l-.005-1.204-4.71-6.484c.167-.363.324-.754.477-1.163l7.914-1.257c.444-.072.786-.409.853-.844.468-2.811.468-5.658.005-8.46z"/>
            <path d="M63 31.253l-2.717-2.661-.918-.528-.593.173-.195.15-2.842 2.789v1.478h1.498l.945-.932c-1.358 15.24-14.423 27.237-30.302 27.237H2.052C1.468 58.959 1 59.423 1 60c0 .578.468 1.042 1.052 1.042h25.824c17.094 0 31.15-13.007 32.444-29.472l1.178 1.156.75.305.752-.305v-1.474"/>
        </g>
    </g>
</svg>
