<svg xmlns="http://www.w3.org/2000/svg" width="64" height="64" viewBox="0 0 64 64">
    <g fill="none" fill-rule="evenodd">
        <path fill="none" d="M0 0h64v64H0z"/>
        <g fill="#41354B">
            <path d="M13.538 29.107l.022.093 15.232-.049-15.254-.044"/>
            <path d="M13.56 30.207c-.466 0-.866-.317-.976-.761l-.022-.097.18-.866.796-.383 15.254.044c.55.005 1.007.453 1.007 1.007a1.02 1.02 0 0 1-1.007 1.012l-15.232.044M34.424 56.831a1.818 1.818 0 0 0 0 3.637 1.82 1.82 0 0 0 0-3.636zm0 5.646a3.83 3.83 0 0 1 0-7.66c2.111 0 3.83 1.72 3.83 3.83 0 2.115-1.719 3.83-3.83 3.83zM23.155 56.831a1.82 1.82 0 0 0 0 3.637 1.82 1.82 0 0 0 0-3.636zm0 5.646a3.833 3.833 0 0 1-3.83-3.83c0-2.11 1.719-3.83 3.83-3.83a3.83 3.83 0 1 1 0 7.66z"/>
            <path d="M38.668 52.412H17.385l-6.969-27.75-.026-.07-.036-.097-.044-.088-.052-.084-.053-.066-.084-.083-.048-.044-.101-.08-.049-.021-.131-.057-.053-.022-.132-.031-.07-.009-.097-.013H.487c-.554 0-1.007.457-1.007 1.011 0 .559.453 1.007 1.007 1.007h8.166l6.97 27.746c.114.449.518.765.975.765h22.07a1.01 1.01 0 0 0 1.007-1.007c0-.558-.449-1.007-1.007-1.007M47.363 19.667c-1.26 0-2.443.492-3.335 1.38-1.837 1.842-1.841 4.838 0 6.675a4.696 4.696 0 0 0 3.335 1.385c1.26 0 2.447-.497 3.335-1.385a4.682 4.682 0 0 0 1.381-3.335 4.701 4.701 0 0 0-1.38-3.34 4.692 4.692 0 0 0-3.336-1.38zm0 11.285a6.508 6.508 0 0 1-4.643-1.926c-2.56-2.56-2.56-6.723 0-9.287a6.533 6.533 0 0 1 4.643-1.918c1.757 0 3.404.683 4.64 1.918a6.524 6.524 0 0 1 1.926 4.648 6.521 6.521 0 0 1-1.926 4.643 6.504 6.504 0 0 1-4.64 1.922zm-1.417 6.11c.945.105 1.894.105 2.835-.004l.633-3.974.606-.73c.42-.146.775-.291 1.09-.449l.953.077 3.267 2.366c.367-.29.719-.61 1.05-.94.335-.332.654-.687.949-1.058l-2.366-3.26-.085-.96c.165-.323.315-.674.452-1.082l.727-.614 3.985-.634c.101-.94.101-1.89 0-2.826l-3.985-.634-.731-.622-.448-1.082.085-.953 2.366-3.263a12.07 12.07 0 0 0-.95-1.062 13.202 13.202 0 0 0-1.049-.937l-3.267 2.366-.949.081-1.082-.444-.618-.735-.63-3.977a12.831 12.831 0 0 0-2.838 0l-.63 3.977-.618.731a8.907 8.907 0 0 0-1.09.448l-.949-.08-3.263-2.367c-.367.3-.722.614-1.053.945-.328.327-.647.683-.945 1.054l2.362 3.263.085.949c-.166.343-.315.71-.449 1.086l-.726.622-3.982.634a12.97 12.97 0 0 0-.004 2.826l3.986.634.726.618.453 1.086-.085.953-2.366 3.259a12.503 12.503 0 0 0 1.998 1.998l3.267-2.366.949-.08c.351.169.715.322 1.086.448l.618.734.63 3.978zm1.413 1.926c-.791 0-1.587-.065-2.366-.19a.926.926 0 0 1-.763-.767l-.654-4.123-.263-.109-3.384 2.451-1.086.004a14.968 14.968 0 0 1-1.809-1.542 15.571 15.571 0 0 1-1.534-1.805v-1.09l2.45-3.38-.108-.259-4.123-.658a.921.921 0 0 1-.767-.767 14.768 14.768 0 0 1 0-4.732.921.921 0 0 1 .767-.768l4.123-.658.105-.262-2.443-3.376-.004-1.086c.468-.654.99-1.26 1.534-1.813a14.228 14.228 0 0 1 1.817-1.539l1.082.004 3.372 2.451.27-.109.655-4.118a.917.917 0 0 1 .763-.767 14.615 14.615 0 0 1 4.744-.008.93.93 0 0 1 .76.77l.658 4.123.262.11 3.384-2.452h1.082c.674.49 1.268.986 1.813 1.53.537.542 1.054 1.152 1.535 1.81v1.09l-2.455 3.384.109.258 4.122.658c.396.061.703.368.767.768a14.454 14.454 0 0 1-.004 4.736.926.926 0 0 1-.767.763l-4.122.658-.105.259 2.455 3.38.004 1.078c-.469.65-.986 1.26-1.539 1.82a14.431 14.431 0 0 1-1.825 1.54l-1.074-.005-3.38-2.45-.262.108-.662 4.119a.917.917 0 0 1-.76.771c-.779.125-1.582.19-2.374.19z"/>
            <path d="M39.187 44.308h-4.578V40.83h5.453l-.875 3.478zm-1.289 5.123H34.61v-3.113h4.072l-.783 3.113zM32.6 33.021h-7.458v-2.85l3.645-.008 3.813.009v2.849zm-7.458 5.79H32.6v-3.78h-7.458v3.78zm0 5.497H32.6V40.83h-7.458v3.478zm0 5.123H32.6v-3.113h-7.458v3.113zm-2.018-16.41H15.56l-.708-2.819 8.27-.026v2.845zm0 5.79h-6.112l-.946-3.78h7.058v3.78zm0 5.497h-4.732l-.875-3.478h5.607v3.478zm0 5.123H19.68l-.783-3.113h4.226v3.113zm17.443-10.62H34.61v-3.78h3.566l-.76-.7c-.405-.4-.788-.848-1.157-1.31h-1.649v-2.84l2.892.004 1.456-2.01-10.17-.03-4.318.013-.334-.058-.339.062-10.24.03-.792.392-.18.862 5.334 21.238c.11.444.514.765.98.765h19.787c.462 0 .866-.32.976-.765l4.31-17.144s-2.184-.34-2.542-.227c-.357.114-.862 5.499-.862 5.499zM23.906 17.965l-.448-.08a1.34 1.34 0 0 1-.814-1.718l.141-.29c.4-.62 1.223-.81 1.843-.418a1.34 1.34 0 0 1 .461 1.798c-.242.44-.694.708-1.183.708M28.022 13.783c-.435 0-.87-.202-1.121-.589-.405-.607-.273-1.411.325-1.825l.101-.07a1.345 1.345 0 0 1 1.852.43 1.33 1.33 0 0 1-.427 1.843l-.73.211M33.391 11.567a1.341 1.341 0 0 1-.229-2.66v-.005c.726-.171 1.42.282 1.592 1.003a1.362 1.362 0 0 1-1.02 1.623l-.105.022-.238.017M21.492 23.505l-.505-.096-.73-.721-1.451-3.408a1.343 1.343 0 0 1 .703-1.76 1.362 1.362 0 0 1 1.772.713l.915 2.164 2.172-.928a1.345 1.345 0 1 1 1.055 2.476L22.016 23.4l-.524.105M56.546 48.134l-.672-.18a1.341 1.341 0 0 1-.484-1.838l.053-.084a1.338 1.338 0 0 1 1.794-.422c.646.374.866 1.196.492 1.838l-.057.08c-.26.39-.681.606-1.126.606M52.25 52.109a1.343 1.343 0 0 1-.673-2.502c.634-.37 1.47-.176 1.848.448.382.63.21 1.434-.414 1.82l-.083.05-.678.184M46.79 54.083c-.63 0-1.201-.448-1.324-1.095a1.343 1.343 0 0 1 1.055-1.56c.717-.141 1.442.32 1.592 1.041a1.343 1.343 0 0 1-1.02 1.588l-.075.009-.229.017M60.517 46.142c-.54 0-1.055-.33-1.253-.87l-.831-2.204-2.203.827a1.35 1.35 0 0 1-1.733-.787 1.343 1.343 0 0 1 .787-1.724l3.465-1.301a1.34 1.34 0 0 1 1.729.782l1.297 3.46a1.337 1.337 0 0 1-.783 1.729l-.475.088"/>
        </g>
    </g>
</svg>
