<svg xmlns="http://www.w3.org/2000/svg" width="64" height="64" viewBox="0 0 64 64">
    <g fill="none" fill-rule="evenodd">
        <path fill="none" d="M0 0h64v64H0z"/>
        <g fill="#41354B">
            <path d="M10.655 60.712H54.06V11.867H10.655v48.845zM9.328 9.585c-.73 0-1.328.509-1.328 1.136V61.86C8 62.49 8.598 63 9.328 63h46.059c.73 0 1.327-.509 1.327-1.141V10.72c0-.627-.597-1.136-1.327-1.136H9.327z"/>
            <path d="M47.258 52.65l-.517.387h-28.78l-.505-.387V19.322l.505-.388h28.78l.517.388V52.65zm-1.242-35.707H18.687c-1.652 0-3.004 1.064-3.004 2.379V52.65c0 1.314 1.352 2.379 3.004 2.379h27.329c1.663 0 3.015-1.065 3.015-2.38V19.323c0-1.315-1.352-2.38-3.015-2.38z"/>
            <path d="M42.942 22.938H21.778c-.73 0-1.316.496-1.316 1.107 0 .61.587 1.102 1.316 1.102h21.164c.718 0 1.31-.492 1.31-1.102 0-.61-.592-1.107-1.31-1.107M42.942 28.662H21.778c-.73 0-1.316.49-1.316 1.101 0 .61.587 1.107 1.316 1.107h21.164c.718 0 1.31-.496 1.31-1.107 0-.61-.592-1.101-1.31-1.101M43.828 16.852H20.893V9.85h2.184c.652 0 1.21-.393 1.322-.939.681-3.265 4.03-5.64 7.955-5.64 3.931 0 7.28 2.375 7.968 5.64.11.546.67.94 1.322.94h2.184v7zm1.345-9.273h-2.458C41.4 3.719 37.211 1 32.355 1c-4.852 0-9.034 2.719-10.35 6.579H19.54c-.745 0-1.345.506-1.345 1.135v9.278c0 .63.6 1.131 1.345 1.131h25.632c.745 0 1.345-.501 1.345-1.13V8.713c0-.629-.6-1.135-1.345-1.135z"/>
            <path d="M32.351 8.312c-1.351 0-2.44-.93-2.44-2.063 0-1.138 1.089-2.063 2.44-2.063 1.358 0 2.452.925 2.452 2.063 0 1.132-1.094 2.063-2.452 2.063zm0-6.358c-2.806 0-5.092 1.928-5.092 4.295 0 2.361 2.286 4.29 5.092 4.29 2.819 0 5.104-1.929 5.104-4.29 0-2.367-2.285-4.295-5.104-4.295z"/>
        </g>
    </g>
</svg>
