<svg xmlns="http://www.w3.org/2000/svg" width="64" height="64" viewBox="0 0 64 64">
    <g fill="#41354B" fill-rule="evenodd">
        <path d="M19.105 12.793c.766 0 1.382-.62 1.382-1.386 0-.766-.616-1.386-1.382-1.386h-7.723l-.285.032-.118.036-.14.04-.136.069-.1.058-.385.385-.059.105-.068.126-.004.01-.037.117-.04.14-.014.164-.014.104v7.741c0 .761.62 1.382 1.386 1.382.766 0 1.382-.62 1.382-1.382v-4.403l6.129 6.129a17.354 17.354 0 0 1 1.956-1.957l-6.128-6.124h4.398M52.946 43.867c-.76 0-1.377.62-1.377 1.386v4.394l-6.128-6.125a18.562 18.562 0 0 1-1.953 1.962l6.125 6.124H45.21a1.38 1.38 0 0 0-1.377 1.381c0 .766.616 1.382 1.377 1.382h7.736l.263-.023h.005l.208-.063.054-.014.2-.104.036-.023.39-.385.054-.1.068-.13.004-.01.041-.14.036-.118.027-.276v-7.732c0-.766-.62-1.386-1.386-1.386M36.653 55.15l-3.112 3.112v-8.665c-.457.04-.915.059-1.381.059-.467 0-.929-.019-1.386-.06v8.666l-3.112-3.112a1.38 1.38 0 0 0-1.953 0 1.392 1.392 0 0 0 0 1.961l5.468 5.463.217.177.1.059.131.068.145.045.118.032.272.031.271-.031.105-.027.15-.05.112-.055.127-.072.163-.127.046-.045h.004l5.467-5.468a1.383 1.383 0 1 0-1.952-1.96M33.138 1.822l-.004-.004-.046-.041-.163-.127-.127-.072-.113-.06-.15-.045-.104-.031-.271-.028-.272.028-.118.036-.145.04-.131.073-.1.054-.217.177-5.468 5.472a1.386 1.386 0 0 0 0 1.957l.983.398.97-.398 3.112-3.112v8.665c.457-.04.92-.063 1.386-.063.466 0 .924.022 1.381.063v-8.67l3.112 3.117.979.398.973-.398a1.378 1.378 0 0 0 0-1.957l-5.467-5.472M54.305 11.14l-.05-.159-.027-.1-.086-.158-.04-.082-.381-.38-.01-.005-.099-.058-.131-.068-.14-.041-.123-.036-.276-.032H45.21c-.761 0-1.377.62-1.377 1.386 0 .765.616 1.386 1.377 1.386h4.398l-6.12 6.124c.698.598 1.35 1.255 1.948 1.957l6.133-6.129v4.403a1.38 1.38 0 0 0 1.377 1.382c.766 0 1.386-.62 1.386-1.382v-7.741l-.013-.122-.014-.145M18.879 43.522l-6.129 6.129v-4.398a1.381 1.381 0 1 0-2.763 0v7.732l.023.276.04.118.037.14.072.136.059.104.385.385.1.05.135.073.14.045.119.036.271.023h7.737a1.382 1.382 0 0 0 0-2.763h-4.398l6.128-6.124a17.779 17.779 0 0 1-1.956-1.962M6.096 30.817l3.107-3.108a1.383 1.383 0 1 0-1.952-1.961L1.779 31.22l-.04.054-.132.154-.068.127-.059.113-.05.159-.031.1-.023.271.023.272.031.118.05.136.073.136.054.104.172.217 5.472 5.467.978.408.974-.408a1.378 1.378 0 0 0 0-1.956l-3.107-3.108h8.67c-.037-.457-.064-.92-.064-1.386 0-.466.027-.924.064-1.381h-8.67M62.889 31.827l-.05-.159-.059-.113-.068-.127-.131-.154-.036-.054h-.005l-5.472-5.472a1.386 1.386 0 0 0-1.956 0 1.392 1.392 0 0 0 0 1.961l3.111 3.108h-8.665c.032.457.06.915.06 1.381 0 .467-.028.929-.06 1.386h8.665l-3.111 3.108a1.386 1.386 0 0 0 0 1.956l.978.408.978-.408 5.468-5.467.176-.217.055-.104.072-.136.041-.136.04-.118.023-.272-.022-.272-.032-.1"/>
        <path d="M32.16 48.274c-8.865 0-16.072-7.211-16.072-16.076 0-8.86 7.207-16.076 16.072-16.076 8.864 0 16.071 7.216 16.071 16.076 0 8.865-7.207 16.076-16.071 16.076zm0-34.915c-10.387 0-18.844 8.453-18.844 18.84 0 10.39 8.457 18.843 18.844 18.843 10.386 0 18.843-8.453 18.843-18.844 0-10.386-8.457-18.839-18.843-18.839z"/>
        <path d="M23.712 40.266a1.384 1.384 0 0 0 .131 1.952l.095.077.834.299 1.069-.508c.475-.575.385-1.454-.177-1.947a1.383 1.383 0 0 0-1.952.127M29.75 42.173a1.381 1.381 0 0 0-1.685.996c-.19.734.258 1.49.992 1.68l.104.028.304.036c.62 0 1.164-.435 1.313-1.069.181-.734-.294-1.486-1.028-1.671M24.31 21.812l-.073.059c-.598.457-.688 1.304-.226 1.906.267.35.68.53 1.1.53l.852-.285a1.377 1.377 0 0 0 .28-1.934 1.377 1.377 0 0 0-1.933-.276M22.394 25.68c-.675-.335-1.513-.045-1.853.634l-.023.04a1.38 1.38 0 0 0 .635 1.849l.611.14c.503 0 .997-.28 1.241-.77l.027-.063c.336-.689.046-1.49-.638-1.83M42.818 28.892l.562-.123c.693-.312 1.01-1.132.693-1.82l-.018-.064a1.363 1.363 0 0 0-1.817-.666c-.702.313-.996 1.16-.684 1.857.231.512.734.816 1.264.816M22.82 36.442a1.374 1.374 0 0 0-1.83-.63 1.39 1.39 0 0 0-.657 1.844l.009.023c.23.512.734.815 1.264.815l.561-.122a1.38 1.38 0 0 0 .702-1.825l-.05-.105M21.904 31.954c0-.761-.616-1.36-1.377-1.368h-.004a1.39 1.39 0 0 0-1.382 1.377v.059c0 .76.616 1.354 1.382 1.354.76 0 1.381-.657 1.381-1.422M43.226 36.057c-.68-.335-1.522-.018-1.857.666-.34.68-.055 1.513.63 1.853l.606.136c.512 0 1.006-.281 1.246-.77l.031-.068c.336-.684.032-1.481-.656-1.817M40.553 22.246a1.38 1.38 0 1 0-1.794 2.102l.055.046.892.326 1.056-.494a1.384 1.384 0 0 0-.168-1.948l-.04-.032M43.8 30.848c-.765 0-1.385.657-1.385 1.418 0 .766.62 1.382 1.386 1.382.76 0 1.382-.616 1.382-1.382v-.068c0-.765-.621-1.35-1.382-1.35M38.488 40.27a1.386 1.386 0 0 0 .842 2.487l.83-.286.08-.058c.59-.476.666-1.314.2-1.907-.467-.603-1.35-.689-1.952-.236M34.316 42.231a1.381 1.381 0 0 0 .299 2.732l.294-.032.073-.013c.743-.173 1.177-.906 1.01-1.645-.168-.747-.933-1.205-1.676-1.042M35.43 19.597l-.059-.019c-.743-.194-1.463.259-1.658 1.002-.19.738.29 1.503 1.029 1.694l.344.04c.616 0 1.182-.412 1.336-1.037a1.376 1.376 0 0 0-.992-1.68M29.65 19.42l-.118.023c-.733.154-1.182.865-1.041 1.608.126.661.733 1.114 1.39 1.114l.236-.023a1.373 1.373 0 0 0 1.128-1.59 1.378 1.378 0 0 0-1.595-1.132M33.206 36.501v-3.07c.725.389 1.092.85 1.092 1.39 0 .752-.367 1.313-1.092 1.68zm-2.11-6.101c-.68-.367-1.025-.77-1.025-1.223 0-.589.345-1.046 1.024-1.382V30.4zm3.627 1.29c-.321-.162-.838-.348-1.517-.552v-3.397l.612.172.915.2.652-.272.244-.725-.249-.57c-.421-.4-1.15-.671-2.174-.807v-.752a1.056 1.056 0 0 0-2.11 0v.779c-.957.204-1.718.566-2.266 1.096-.738.716-1.11 1.604-1.11 2.66 0 1.041.413 1.82 1.237 2.355a6.37 6.37 0 0 0 1.255.588c.172.05.471.14.883.25v4.022l-1.191-.317c-.603-.2-1.056-.304-1.345-.304l-.635.25-.267.688.322.702c.561.498 1.599.802 3.116.933v.725a1.056 1.056 0 0 0 2.11 0l.001-.82c.947-.195 1.703-.553 2.265-1.064.797-.725 1.187-1.65 1.187-2.763 0-.684-.127-1.237-.38-1.663-.345-.589-.87-1.064-1.555-1.413z"/>
    </g>
</svg>
