<svg xmlns="http://www.w3.org/2000/svg" width="64" height="64" viewBox="0 0 64 64">
    <g fill="none" fill-rule="evenodd">
        <path fill="none" d="M0 0h64v64H0z"/>
        <g fill="#41354B">
            <path d="M43.528 15.178a2.38 2.38 0 0 0-2.384 2.38 2.383 2.383 0 0 0 2.384 2.383 2.381 2.381 0 0 0 0-4.763zm0 6.847a4.472 4.472 0 0 1-4.467-4.467 4.468 4.468 0 0 1 4.467-4.463 4.467 4.467 0 0 1 4.463 4.463 4.471 4.471 0 0 1-4.463 4.467zM20.086 43.533a2.389 2.389 0 0 0-2.379 2.388 2.381 2.381 0 0 0 4.763 0 2.387 2.387 0 0 0-2.384-2.388zm0 6.851a4.468 4.468 0 0 1-4.467-4.463 4.475 4.475 0 0 1 4.467-4.467 4.472 4.472 0 0 1 4.468 4.467 4.465 4.465 0 0 1-4.468 4.463zM43.528 43.538a2.383 2.383 0 0 0-2.384 2.383 2.381 2.381 0 1 0 2.384-2.384zm0 6.846a4.468 4.468 0 0 1-4.467-4.463 4.472 4.472 0 0 1 4.467-4.467 4.471 4.471 0 0 1 4.463 4.467 4.467 4.467 0 0 1-4.463 4.463zM20.091 15.178a2.382 2.382 0 0 0-2.384 2.38 2.386 2.386 0 0 0 2.384 2.383 2.382 2.382 0 0 0 0-4.763zm0 6.847a4.476 4.476 0 0 1-4.472-4.467 4.467 4.467 0 0 1 8.934 0 4.471 4.471 0 0 1-4.462 4.467zM5.684 29.344a2.382 2.382 0 0 0-2.384 2.38 2.386 2.386 0 0 0 2.384 2.383 2.381 2.381 0 0 0 0-4.763zm0 6.842a4.471 4.471 0 0 1-4.467-4.462 4.472 4.472 0 0 1 4.467-4.468 4.468 4.468 0 0 1 4.463 4.468 4.467 4.467 0 0 1-4.463 4.462zM57.89 29.344a2.377 2.377 0 0 0-2.375 2.38 2.381 2.381 0 0 0 2.375 2.383 2.39 2.39 0 0 0 2.388-2.383 2.386 2.386 0 0 0-2.388-2.38zm0 6.842a4.463 4.463 0 0 1-4.459-4.462 4.464 4.464 0 0 1 4.459-4.468 4.473 4.473 0 0 1 4.471 4.468 4.472 4.472 0 0 1-4.471 4.462zM39.124 38.224c-.782-3.22-3.716-6.36-7.35-6.36-3.645 0-6.574 3.14-7.357 6.36a10.053 10.053 0 0 1-2.77-6.937c0-5.586 4.54-10.126 10.126-10.126 5.582 0 10.126 4.54 10.126 10.126 0 2.688-1.06 5.127-2.775 6.937zM26.291 39.79c.05-2.666 2.47-5.84 5.482-5.84 3.003 0 5.427 3.174 5.477 5.84a10.06 10.06 0 0 1-10.959 0zm5.482-20.716c-6.733 0-12.21 5.477-12.21 12.214 0 6.733 5.477 12.205 12.21 12.205 6.733 0 12.21-5.472 12.21-12.205 0-6.737-5.477-12.214-12.21-12.214z"/>
            <path d="M31.773 24.927c-1.638 0-2.975 1.497-2.975 3.344 0 1.942 1.442 3.785 2.975 3.785 1.524 0 2.97-1.843 2.97-3.785 0-1.847-1.337-3.344-2.97-3.344zm0 9.212c-2.697 0-5.058-2.747-5.058-5.868 0-2.993 2.27-5.427 5.058-5.427 2.784 0 5.05 2.434 5.05 5.427 0 3.12-2.361 5.868-5.05 5.868zM47.954 30.682a31.299 31.299 0 0 0-1.856-9.48c-.564.4-1.228.668-1.938.773a29.355 29.355 0 0 1 1.706 8.707h-1.915l.032.605c0 .5-.041.996-.1 1.483h1.992a29.453 29.453 0 0 1-1.61 8.752c.71.123 1.37.41 1.924.82a31.59 31.59 0 0 0 1.774-9.572h5.591l-.123-1.046.123-1.042h-5.6"/>
            <path d="M56.488 35.959a25 25 0 0 1-3.416 8.92h-5.209l.128 1.042-.128 1.038h3.767c-3.748 4.858-9.216 8.334-15.472 9.457a31.313 31.313 0 0 0 5.964-6.26 4.502 4.502 0 0 1-1.783-1.118 29.344 29.344 0 0 1-7.524 7.224v-9.303h6.373l-.127-1.038.132-1.041h-6.378v-1.438l-1.042.05-1.046-.05v1.438h-6.3l.127 1.041-.128 1.038h6.3v8.893a30.28 30.28 0 0 1-7.269-7.01 4.585 4.585 0 0 1-1.706 1.224 32.686 32.686 0 0 0 6.387 6.491c-6.619-.955-12.4-4.517-16.304-9.598h3.922l-.137-1.038.137-1.041H10.4a24.918 24.918 0 0 1-3.37-8.898 4.53 4.53 0 0 1-1.347.204l-.742-.063a26.876 26.876 0 0 0 3.863 10.13l.277.428C13.945 54.037 22.292 58.9 31.755 58.9l.21-.01.163-.03.155.026h.022c13.184-.259 24.156-10.112 26.262-22.754l-.677.054c-.487 0-.965-.082-1.402-.227"/>
            <path d="M19.563 31.287l.028-.605h-1.847c.118-3.007.71-5.941 1.706-8.712a4.45 4.45 0 0 1-1.938-.768 31.107 31.107 0 0 0-1.856 9.48h-5.637l.128 1.042-.128 1.046h5.628c.109 3.266.755 6.464 1.878 9.498a4.374 4.374 0 0 1 1.943-.764 27.97 27.97 0 0 1-1.733-8.734h1.924c-.06-.487-.096-.983-.096-1.483"/>
            <path d="M31.846 4.547h-.005l-.009.005-.077-.01c-9.512 0-17.887 4.918-22.746 12.342l-.177.269a26.846 26.846 0 0 0-3.89 10.176l.742-.073c.469 0 .923.078 1.347.21a24.895 24.895 0 0 1 3.348-8.867h5.377l-.137-1.041.137-1.038h-3.944c3.853-5.044 9.566-8.597 16.113-9.603a31.648 31.648 0 0 0-6.274 6.47c.674.254 1.27.659 1.734 1.177a29.508 29.508 0 0 1 7.342-7.092v9.048h-6.3l.127 1.038-.128 1.041h6.3v.528l1.047-.054 1.042.054V18.6h6.373l-.127-1.041.127-1.038h-6.373V7.427a29.427 29.427 0 0 1 7.41 7.137 4.49 4.49 0 0 1 1.724-1.178 31.122 31.122 0 0 0-6.236-6.446c6.487 1.037 12.15 4.572 15.98 9.58h-3.83l.128 1.038-.128 1.041h5.26a24.814 24.814 0 0 1 3.365 8.89 4.479 4.479 0 0 1 1.402-.233l.682.06C56.462 14.46 45.284 4.593 31.846 4.547"/>
        </g>
    </g>
</svg>
