<svg xmlns="http://www.w3.org/2000/svg" width="64" height="64" viewBox="0 0 64 64">
    <g fill="none" fill-rule="evenodd">
        <path fill="none" d="M0 0h64v64H0z"/>
        <g fill="#41354B">
            <path d="M45.296 10.36a1.047 1.047 0 0 1-2.095 0c0-.58.466-1.045 1.043-1.045.58 0 1.052.466 1.052 1.045M48.785 10.36c0 .58-.466 1.046-1.047 1.046-.58 0-1.047-.466-1.047-1.046 0-.58.466-1.045 1.047-1.045.58 0 1.047.466 1.047 1.045M52.275 10.36c0 .58-.47 1.046-1.047 1.046-.581 0-1.048-.466-1.048-1.046 0-.58.467-1.045 1.048-1.045.576 0 1.047.466 1.047 1.045M15.835 11.406H7.223c-.581 0-1.048-.466-1.048-1.046 0-.58.467-1.045 1.048-1.045h8.612c.581 0 1.048.466 1.048 1.045 0 .58-.467 1.046-1.048 1.046"/>
            <path d="M36.56 52.029H19.004v-2.26h15.601a18.82 18.82 0 0 1-1.34-2.09h-10.3v-5.35h8.292a20.44 20.44 0 0 1-.352-2.16H4.236a.933.933 0 0 1-.933-.93v-4.173h27.452V32.98H8.27V15.112h41.897v8.834a7.849 7.849 0 0 0 2.095.93V14.073c0-.58-.472-1.055-1.052-1.055H7.223c-.581 0-1.048.475-1.048 1.055V32.98H3.303V8.347a.93.93 0 0 1 .933-.926h51.026c.517 0 .933.41.933.926v16.461a7.807 7.807 0 0 0 2.095-.981V8.347a3.025 3.025 0 0 0-3.028-3.017H4.236a3.025 3.025 0 0 0-3.028 3.017v30.891a3.026 3.026 0 0 0 3.028 3.022H20.87v5.419h-2.909c-.58 0-1.052.465-1.052 1.04v4.36c0 .57.471 1.04 1.052 1.04h21.035a22.69 22.69 0 0 1-2.438-2.09"/>
            <path d="M46.69 32.286c-4.038 0-7.322 3.282-7.322 7.308 0 4.031 3.284 7.309 7.323 7.309 4.038 0 7.318-3.278 7.318-7.309 0-4.026-3.28-7.308-7.318-7.308zm0 16.707c-5.195 0-9.417-4.213-9.417-9.399 0-5.181 4.222-9.399 9.418-9.399 5.19 0 9.417 4.218 9.417 9.4 0 5.185-4.226 9.398-9.417 9.398z"/>
            <path d="M60.531 37.704l-.018.845h-4.469l.064 1.045-.064 1.05h4.286c-1.23 8.623-7.785 12.873-12.592 14.864v-6.579l-1.047.064-1.048-.059v6.56c-5.511-2.315-11.44-6.683-12.596-14.85h4.28l-.054-1.05.055-1.045h-4.464l-.014-.845V24.776c1.875 1.589 4.075 2.438 6.394 2.438 2.32 0 4.52-.863 6.4-2.451v5.491l1.047-.059 1.047.06v-5.492c1.88 1.588 4.08 2.451 6.394 2.451 2.32 0 4.52-.849 6.4-2.438v12.928zm2.095-15.539c0-.452-.288-.849-.709-.99a1.056 1.056 0 0 0-1.17.351c-1.785 2.324-4.136 3.593-6.615 3.593s-4.825-1.27-6.614-3.593l-.036-.032-.096-.105-.064-.06-.12-.072-.072-.037-.151-.054-.064-.019-.224-.027-.234.023-.055.023-.15.05-.07.04-.118.074-.069.06-.1.104-.032.032c-1.793 2.324-4.14 3.593-6.619 3.593s-4.825-1.27-6.614-3.593a1.049 1.049 0 0 0-1.166-.351 1.038 1.038 0 0 0-.709.99v15.54c0 .638.028 1.26.078 1.87l-.005.02.032.241c.783 8.358 6.175 14.759 15.414 18.15l.014.005.041.018.028.005.334.054.32-.05.027-.004.06-.023v-.005c9.102-3.236 14.613-9.778 15.418-18.14l.032-.252-.004-.018c.055-.616.082-1.237.082-1.872V22.165z"/>
            <path d="M52.051 35.906h-1.477l-5.182 5.167-3.166-3.168h-1.481a1.048 1.048 0 0 0 0 1.48l3.91 3.907.737.296.745-.296 5.914-5.912v-1.474"/>
        </g>
    </g>
</svg>
