<svg xmlns="http://www.w3.org/2000/svg" width="64" height="64" viewBox="0 0 64 64">
    <g fill="none" fill-rule="evenodd">
        <path fill="none" d="M0 0h64v64H0z"/>
        <g fill="#41354B">
            <path d="M12.915 14.377h4.304v-4.305h-4.304v4.305zm5.415 2.22H11.8c-.61 0-1.105-.494-1.105-1.105V8.957c0-.61.494-1.11 1.105-1.11h6.53c.61 0 1.114.5 1.114 1.11v6.535c0 .61-.504 1.105-1.114 1.105zM30.962 10.072h-4.615a1.113 1.113 0 0 1 0-2.225h4.615c.615 0 1.115.5 1.115 1.11 0 .616-.5 1.115-1.115 1.115M32.27 55.88H6.513a3.284 3.284 0 0 1-3.098-2.186h28.857v-2.22H2.11C1.493 51.474 1 51.97 1 52.58c0 3.045 2.467 5.522 5.512 5.522H32.27v-2.22M35.082 41.78h-8.735a1.109 1.109 0 1 0 0 2.22h8.735v-2.22M43.856 48.847a1.857 1.857 0 0 0-1.857 1.856 1.855 1.855 0 1 0 1.857-1.857zm0 5.928a4.079 4.079 0 0 1-4.077-4.072 4.08 4.08 0 0 1 4.077-4.076 4.083 4.083 0 0 1 4.077 4.076 4.082 4.082 0 0 1-4.077 4.072zM53.55 48.847a1.856 1.856 0 0 0-1.85 1.856 1.852 1.852 0 1 0 3.703 0 1.856 1.856 0 0 0-1.852-1.856zm0 5.928a4.082 4.082 0 0 1-4.076-4.072 4.083 4.083 0 0 1 4.077-4.076 4.079 4.079 0 0 1 4.072 4.076 4.078 4.078 0 0 1-4.072 4.072zM12.915 28.92h4.304v-4.31h-4.304v4.31zm5.415 2.22H11.8c-.61 0-1.105-.5-1.105-1.11v-6.525c0-.611.494-1.115 1.105-1.115h6.53c.61 0 1.114.504 1.114 1.115v6.524c0 .611-.504 1.11-1.114 1.11zM12.915 38.61h4.304v-4.305h-4.304v4.304zm5.415 2.224H11.8c-.61 0-1.105-.5-1.105-1.115v-6.53c0-.61.494-1.105 1.105-1.105h6.53c.61 0 1.114.495 1.114 1.106v6.53c0 .615-.504 1.114-1.114 1.114zM30.962 24.61h-4.615c-.61 0-1.11-.49-1.11-1.105 0-.611.5-1.115 1.11-1.115h4.615c.615 0 1.115.504 1.115 1.115 0 .615-.5 1.105-1.115 1.105M30.962 14.915h-4.615a1.109 1.109 0 1 1 0-2.22h4.615a1.11 1.11 0 1 1 0 2.22"/>
            <path d="M37.147 59.332h23.147V24.61H37.147v34.722zm24.261 2.22h-25.37c-.612 0-1.106-.495-1.106-1.105V23.505c0-.611.494-1.115 1.105-1.115h25.371a1.11 1.11 0 0 1 1.106 1.115v36.942c0 .61-.49 1.105-1.106 1.105z"/>
            <path d="M35.082 32.084h-8.735c-.61 0-1.11.5-1.11 1.106 0 .61.5 1.115 1.11 1.115h8.735v-2.22M35.082 27.237h-8.735c-.61 0-1.11.495-1.11 1.105 0 .611.5 1.11 1.11 1.11h8.735v-2.215M42 33.825h14.687v-4.373H42v4.373zm15.802 2.22H40.885c-.611 0-1.106-.5-1.106-1.115v-6.583c0-.615.495-1.11 1.106-1.11h16.917c.61 0 1.105.495 1.105 1.11v6.583a1.11 1.11 0 0 1-1.105 1.115zM43.856 39.152a1.854 1.854 0 1 0 0 0zm0 5.928a4.08 4.08 0 0 1-4.077-4.076 4.079 4.079 0 0 1 4.077-4.072 4.082 4.082 0 0 1 4.077 4.072 4.083 4.083 0 0 1-4.077 4.076zM53.55 39.152a1.852 1.852 0 0 0-1.85 1.852 1.853 1.853 0 1 0 3.703 0 1.852 1.852 0 0 0-1.852-1.852zm0 5.928a4.083 4.083 0 0 1-4.076-4.076 4.082 4.082 0 0 1 4.077-4.072 4.078 4.078 0 0 1 4.072 4.072 4.079 4.079 0 0 1-4.072 4.076z"/>
            <path d="M34.927 15.264V6.796l8.473 8.468h-8.473zm12.245.902l-.005-.015-.092-.267-.034-.063-.175-.237L34.602 3.33l-.232-.175-.063-.034-.267-.097-.02-.005L33.818 3H6.953c-.611 0-1.106.5-1.106 1.11v46.661h2.22V5.221h24.645v11.148a1.11 1.11 0 0 0 1.105 1.115h11.154v4.334h2.22v-5.449l-.02-.203z"/>
        </g>
    </g>
</svg>
