<svg xmlns="http://www.w3.org/2000/svg" width="64" height="64" viewBox="0 0 64 64">
    <g fill="none" fill-rule="evenodd">
        <path fill="none" d="M0 0h64v64H0z"/>
        <g fill="#41354B">
            <path d="M6.333 11.529a.994.994 0 0 0-.995.993V45.92c0 .545.446.993.995.993h51.4a.992.992 0 0 0 .986-.993v-33.4a.989.989 0 0 0-.986-.992h-51.4zm0 37.615a3.224 3.224 0 0 1-3.22-3.223v-33.4a3.225 3.225 0 0 1 3.22-3.227h51.4c1.768 0 3.21 1.446 3.21 3.228V45.92a3.222 3.222 0 0 1-3.21 3.223h-51.4z"/>
            <path d="M61.54 52.109c0 .55-.441.993-.985.993H3.215a.993.993 0 0 1-.99-.993v-1.85c0-.545.446-.988.99-.988h21.297l-.048.301a1.11 1.11 0 0 0 1.107 1.115h12.613c.617 0 1.117-.496 1.117-1.115l-.048-.301h21.302c.544 0 .986.443.986.988v1.85zM10.215 17.716h43.633l.666.482v.79l-5.848 8.198-5.483-1.305-.248-.034-.247.03-.229.072-.204.132-5.842 4.834-7.082-2.283-.18-.04-.155-.014-.18.015-.13.034-.224.092-6.61 4.07-7.096-1.285-.223-.02-.253.03-.214.078-.194.112-4.327 3.466V18.198l.67-.482zm40.03 11.091l4.269-5.988V47.04h-4.27V28.807zm-20.141 2.415l5.434 1.757v14.062h-5.434V31.22zm-6.921 3.36l4.691-2.893v15.352h-4.691V34.58zM9.544 47.04v-9.013l3.875-3.11V47.04H9.544zm6.105 0V33.934l5.308.954V47.04H15.65zm22.113 0V32.687l4.05-3.354V47.04h-4.05zm6.275 0V28.374l3.987.959V47.04h-3.987zm12.7 0V18.198c0-1.494-1.296-2.711-2.89-2.711H10.214c-1.593 0-2.895 1.217-2.895 2.711v28.843H3.215A3.222 3.222 0 0 0 0 50.259v1.85a3.222 3.222 0 0 0 3.215 3.218h57.34a3.218 3.218 0 0 0 3.21-3.218v-1.85a3.218 3.218 0 0 0-3.21-3.218h-3.818z"/>
            <path d="M14.532 20.993a1.118 1.118 0 0 1-1.113-1.12c0-.613.5-1.11 1.113-1.11h14.463c.612 0 1.108.497 1.108 1.11 0 .619-.496 1.12-1.108 1.12H14.532zM14.532 25.204a1.113 1.113 0 0 1-1.113-1.115c0-.613.5-1.115 1.113-1.115h7.537c.617 0 1.113.502 1.113 1.115a1.11 1.11 0 0 1-1.113 1.115h-7.537z"/>
        </g>
    </g>
</svg>
