<svg xmlns="http://www.w3.org/2000/svg" width="400" height="403" viewBox="0 0 400 403">
    <path fill="#FFF" fill-rule="evenodd"
          d="M294.715 254.537c-21.171 4.26-37.844 21.058-42.072 42.388-4.229-21.33-20.902-38.128-42.072-42.388 21.17-4.26 37.843-21.058 42.072-42.387 4.228 21.33 20.9 38.128 42.072 42.387zm63.213-148.462c-4.228 21.33-20.901 38.123-42.072 42.388 21.17 4.26 37.844 21.058 42.072 42.387 4.228-21.33 20.901-38.123 42.072-42.387-21.17-4.26-37.844-21.058-42.072-42.388zm0 106.075c-4.228 21.33-20.901 38.128-42.072 42.387 21.17 4.26 37.844 21.058 42.072 42.388 4.228-21.33 20.901-38.128 42.072-42.388-21.17-4.26-37.844-21.058-42.072-42.387zM42.072 0C37.844 21.33 21.171 38.123 0 42.388c21.17 4.26 37.84 21.058 42.072 42.387 4.228-21.33 20.901-38.123 42.072-42.387C62.974 38.128 46.3 21.33 42.072 0zm105.285 0c-4.228 21.33-20.9 38.123-42.072 42.388 21.171 4.26 37.84 21.058 42.072 42.387 4.229-21.33 20.902-38.123 42.072-42.387C168.26 38.128 151.586 21.33 147.357 0zm210.571 84.775c4.228-21.33 20.901-38.123 42.072-42.387C378.83 38.128 362.156 21.33 357.928 0c-4.228 21.33-20.901 38.123-42.072 42.388 21.17 4.26 37.844 21.058 42.072 42.387zm-105.285 21.3c-4.229 21.33-20.902 38.123-42.072 42.388 21.17 4.26 37.843 21.058 42.072 42.387 4.228-21.33 20.9-38.123 42.072-42.387-21.171-4.26-37.844-21.058-42.072-42.388zm105.285 212.15c-4.228 21.33-20.901 38.127-42.072 42.387 21.17 4.26 37.844 21.058 42.072 42.388 4.228-21.33 20.901-38.128 42.072-42.388-21.17-4.26-37.844-21.058-42.072-42.387zM147.358 212.15c-4.229 21.33-20.902 38.128-42.073 42.387 21.171 4.26 37.84 21.058 42.072 42.388 4.229-21.33 20.902-38.128 42.072-42.388-21.17-4.26-37.843-21.058-42.072-42.387zm0-106.075c-4.229 21.33-20.902 38.123-42.073 42.388 21.171 4.26 37.84 21.058 42.072 42.387 4.229-21.33 20.902-38.123 42.072-42.387-21.17-4.26-37.843-21.058-42.072-42.388zM252.642 0c-4.229 21.33-20.902 38.123-42.072 42.388 21.17 4.26 37.843 21.058 42.072 42.387 4.228-21.33 20.9-38.123 42.072-42.387C273.544 38.128 256.87 21.33 252.643 0zM42.072 106.075C37.844 127.405 21.171 144.198 0 148.463c21.17 4.26 37.84 21.058 42.072 42.387 4.228-21.33 20.901-38.123 42.072-42.387-21.17-4.26-37.844-21.058-42.072-42.388zm0 106.075C37.844 233.48 21.171 250.278 0 254.537c21.17 4.26 37.84 21.058 42.072 42.388 4.228-21.33 20.901-38.128 42.072-42.388-21.17-4.26-37.844-21.058-42.072-42.387zm0 106.075C37.844 339.555 21.171 356.352 0 360.612c21.17 4.26 37.84 21.058 42.072 42.388 4.228-21.33 20.901-38.128 42.072-42.388-21.17-4.26-37.844-21.058-42.072-42.387zm105.285 0c-4.228 21.33-20.9 38.127-42.072 42.387 21.171 4.26 37.84 21.058 42.072 42.388 4.229-21.33 20.902-38.128 42.072-42.388-21.17-4.26-37.843-21.058-42.072-42.387zm105.286 0c-4.229 21.33-20.902 38.127-42.072 42.387 21.17 4.26 37.843 21.058 42.072 42.388 4.228-21.33 20.9-38.128 42.072-42.388-21.171-4.26-37.844-21.058-42.072-42.387z"/>
</svg>
