<svg xmlns="http://www.w3.org/2000/svg" width="64" height="64" viewBox="0 0 64 64">
    <g fill="none" fill-rule="evenodd">
        <path fill="#FFF" fill-opacity="0" d="M0 0h64v64H0z"/>
        <path fill="#41354B" d="M59.885 14.954L49.141 4.234l-.193-.195c-1.287-1.291-3.217-1.356-4.633-.323-.193.13-.386.323-.579.517L8.221 39.817c-.707.71-1.094 1.68-1.094 2.713-.064.194-.193.387-.257.581L3.074 57.706c-.064.259-.064.582-.064.84-.065.646.193 1.292.643 1.744.45.452 1.03.71 1.609.71h.386c.193 0 .386 0 .643-.065l14.605-3.487a1.99 1.99 0 0 0 .836-.387c.966 0 1.866-.388 2.638-1.098l35.515-35.65a3.77 3.77 0 0 0 1.03-3.487 4.917 4.917 0 0 0-1.03-1.872zm-14.154-9.17c.193-.195.45-.26.708-.26.257 0 .514.13.707.324l.193.193 10.68 10.72.065.065c.386.388.386 1.034 0 1.486l-4.954 4.973c-.386.387-1.094.387-1.48 0l-10.938-10.98c-.193-.193-.321-.451-.321-.71 0-.258.128-.516.321-.71l5.019-5.102zm3.41 21.57c-.386.387-1.094.387-1.48 0l-10.938-10.98c-.386-.387-.386-1.033 0-1.485l1.673-1.68c.129.26.322.518.58.776l10.937 10.979c.257.258.579.516.9.645l-1.672 1.744zM17.229 50.666l-3.732-3.746 25.092-25.186 3.732 3.745-25.092 25.187zm-7.206-9.041l24.32-24.412c.193.323.386.646.643.969l1.802 1.808-25.092 25.187-1.673-1.68a1.277 1.277 0 0 1-.386-.904c0-.387.128-.71.386-.968zm.064 15.822l-3.41-3.487L8.8 45.759l9.651 9.687-8.364 2.002zm12.482-3.294a1.317 1.317 0 0 1-1.866 0l-1.737-1.743 25.092-25.187 1.866 1.873c.257.258.579.517.965.646l-24.32 24.411z"/>
    </g>
</svg>
