<svg xmlns="http://www.w3.org/2000/svg" width="64" height="64" viewBox="0 0 64 64">
    <g fill="none" fill-rule="evenodd">
        <path fill="none" d="M0 0h64v64H0z"/>
        <g fill="#41354B">
            <path d="M26.208 45.394a.9.9 0 0 1-1.804 0 .9.9 0 1 1 1.804 0M41.704 59.122l-.71-.305-1.962-2.03v-1.48l1.961-2.036h1.422v1.475l-1.246 1.298 1.246 1.298v1.475l-.71.305M40.49 6.963c-10.207 0-18.515 8.302-18.515 18.516 0 10.209 8.308 18.515 18.515 18.515 10.216 0 18.52-8.306 18.52-18.515 0-10.214-8.304-18.516-18.52-18.516zm0 38.994c-11.292 0-20.474-9.185-20.474-20.478C20.016 14.189 29.198 5 40.49 5c11.3 0 20.483 9.19 20.483 20.479 0 11.293-9.183 20.478-20.483 20.478z"/>
            <path d="M14.88 57.173h20.657v-1.69H14.88v1.69zm7.005-3.643h6.652v-4.27h-6.652v4.27zM47.3 44.858v1.775l-.68.67H3.656l-.684-.67V43.19H30.06a21.105 21.105 0 0 1-2.784-1.953H2.971v-20.44l.684-.679h17.042c.185-.67.413-1.313.667-1.953H3.654C2.193 18.165 1 19.346 1 20.797v25.836c0 1.45 1.192 2.627 2.655 2.627h16.26v4.27H13.89a.985.985 0 0 0-.986.981v3.634c0 .538.443.977.986.977h22.636a.98.98 0 0 0 .985-.977v-3.634a.982.982 0 0 0-.985-.981h-6.02v-4.27h16.114c1.462 0 2.65-1.177 2.65-2.627v-2.577c-.641.299-1.295.563-1.97.802zM34.482 21.936l.695.293L45.2 32.253l.26.958a3.932 3.932 0 0 0 1.004 3.78 3.924 3.924 0 0 0 2.231 1.104l-1.208-1.212-.289-.777.25-2.938a.989.989 0 0 1 .958-.906l2.762-.078.725.293 1.216 1.213a3.96 3.96 0 0 0-1.104-2.235 3.953 3.953 0 0 0-3.784-1.001l-.954-.264-10.028-10.023-.254-.954c.362-1.35-.03-2.8-1.006-3.775a3.839 3.839 0 0 0-2.23-1.11l1.203 1.213.294.781-.25 2.934a.982.982 0 0 1-.958.902l-2.762.078-.725-.29-1.216-1.216a3.862 3.862 0 0 0 1.108 2.235 3.947 3.947 0 0 0 3.785 1.006l.254-.035zm14.744 18.17a5.835 5.835 0 0 1-4.155-1.717 5.934 5.934 0 0 1-1.649-5.118l-9.26-9.264-.957.074c-1.57 0-3.05-.609-4.155-1.718a5.904 5.904 0 0 1-1.394-6.097l.712-.643.919.268 2.36 2.356 1.454-.039.134-1.597-2.334-2.334-.263-.919.638-.716a5.919 5.919 0 0 1 1.942-.328c1.57 0 3.046.613 4.155 1.721a5.906 5.906 0 0 1 1.644 5.114l9.264 9.268a5.9 5.9 0 0 1 5.113 1.64 5.845 5.845 0 0 1 1.394 6.101l-.712.639-.92-.268-2.36-2.356-1.454.039-.133 1.6 2.334 2.335.268.92-.643.711a5.845 5.845 0 0 1-1.942.328z"/>
            <path d="M50.495 17.325l-.196-.188v-.004l-.184-.184 1.239-2.036 1.173 1.169-2.032 1.243zM31.458 38.074c-.235-.074-.71-.323-1.238-.85-.537-.537-.78-1.008-.86-1.243l3.764-3.764c.218.41.51.82.89 1.204.375.37.785.667 1.212.894l-3.768 3.759zm5.3-5.333c-.284 0-.825-.232-1.327-.733-.575-.576-.745-1.138-.763-1.3h.004c.284 0 .82.231 1.322.733.58.576.746 1.138.763 1.3zm18.08-17.174l-2.97-2.97-.824-.283-.732.47-2.312 3.8.148 1.225.031.03-11.553 11.548c-.64-.432-1.334-.672-1.954-.672-.566 0-1.055.188-1.413.55l-5.49 5.486c-.855.85-.436 2.412 1.033 3.881.964.964 1.967 1.474 2.783 1.474.427 0 .807-.14 1.103-.436l5.482-5.482v-.004h.005c.793-.798.702-2.146-.14-3.38l11.561-11.552.035.04.711.287.515-.14 3.798-2.306.467-.733-.283-.833zM61.982 38.643c-.557 0-1.009.47-1.009 1.023 0 .553.452 1 1.01 1 .548 0 1.004-.447 1.004-1v-.03a1 1 0 0 0-1.005-.993M54.08 52.003c-.452.32-.557.952-.232 1.404l.816.417.58-.189.052-.035c.448-.324.527-.934.206-1.382-.324-.452-.974-.54-1.422-.215M57.006 49.08a1 1 0 0 0-.233 1.399l.821.417.58-.184.052-.036c.443-.324.522-.939.202-1.386-.32-.452-.974-.536-1.422-.21M50.02 54.783l-.075.026c-.523.18-.799.755-.62 1.277.146.412.536.676.949.676l.329-.053.026-.009c.531-.17.82-.737.654-1.268a1.004 1.004 0 0 0-1.264-.65M60.843 44.542a1.03 1.03 0 0 0-1.273.64 1.003 1.003 0 0 0 .606 1.286l.342.057c.408 0 .794-.25.944-.662l.026-.093c.167-.526-.127-1.053-.645-1.228M45.888 54.734c-.558 0-1.005.456-1.005 1.005 0 .557.447 1.005 1.005 1.005h.026a.994.994 0 0 0 .992-1.005c0-.549-.47-1.005-1.018-1.005"/>
        </g>
    </g>
</svg>
