<svg xmlns="http://www.w3.org/2000/svg" width="64" height="64" viewBox="0 0 64 64">
    <g fill="none" fill-rule="evenodd">
        <path fill="none" d="M0 0h64v64H0z"/>
        <g fill="#41354B">
            <path d="M48.634 29.192a3.312 3.312 0 0 1-2.55 1.188c-.498 0-.945.32-1.107.803-.153.482.015 1 .421 1.3.513.376.904.884 1.133 1.463a3.29 3.29 0 0 1-.05 2.55 3.297 3.297 0 0 1-1.84 1.762 3.327 3.327 0 0 1-3.128-.38l-1.326-.011c-.401.274-.589.772-.472 1.24l.106.812a3.333 3.333 0 0 1-3.331 3.327H22.908a3.342 3.342 0 0 1-3.337-3.302l.127-.894a1.18 1.18 0 0 0-.462-1.26l-1.34.016a3.333 3.333 0 0 1-5.262-2.712c0-.996.436-1.925 1.203-2.56l.36-1.265a1.157 1.157 0 0 0-1.046-.792 3.303 3.303 0 0 1-1.98-.772 3.337 3.337 0 0 1-.407-4.693 3.311 3.311 0 0 1 2.54-1.184c.502 0 .95-.325 1.102-.802.157-.478-.01-1-.417-1.295a3.32 3.32 0 0 1-1.127-1.463 3.34 3.34 0 0 1 1.89-4.317 3.325 3.325 0 0 1 3.128.38l1.33.01c.402-.273.59-.766.473-1.239l-.112-.812a3.334 3.334 0 0 1 3.337-3.327 3.33 3.33 0 0 1 3.327 3.332l.005 12.22-.005 7c0 .512.34.97.838 1.117 1.884.548 3.362.548 5.247 0 .502-.148.838-.6.838-1.118V14.361l.005-.071a3.333 3.333 0 0 1 3.301-3.327h.026a3.338 3.338 0 0 1 3.331 3.307l-.121.893a1.16 1.16 0 0 0 .462 1.255l1.34-.01a3.275 3.275 0 0 1 1.93-.62 3.328 3.328 0 0 1 3.327 3.327 3.33 3.33 0 0 1-1.203 2.56l-.36 1.265c.157.457.568.772 1.045.792a3.33 3.33 0 0 1 1.986.772c1.402 1.183 1.59 3.286.407 4.688zm1.092-6.466a5.597 5.597 0 0 0-1.362-.848 5.646 5.646 0 0 0 .722-2.763 5.653 5.653 0 0 0-5.653-5.648l-1.326.152c-.335-2.824-2.758-4.982-5.658-4.982-3.073.02-5.572 2.519-5.612 5.577l-.006.076v18.305a5.695 5.695 0 0 1-2.27 0l.005-6.08-.005-12.225a5.658 5.658 0 0 0-5.653-5.653 5.672 5.672 0 0 0-5.612 4.916 5.639 5.639 0 0 0-3.393.234c-2.905 1.133-4.338 4.419-3.21 7.324l.411.838a5.588 5.588 0 0 0-2.123 1.57c-2.011 2.387-1.691 5.962.691 7.969.411.35.869.634 1.356.843a5.662 5.662 0 0 0 4.937 8.421l1.326-.163a5.662 5.662 0 0 0 5.617 4.983H36.49a5.663 5.663 0 0 0 5.607-4.922c1.112.27 2.29.203 3.393-.228a5.608 5.608 0 0 0 3.123-3.002 5.618 5.618 0 0 0 .087-4.322l-.412-.833a5.672 5.672 0 0 0 2.128-1.57c2.002-2.387 1.697-5.963-.69-7.969z"/>
            <path d="M26.458 43.246h6.471c.219-1.636.808-3.794 1.417-6.05.676-2.509 1.377-5.089 1.377-6.394l-.03-.462-1.377.487c-1.265.493-2.834 1.102-4.617 1.102s-3.362-.609-4.622-1.102L23.7 30.34l-.03.462c0 1.32.716 3.967 1.402 6.527.6 2.209 1.173 4.327 1.386 5.917zm7.548 2.326h-8.62a1.17 1.17 0 0 1-1.167-1.163c0-1.306-.701-3.937-1.392-6.476-.762-2.834-1.483-5.506-1.483-7.131 0-.777.106-1.87.98-2.474 1.016-.685 2.215-.218 3.606.33 1.138.448 2.423.95 3.769.95 1.34 0 2.63-.502 3.763-.95 1.392-.548 2.596-1.015 3.607-.33.883.605.98 1.697.98 2.474 0 1.61-.711 4.23-1.463 6.999-.696 2.57-1.412 5.226-1.412 6.608 0 .64-.523 1.163-1.168 1.163zM38.1 50.453H21.329a1.16 1.16 0 0 1-1.158-1.168c0-.645.512-1.163 1.158-1.163h16.77c.646 0 1.169.518 1.169 1.163s-.523 1.168-1.168 1.168M38.1 55.242H21.329a1.155 1.155 0 0 1-1.158-1.163c0-.64.512-1.163 1.158-1.163h16.77c.646 0 1.169.523 1.169 1.163 0 .645-.523 1.163-1.168 1.163M34.712 60.037h-9.99a1.164 1.164 0 0 1 0-2.326h9.99a1.164 1.164 0 0 1 0 2.326M9.82 42.9H8.168v1.64l.03.036.848.366.793-.32a1.158 1.158 0 0 0 .056-1.64l-.077-.082M24.914 1.028l-.06.01a1.168 1.168 0 0 0-.976 1.326c.092.574.584.985 1.153.985l.178-.01.086-.01a1.173 1.173 0 0 0 .96-1.34 1.166 1.166 0 0 0-1.34-.96M16.214 3.842l-.056.015a1.16 1.16 0 0 0 .168 2.311l.177-.015.097-.015c.63-.107 1.061-.701.95-1.336a1.165 1.165 0 0 0-1.336-.96M3.572 34.972c-.6.233-.894.914-.66 1.508l.04.092 1.037.685.457-.086c.594-.244.868-.95.63-1.544a1.16 1.16 0 0 0-1.504-.655M3.384 27.079c0-.645-.518-1.153-1.163-1.153-.64 0-1.158.533-1.158 1.178v.051c0 .645.518 1.133 1.158 1.133.645 0 1.163-.564 1.163-1.209M8.976 11.674l.838-.36.056-.061a1.16 1.16 0 0 0-.05-1.646 1.164 1.164 0 0 0-1.646.056l-.04.04a1.168 1.168 0 0 0 .035 1.646l.807.325M4.43 17.027a1.163 1.163 0 0 0-1.503.666l-.015.04c-.25.595.025 1.27.62 1.52l.451.096 1.072-.717.04-.101c.234-.6-.065-1.27-.665-1.504M34.453 1.023l-.081-.01c-.63-.096-1.184.35-1.28.98-.097.635.38 1.235 1.01 1.336l.173.01c.564 0 1.067-.416 1.153-.99a1.17 1.17 0 0 0-.975-1.326M55.84 35.002a1.167 1.167 0 0 0-1.523.625l-.04.097c-.229.604.066 1.27.665 1.503l.421.081c.468 0 .905-.284 1.082-.741l.02-.041a1.167 1.167 0 0 0-.624-1.524M57.172 25.87c-.64 0-1.164.559-1.164 1.199v.112c0 .64.524 1.158 1.164 1.158.645 0 1.163-.519 1.163-1.158v-.183c0-.645-.518-1.128-1.163-1.128M54.307 18.561l1.072.706.457-.091c.589-.254.863-.94.61-1.529l-.026-.066a1.153 1.153 0 0 0-1.519-.62c-.594.25-.868.93-.624 1.52l.03.08M49.543 11.273l.823.335.817-.335a1.159 1.159 0 0 0 0-1.646l-.025-.03a1.153 1.153 0 0 0-1.64-.051 1.154 1.154 0 0 0-.056 1.64l.08.087M49.548 42.93l-.066.062a1.164 1.164 0 0 0 .056 1.645l.792.32.848-.365.046-.051a1.162 1.162 0 0 0-1.676-1.61M43.534 3.954l-.076-.046c-.574-.284-1.234-.04-1.524.528-.294.574-.03 1.285.534 1.58l.538.132 1.031-.63a1.156 1.156 0 0 0-.503-1.564"/>
        </g>
    </g>
</svg>
